<svg width="464" height="481" viewBox="0 0 464 481" fill="none" xmlns="http://www.w3.org/2000/svg">
<path d="M67.0601 479.707H462.456C462.456 479.707 442.831 441.912 416.665 404.845C390.5 367.776 401.897 318.049 417.392 299.455C450.1 260.205 524.472 113.055 367.968 90.1255C253.856 73.4095 252.401 182.434 179.72 207.872C107.036 233.312 40.8935 256.571 38.7135 337.248C36.5335 417.925 67.0601 479.707 67.0601 479.707Z" fill="#CCE7EF"/>
<path d="M350.955 479.484C350.955 479.484 332.299 406.19 367.835 369.766C403.369 333.342 438.909 376.872 410.477 395.53C382.048 414.185 379.384 428.399 383.827 430.178C388.267 431.955 442.463 392.864 453.123 435.508C463.784 478.154 408.033 448.391 388.267 456.831C372.359 463.622 376.717 479.484 376.717 479.484H350.955Z" fill="#4BC2B0"/>
<path d="M350.955 479.484H376.717C376.717 479.484 372.359 463.622 388.267 456.831C389.039 456.502 389.872 456.235 390.748 456.015C374.911 449.784 359.248 442.383 346.14 431.438C345.333 457.392 350.955 479.484 350.955 479.484Z" fill="#32AE9E"/>
<path d="M361.799 479.158C359.687 473.05 358.702 466.618 358.702 460.12C358.695 439.002 369.137 417.206 384.92 403.923C385.201 403.687 385.237 403.266 385 402.984C384.764 402.703 384.343 402.667 384.061 402.904C367.965 416.47 357.376 438.564 357.369 460.12C357.369 466.752 358.375 473.332 360.54 479.592C360.66 479.94 361.039 480.125 361.387 480.004C361.735 479.884 361.919 479.504 361.799 479.158Z" fill="#040606"/>
<path d="M370.713 460.096C380.34 446.154 398.285 437.667 415.485 437.397C415.853 437.392 416.147 437.088 416.141 436.722C416.136 436.354 415.832 436.059 415.464 436.066C397.853 436.355 379.557 444.976 369.617 459.339C369.408 459.642 369.484 460.056 369.787 460.266C370.089 460.475 370.504 460.399 370.713 460.096Z" fill="#040606"/>
<path d="M181.989 479.484C181.989 479.484 204.661 390.411 161.475 346.147C118.289 301.882 75.1001 354.784 109.651 377.458C144.201 400.13 147.44 417.402 142.041 419.564C136.644 421.723 70.7827 374.219 57.8281 426.042C44.8707 477.866 112.623 441.697 136.644 451.954C155.976 460.207 150.681 479.484 150.681 479.484H181.989Z" fill="#0E919B"/>
<path d="M181.989 479.484H150.681C150.681 479.484 155.976 460.207 136.644 451.954C135.705 451.554 134.692 451.23 133.628 450.963C152.876 443.391 171.911 434.397 187.837 421.094C188.819 452.634 181.989 479.484 181.989 479.484Z" fill="#0B7978"/>
<path d="M170.205 479.57C172.831 471.978 174.051 463.997 174.051 455.951C174.044 429.802 161.19 402.983 141.663 386.53C141.382 386.293 140.96 386.329 140.724 386.61C140.487 386.891 140.523 387.311 140.804 387.549C160.018 403.721 172.726 430.238 172.719 455.951C172.719 463.862 171.519 471.695 168.945 479.134C168.825 479.482 169.01 479.861 169.358 479.982C169.706 480.102 170.085 479.918 170.205 479.57Z" fill="#040606"/>
<path d="M159.192 455.084C147.147 437.672 124.948 427.214 103.591 426.861C103.223 426.855 102.919 427.149 102.913 427.516C102.907 427.884 103.2 428.187 103.568 428.194C124.516 428.526 146.364 438.85 158.095 455.842C158.304 456.144 158.719 456.22 159.023 456.011C159.325 455.803 159.4 455.387 159.192 455.084Z" fill="#040606"/>
<path d="M324.913 472.494C324.913 472.494 307.803 374.003 339.592 335.604C371.381 297.206 380.476 328.138 359.519 360.852C338.56 393.568 326.4 444.54 324.913 472.494Z" fill="#0E919B"/>
<path d="M320.808 398.359C318.528 435.725 324.914 472.494 324.914 472.494C325.71 457.525 329.57 435.955 336.199 414.124C330.87 408.872 325.624 403.771 320.808 398.359Z" fill="#0B7978"/>
<path d="M325.853 468.315C325.211 461.954 324.896 455.414 324.896 448.773C324.895 417.343 331.941 383.654 344.452 356.048C344.604 355.714 344.455 355.318 344.12 355.167C343.785 355.015 343.391 355.163 343.239 355.499C330.64 383.304 323.566 417.146 323.563 448.773C323.563 455.456 323.88 462.04 324.527 468.448C324.564 468.815 324.891 469.082 325.257 469.044C325.623 469.007 325.891 468.68 325.853 468.315Z" fill="#040606"/>
<path d="M222.911 454.389C223.785 453.183 225.576 412.411 223.911 410.744C222.244 409.079 152.613 416.74 150.281 400.083C147.949 383.425 192.592 322.79 192.592 322.79L172.269 271.153C172.269 271.153 76.3214 391.755 96.6428 424.07C116.967 456.387 220.245 458.054 222.911 454.389Z" fill="#F79420"/>
<path d="M223.911 410.743C222.788 409.622 190.831 412.732 169.375 409.79C159.953 422.928 149.797 435.332 139.081 447.435C175.693 456.901 221.152 456.803 222.911 454.389C223.785 453.183 225.576 412.411 223.911 410.743Z" fill="#F57825"/>
<path d="M206.252 415.407V451.391C206.252 451.759 206.549 452.056 206.917 452.056C207.285 452.056 207.584 451.759 207.584 451.391V415.407C207.584 415.039 207.285 414.742 206.917 414.742C206.549 414.742 206.252 415.039 206.252 415.407Z" fill="#040606"/>
<path d="M359.272 163.952C360.139 169.015 387.98 168.37 391.136 170.894C394.292 173.418 405.649 182.883 409.436 183.198C413.221 183.514 438.463 168.684 438.463 167.107C438.463 165.53 434.992 139.974 430.259 133.98C425.525 127.984 384.512 138.08 384.512 138.08L386.088 147.546C386.088 147.546 355.168 139.974 359.272 163.952Z" fill="#EE6B40"/>
<path d="M383.564 135.556C385.679 126.836 423.95 115.364 430.891 121.359C437.832 127.354 436.253 152.594 432.469 157.327C428.683 162.059 409.751 169.631 403.756 166.16C397.763 162.691 381.04 145.968 383.564 135.556Z" fill="#F68C60"/>
<path d="M413.185 164.914L394.887 128.631C394.721 128.303 394.32 128.171 393.992 128.336C393.663 128.502 393.531 128.903 393.696 129.231L411.995 165.514C412.16 165.843 412.561 165.975 412.889 165.81C413.219 165.643 413.351 165.243 413.185 164.914Z" fill="#040606"/>
<path d="M422.045 162.45L406.903 123.327C406.769 122.985 406.384 122.814 406.04 122.946C405.697 123.079 405.527 123.465 405.66 123.809L420.803 162.931C420.936 163.275 421.321 163.445 421.665 163.313C422.008 163.179 422.179 162.794 422.045 162.45Z" fill="#040606"/>
<path d="M430.267 158.085L419.54 121.802C419.436 121.449 419.065 121.247 418.712 121.351C418.359 121.455 418.157 121.826 418.261 122.179L428.988 158.462C429.093 158.815 429.464 159.017 429.816 158.913C430.169 158.809 430.371 158.438 430.267 158.085Z" fill="#040606"/>
<path d="M323.191 216.514C325.856 217.179 366.168 290.474 405.147 264.155C444.127 237.836 399.149 183.864 399.815 181.199C400.483 178.534 440.129 160.21 442.128 161.875C444.127 163.54 488.436 257.492 438.796 298.47C389.155 339.448 328.189 283.81 328.189 283.81L323.191 216.514Z" fill="#F79420"/>
<path d="M323.191 216.514L328.189 283.81C328.189 283.81 364.452 316.894 403.812 313.236C397.941 298.866 391.959 284.563 387.381 269.847C354.763 269.822 325.449 217.078 323.191 216.514Z" fill="#F57825"/>
<path d="M413.721 198.143L446.371 185.15C446.713 185.014 446.88 184.626 446.744 184.285C446.608 183.942 446.22 183.775 445.879 183.911L413.229 196.905C412.887 197.041 412.72 197.429 412.856 197.77C412.992 198.111 413.38 198.279 413.721 198.143Z" fill="#040606"/>
<path d="M232.905 479.707H329.853L324.524 463.383L236.236 461.384L232.905 479.707Z" fill="#196AB7"/>
<path d="M192.259 167.873C192.259 167.873 161.943 119.565 168.605 101.575C173.483 88.4046 194.257 91.5792 195.924 88.5819C197.589 85.5832 206.917 58.5966 234.237 55.9326C248.219 54.5686 254.871 58.8766 258.479 63.1846C261.921 67.2952 262.595 71.4046 264.221 70.5912C267.552 68.9259 282.211 58.5966 286.876 63.5952C291.54 68.5926 280.213 76.5886 282.879 78.2539C283.848 78.8592 285.829 78.4072 288.2 77.9566C292.349 77.1659 297.689 76.3752 300.869 81.2526C305.865 88.9139 292.539 96.5766 292.872 98.2432C293.207 99.9086 304.533 99.2419 306.199 105.239C307.865 111.235 285.209 156.213 285.209 156.213L192.259 167.873Z" fill="#111A2C"/>
<path d="M301.921 101.077C262.556 126.781 207.497 127.442 168.7 101.347L168.605 101.575C161.943 119.565 192.259 167.873 192.259 167.873L285.209 156.213C285.209 156.213 307.865 111.235 306.199 105.239C305.629 103.19 303.923 101.929 301.921 101.077Z" fill="#080F17"/>
<path d="M195.035 155.879C195.035 155.879 187.927 135.446 174.156 142.109C160.387 148.773 165.273 176.535 183.931 178.757C202.587 180.978 195.924 159.877 195.035 155.879Z" fill="#EE6B40"/>
<path d="M175.491 146.772C177.193 146.78 178.623 147.338 179.904 148.319C181.823 149.788 183.364 152.255 184.593 155.128C185.825 157.998 186.752 161.258 187.521 164.282L188.167 164.118L188.168 163.451H188.14C185.841 163.454 184.164 163.718 182.981 164.208C182.391 164.455 181.917 164.763 181.573 165.159C181.229 165.552 181.033 166.05 181.037 166.552C181.04 167.198 181.323 167.798 181.761 168.346C183.088 169.972 185.933 171.431 189.876 172.299C190.235 172.378 190.589 172.15 190.668 171.79C190.747 171.43 190.517 171.075 190.159 170.998C187.657 170.455 185.643 169.636 184.295 168.776C183.621 168.347 183.116 167.908 182.801 167.512C182.481 167.115 182.367 166.78 182.369 166.552C182.373 166.371 182.421 166.223 182.581 166.031C182.82 165.747 183.373 165.41 184.299 165.172C185.22 164.932 186.496 164.783 188.14 164.784H188.165C188.372 164.784 188.565 164.691 188.692 164.527C188.82 164.364 188.864 164.154 188.812 163.954C187.776 159.886 186.456 155.344 184.416 151.754C183.395 149.959 182.188 148.395 180.717 147.263C179.248 146.13 177.497 145.443 175.495 145.44C175.127 145.439 174.827 145.736 174.825 146.104C174.825 146.472 175.123 146.772 175.491 146.774" fill="#040606"/>
<path d="M280.851 152.211C280.851 152.211 282.356 130.63 297.389 133.451C312.424 136.274 314.983 164.346 297.561 171.379C280.14 178.411 281.039 156.302 280.851 152.211Z" fill="#EE6B40"/>
<path d="M296.972 137.016C295.189 137.503 293.765 138.495 292.677 139.807C291.044 141.776 290.133 144.432 289.607 147.331C289.084 150.231 288.953 153.39 288.953 156.387C288.953 157.059 288.96 157.721 288.971 158.372C288.974 158.577 289.073 158.772 289.236 158.895C289.4 159.017 289.615 159.059 289.812 159.004C291.456 158.556 292.764 158.364 293.731 158.365C294.621 158.363 295.211 158.533 295.511 158.733C295.807 158.943 295.885 159.105 295.9 159.439C295.919 159.989 295.424 161.022 294.328 162.124C293.244 163.234 291.611 164.436 289.517 165.523C289.191 165.692 289.063 166.094 289.233 166.42C289.403 166.747 289.804 166.875 290.131 166.705C292.329 165.563 294.068 164.295 295.281 163.056C296.484 161.811 297.214 160.62 297.232 159.439C297.247 158.721 296.876 158.015 296.238 157.616C295.604 157.209 294.775 157.036 293.731 157.033C292.593 157.033 291.185 157.249 289.461 157.719L289.636 158.361L290.303 158.351C290.292 157.705 290.285 157.05 290.285 156.387C290.284 152.444 290.524 148.264 291.548 144.919C292.059 143.246 292.763 141.787 293.703 140.659C294.645 139.529 295.809 138.72 297.325 138.301C297.68 138.204 297.888 137.837 297.791 137.481C297.693 137.127 297.327 136.919 296.972 137.016Z" fill="#040606"/>
<path d="M234.905 214.514C234.905 214.514 238.236 235.17 236.903 236.504C235.569 237.836 227.576 243.5 227.576 243.5C227.576 243.5 241.901 258.492 254.227 254.494C266.553 250.496 270.217 234.836 270.217 234.836C270.217 234.836 257.557 233.506 257.557 231.839C257.557 230.174 253.56 210.515 253.56 210.515L234.905 214.514Z" fill="#EE6B40"/>
<path d="M286.944 168.979L282.857 129.511C280.717 108.848 264.892 92.923 245.312 89.7831C243.231 96.1924 240.76 100.231 236.569 101.907C231.259 105.094 224.437 99.4537 220.132 91.7697C200.223 98.0564 186.791 117.644 189.025 139.226L193.111 178.695C195.665 203.372 217.741 221.304 242.419 218.751L246.885 218.288C271.565 215.734 289.497 193.656 286.944 168.979Z" fill="#F68C60"/>
<path d="M207.917 182.531C200.557 182.531 194.591 176.565 194.591 169.206C194.591 161.845 200.557 155.879 207.917 155.879C215.276 155.879 221.244 161.845 221.244 169.206C221.244 176.565 215.276 182.531 207.917 182.531Z" fill="#F57C4F"/>
<path d="M271.663 178.755C264.304 178.755 258.336 172.79 258.336 165.43C258.336 158.07 264.304 152.103 271.663 152.103C279.023 152.103 284.989 158.07 284.989 165.43C284.989 172.79 279.023 178.755 271.663 178.755Z" fill="#F57C4F"/>
<path d="M209.851 175.582L238.057 189.13C238.389 189.289 238.788 189.149 238.947 188.818C239.107 188.486 238.967 188.087 238.635 187.929L210.428 174.381C210.096 174.221 209.697 174.361 209.539 174.693C209.38 175.023 209.519 175.422 209.851 175.582Z" fill="#040606"/>
<path d="M243.551 188.226L270.869 173.344C271.192 173.168 271.312 172.764 271.136 172.44C270.96 172.118 270.555 171.999 270.232 172.175L242.913 187.055C242.589 187.231 242.471 187.635 242.647 187.959C242.823 188.282 243.227 188.402 243.551 188.226Z" fill="#040606"/>
<path d="M235.275 194.524L246.824 193.858C247.191 193.836 247.472 193.522 247.451 193.154C247.429 192.787 247.115 192.506 246.747 192.527L235.199 193.194C234.831 193.215 234.551 193.53 234.572 193.898C234.593 194.264 234.908 194.546 235.275 194.524Z" fill="#040606"/>
<path d="M226.743 153.296C226.743 154.631 225.66 155.712 224.325 155.712C222.991 155.712 221.911 154.631 221.911 153.296V144.968C221.911 143.634 222.991 142.552 224.325 142.552C225.66 142.552 226.743 143.634 226.743 144.968V153.296Z" fill="#080F17"/>
<path d="M254.727 153.296C254.727 154.631 253.645 155.712 252.309 155.712C250.976 155.712 249.896 154.631 249.896 153.296V144.968C249.896 143.634 250.976 142.552 252.309 142.552C253.645 142.552 254.727 143.634 254.727 144.968V153.296Z" fill="#080F17"/>
<path d="M211.012 134.192C210.467 137.122 215.415 133.891 231.856 134.175C233.741 134.207 234.093 124.936 231.239 123.896C228.381 122.856 212.779 124.695 211.012 134.192Z" fill="#080F17"/>
<path d="M266.601 133.526C267.145 136.455 262.197 133.224 245.757 133.508C243.873 133.54 243.519 124.268 246.373 123.23C249.231 122.19 264.835 124.028 266.601 133.526Z" fill="#080F17"/>
<path d="M245.879 169.768L242.597 166.488L240.699 137.484C240.699 136.236 239.685 135.224 238.436 135.224C237.187 135.224 236.173 136.236 236.173 137.484L234.272 166.49L230.993 169.768C230.543 170.216 230.543 170.943 230.993 171.392L237.624 178.023C238.072 178.472 238.799 178.472 239.248 178.023L245.879 171.392C246.328 170.943 246.328 170.216 245.879 169.768Z" fill="#EE6B40"/>
<path d="M229.441 171.515L236.272 178.177C236.535 178.435 236.957 178.429 237.213 178.167C237.471 177.903 237.465 177.481 237.203 177.224L230.372 170.56C230.108 170.304 229.687 170.308 229.429 170.572C229.172 170.836 229.177 171.257 229.441 171.515Z" fill="#040606"/>
<path d="M240.199 178.678L246.528 172.515C246.792 172.258 246.797 171.836 246.541 171.572C246.284 171.308 245.863 171.303 245.599 171.559L239.269 177.723C239.005 177.98 239 178.402 239.257 178.666C239.513 178.928 239.936 178.935 240.199 178.678Z" fill="#040606"/>
<path d="M246.164 88.7031C248.215 84.4311 252.215 80.6591 257.04 79.5697C257.399 79.4884 257.623 79.1311 257.541 78.7724C257.46 78.4137 257.103 78.1884 256.744 78.2697C251.427 79.4857 247.173 83.5404 244.963 88.1257C244.804 88.4577 244.943 88.8551 245.275 89.0151C245.607 89.1751 246.005 89.0351 246.164 88.7031Z" fill="#040606"/>
<path d="M295.171 131.268C296.473 127.315 298.048 123.328 299.807 119.511C299.961 119.176 299.815 118.782 299.48 118.627C299.147 118.474 298.751 118.619 298.596 118.954C296.816 122.816 295.224 126.848 293.905 130.851C293.789 131.2 293.98 131.576 294.329 131.692C294.679 131.807 295.055 131.618 295.171 131.268Z" fill="#040606"/>
<path d="M173.985 126.316C175.876 130.878 177.453 135.656 178.791 140.402C178.891 140.755 179.259 140.962 179.613 140.862C179.967 140.762 180.173 140.394 180.073 140.04C178.725 135.255 177.132 130.428 175.217 125.807C175.076 125.467 174.687 125.306 174.347 125.446C174.007 125.587 173.845 125.976 173.985 126.316Z" fill="#040606"/>
<path d="M251.735 61.2098C253.914 63.6151 255.774 66.4884 257.116 69.5284C257.264 69.8644 257.657 70.0164 257.995 69.8684C258.331 69.7191 258.484 69.3258 258.335 68.9898C256.934 65.8178 255.001 62.8324 252.723 60.3164C252.476 60.0431 252.055 60.0217 251.781 60.2684C251.509 60.5164 251.488 60.9378 251.735 61.2098Z" fill="white"/>
<path d="M274.668 67.5283C276.706 66.5656 278.771 65.7496 280.915 65.0616C281.265 64.9496 281.457 64.575 281.345 64.2243C281.233 63.8736 280.857 63.6803 280.508 63.7936C278.308 64.4989 276.188 65.3363 274.099 66.3243C273.766 66.4816 273.623 66.8776 273.78 67.2109C273.937 67.5443 274.335 67.6856 274.668 67.5283Z" fill="white"/>
<path d="M234.02 172.747C235.187 173.571 236.435 174.025 237.673 174.027C239.259 174.032 240.773 173.256 241.924 171.783C242.152 171.494 242.103 171.075 241.813 170.847C241.524 170.62 241.105 170.669 240.877 170.959C239.909 172.175 238.828 172.687 237.673 172.693C236.767 172.693 235.783 172.359 234.788 171.659C234.487 171.447 234.071 171.518 233.859 171.819C233.647 172.12 233.719 172.535 234.02 172.747Z" fill="white"/>
<path d="M136.907 165.442C137.319 164.859 119.675 154.644 114.887 151.888C115.008 151.075 115.099 150.251 115.123 149.408C115.469 137.883 106.408 128.26 94.8815 127.912C83.3561 127.566 73.7321 136.628 73.3868 148.154C73.0388 159.679 82.1028 169.304 93.6281 169.65C101.293 169.88 108.099 165.936 111.912 159.886C118.236 161.472 136.512 165.999 136.907 165.442Z" fill="#71CDD6"/>
<path d="M76.7081 148.346C76.7868 154.16 78.4108 158.72 81.4601 161.816C84.5081 164.915 88.9215 166.479 94.3735 166.475C95.3575 166.475 96.3748 166.424 97.4268 166.324C97.7935 166.288 98.0615 165.963 98.0268 165.598C97.9921 165.231 97.6655 164.963 97.3001 164.998C96.2868 165.095 95.3121 165.143 94.3735 165.143C89.1628 165.139 85.1548 163.668 82.4095 160.882C79.6641 158.094 78.1201 153.916 78.0401 148.327C78.0361 147.959 77.7335 147.666 77.3655 147.67C76.9975 147.675 76.7028 147.978 76.7081 148.346Z" fill="#040606"/>
<path d="M131.972 79.4885C132.777 78.1805 133.523 76.8205 134.183 75.3912C143.213 55.8685 134.705 32.7205 115.18 23.6925C95.6562 14.6645 72.5095 23.1725 63.4815 42.6951C54.4535 62.2205 62.9615 85.3658 82.4842 94.3951C95.4722 100.402 110.06 98.6391 121.032 91.0405C130.748 98.4098 158.743 119.51 159.828 118.844C160.967 118.147 138.189 87.7445 131.972 79.4885Z" fill="#71CDD6"/>
<path d="M123.075 88.5257L154.169 113.844C154.455 114.078 154.875 114.034 155.107 113.748C155.339 113.463 155.296 113.044 155.011 112.811L123.917 87.4923C123.632 87.2603 123.212 87.303 122.98 87.5884C122.747 87.8737 122.789 88.2937 123.075 88.5257Z" fill="#040606"/>
<path d="M89.5855 92.6563C92.9401 93.4296 96.3428 93.8149 99.7175 93.8149C106.599 93.8149 113.363 92.2136 119.365 89.0416C119.691 88.8696 119.815 88.4669 119.643 88.1416C119.471 87.8163 119.067 87.6923 118.741 87.8643C112.943 90.9296 106.392 92.4829 99.7175 92.4829C96.4441 92.4829 93.1415 92.1096 89.8855 91.3576C89.5268 91.275 89.1681 91.499 89.0855 91.8576C89.0028 92.2163 89.2268 92.5736 89.5855 92.6563Z" fill="#040606"/>
<path d="M192.764 225.435C193.033 223.378 133.977 221.132 117.857 220.559C117.065 218.304 116.147 216.07 115.068 213.874C100.299 183.818 63.9615 171.427 33.9068 186.196C3.85081 200.966 -8.53987 237.302 6.22947 267.358C20.9988 297.412 57.3361 309.804 87.3921 295.034C107.385 285.207 119.549 265.835 121.112 245.116C139.575 240.576 192.504 227.4 192.764 225.435Z" fill="#71CDD6"/>
<path d="M121.575 240.863L179.383 227.574C179.741 227.491 179.965 227.134 179.883 226.775C179.8 226.417 179.443 226.193 179.084 226.275L121.276 239.565C120.917 239.647 120.693 240.005 120.776 240.363C120.859 240.722 121.216 240.946 121.575 240.863Z" fill="#040606"/>
<path d="M106.197 274.28C112.696 266.538 116.461 256.388 116.553 246.351C116.556 245.983 116.26 245.682 115.892 245.679C115.525 245.675 115.224 245.971 115.22 246.339C115.136 256.051 111.473 265.928 105.177 273.423C104.94 273.704 104.977 274.126 105.259 274.362C105.541 274.599 105.961 274.562 106.197 274.28Z" fill="#040606"/>
<path d="M334.113 5.90848C325.845 -2.13019 312.628 -1.94221 304.588 6.32579C296.552 14.5938 296.74 27.8111 305.008 35.8485C305.609 36.4352 306.248 36.9658 306.901 37.4658C305.38 42.7738 299.813 62.3898 300.517 62.5205C301.187 62.6472 311.167 46.6791 314.604 41.1391C321.552 42.8338 329.185 40.9311 334.529 35.4311C342.567 27.1645 342.381 13.9471 334.113 5.90848Z" fill="#71CDD6"/>
<path d="M306.373 52.5177L313.387 40.0111C313.567 39.6911 313.453 39.2844 313.132 39.1044C312.811 38.9244 312.405 39.039 312.225 39.359L305.211 51.8657C305.031 52.187 305.145 52.5937 305.465 52.7737C305.787 52.9537 306.193 52.8391 306.373 52.5177Z" fill="#040606"/>
<path d="M315.697 39.2177C316.852 39.407 317.98 39.5017 319.079 39.5017C324.835 39.5123 329.728 36.8617 333.051 31.8697C333.256 31.563 333.174 31.1497 332.868 30.9457C332.562 30.7404 332.148 30.823 331.944 31.1283C328.811 35.7937 324.425 38.1577 319.079 38.1683C318.057 38.1683 317.001 38.0803 315.912 37.9017C315.549 37.843 315.207 38.0884 315.147 38.4524C315.088 38.815 315.333 39.1577 315.697 39.2177Z" fill="#040606"/>
<path d="M427.181 53.8604C420.236 33.5044 398.1 22.6297 377.744 29.5764C357.385 36.5217 346.512 58.6564 353.457 79.015C353.969 80.5044 354.565 81.935 355.231 83.319C348.189 90.883 322.367 118.748 323.424 119.559C324.437 120.335 354.476 102.266 364.907 95.9484C375.027 104.648 389.353 107.92 402.896 103.299C423.252 96.3524 434.125 74.219 427.181 53.8604Z" fill="#71CDD6"/>
<path d="M334.332 111.315L361.88 93.7097C362.19 93.511 362.28 93.0991 362.083 92.7884C361.884 92.4791 361.472 92.3884 361.162 92.5857L333.614 110.192C333.304 110.39 333.214 110.802 333.411 111.112C333.61 111.422 334.022 111.512 334.332 111.315Z" fill="#040606"/>
<path d="M368.133 93.9537C374.449 98.807 381.933 101.379 389.62 101.378C392.633 101.378 395.677 100.983 398.693 100.176C399.048 100.082 399.26 99.7163 399.164 99.3617C399.069 99.0057 398.704 98.795 398.349 98.8897C395.444 99.6657 392.516 100.046 389.62 100.046C382.232 100.044 375.04 97.5777 368.945 92.8977C368.653 92.6737 368.235 92.7284 368.011 93.0204C367.787 93.3124 367.841 93.7297 368.133 93.9537Z" fill="#040606"/>
<path d="M217.247 241.833C222.888 237.804 240.235 251.828 251.228 246.831C262.224 241.833 261.556 228.841 268.885 227.175C276.216 225.509 278.213 230.507 278.213 230.507C278.213 230.507 319.192 211.516 323.191 216.513C327.188 221.509 336.849 280.813 329.853 334.119C322.857 387.423 315.528 413.741 315.528 415.407C315.528 417.073 329.853 469.379 328.189 472.711C326.521 476.043 234.905 475.711 232.905 471.379C230.907 467.047 236.569 419.407 234.905 415.075C233.237 410.743 165.607 283.809 171.271 272.817C176.935 261.823 214.581 250.163 215.581 249.829C216.58 249.495 212.581 245.164 217.247 241.833Z" fill="#FBBF15"/>
<path d="M221.885 389.478C229.2 403.807 234.455 413.904 234.905 415.075C236.569 419.407 227.699 468.971 229.697 473.303C231.697 477.634 329.419 476.411 331.085 473.08C332.751 469.748 315.528 417.073 315.528 415.407C315.528 414.094 320.089 397.42 325.452 364.271C295.961 384.084 258.343 390.74 221.885 389.478Z" fill="#F79420"/>
<path d="M236.355 335.748L301.985 358.07C302.335 358.188 302.713 358.002 302.831 357.654C302.949 357.304 302.764 356.927 302.415 356.808L236.784 334.486C236.435 334.368 236.056 334.554 235.939 334.903C235.82 335.251 236.007 335.63 236.355 335.748Z" fill="#040606"/>
<path d="M276.017 334.383L297.007 300.066C297.199 299.752 297.1 299.342 296.787 299.15C296.472 298.958 296.063 299.058 295.871 299.371L274.881 333.687C274.689 334.002 274.788 334.411 275.101 334.603C275.416 334.795 275.825 334.696 276.017 334.383Z" fill="#040606"/>
<path d="M231.296 257.675C235.369 258.798 239.592 259.374 243.775 259.374C250.369 259.374 256.865 257.94 262.507 254.94C268.148 251.942 272.929 247.366 276.053 241.122C276.217 240.792 276.084 240.392 275.755 240.227C275.427 240.062 275.025 240.195 274.861 240.524C271.863 246.512 267.303 250.878 261.881 253.763C256.461 256.647 250.177 258.042 243.775 258.04C239.715 258.04 235.609 257.482 231.649 256.39C231.295 256.292 230.928 256.5 230.831 256.855C230.732 257.21 230.941 257.578 231.296 257.675Z" fill="#040606"/>
<path d="M222.131 410.023C225.067 407.55 271.231 409.131 273.909 414.042C276.585 418.951 279.712 451.091 276.14 453.323C272.571 455.555 230.164 468.501 220.791 456.449C211.415 444.395 213.648 417.167 222.131 410.023Z" fill="#F68C60"/>
<path d="M240.036 449.078L274.855 446.399C275.221 446.371 275.496 446.049 275.468 445.683C275.44 445.316 275.119 445.042 274.752 445.07L239.933 447.748C239.567 447.776 239.292 448.096 239.32 448.464C239.348 448.831 239.668 449.106 240.036 449.078Z" fill="#040606"/>
<path d="M237.751 436.135H275.248C275.616 436.135 275.915 435.836 275.915 435.468C275.915 435.1 275.616 434.801 275.248 434.801H237.751C237.383 434.801 237.085 435.1 237.085 435.468C237.085 435.836 237.383 436.135 237.751 436.135Z" fill="#040606"/>
<path d="M237.701 421.402L272.967 424.079C273.333 424.107 273.653 423.832 273.681 423.466C273.709 423.099 273.435 422.779 273.067 422.751L237.801 420.072C237.435 420.044 237.115 420.319 237.087 420.687C237.059 421.054 237.333 421.373 237.701 421.402Z" fill="#040606"/>
</svg>
