<svg width="667" height="667" viewBox="0 0 667 667" fill="none" xmlns="http://www.w3.org/2000/svg">
<path d="M143.285 512.349C143.285 512.349 70.4574 460.488 49.4918 372.212C28.5255 283.936 60.5255 176.901 121.216 122.832C181.905 68.7641 291.147 105.177 339.699 150.419C388.249 195.66 388.249 195.66 388.249 195.66C388.249 195.66 434.595 221.039 495.285 218.832C555.975 216.625 610.043 299.384 624.388 364.488C638.732 429.591 604.525 515.659 604.525 515.659L143.285 512.349Z" fill="#D1EBFA"/>
<path d="M101.905 520.18C86.9558 509.351 56.0818 481.856 46.1812 434.004C42.0724 414.146 44.764 394.815 50.5954 376.644C65.1803 432.626 100.348 473.438 122.929 494.971H101.905V520.18ZM612.732 494.971H611.633C617.004 477.662 623.908 451.371 626.675 423.419C628.308 437.988 626.944 453.099 622.18 470.419C619.529 480.06 616.245 488.176 612.732 494.971ZM592.252 287.628C568.147 249.26 534.192 218.789 497.665 218.789C496.875 218.789 496.077 218.804 495.285 218.832C492.755 218.924 490.255 218.968 487.777 218.968C430.816 218.968 388.249 195.66 388.249 195.66C388.249 195.66 388.249 195.66 339.699 150.419C337.067 147.967 334.253 145.536 331.283 143.15C358.492 129.075 390.733 98.9642 437.695 98.9642C444.104 98.9642 450.785 99.5242 457.768 100.764C526.18 112.902 592.388 149.315 595.699 228.764C596.823 255.759 594.636 273.836 592.252 287.628Z" fill="#D1EAF9"/>
<path d="M611.633 494.971H516.477C525.719 470.408 536.004 435.84 532.967 409.728C527.705 364.488 502.445 321.453 450.872 288.349C431.328 275.804 400.6 266.587 367.163 264.601C369.204 252.141 369.295 239.004 368.664 232.073C367.561 219.936 361.768 210.004 361.768 210.004C361.768 210.004 350.876 203.827 336.953 203.827C332.74 203.827 328.248 204.393 323.699 205.867C304.112 212.211 297.216 242.556 299.423 258.556C300.052 263.116 301.191 267.035 302.699 270.477C268.987 279.247 237.953 297.853 218.271 330.28C189.372 377.892 191.207 427.924 198.963 463.3V494.971H122.929C100.348 473.437 65.1803 432.625 50.5953 376.644C63.5568 336.257 92.0312 301.592 95.836 279.521C101.354 247.521 89.2156 207.797 139.975 176.901C190.732 146.004 281.216 157.039 315.423 149.315C320.559 148.155 325.819 145.976 331.283 143.149C334.253 145.536 337.067 147.967 339.699 150.419C388.249 195.66 388.249 195.66 388.249 195.66C388.249 195.66 430.816 218.968 487.777 218.968C490.255 218.968 492.755 218.924 495.285 218.832C496.077 218.804 496.875 218.789 497.665 218.789C534.192 218.789 568.147 249.26 592.252 287.628C587.621 314.425 582.253 325.041 599.008 353.453C614.429 379.601 624.147 400.86 626.675 423.419C623.908 451.371 617.004 477.661 611.633 494.971Z" fill="#B0D6F2"/>
<path d="M516.477 494.971H423.829C425.371 489.424 429.077 469.04 429.077 469.04C429.077 469.04 397.629 442.097 395.975 437.683C394.871 434.74 395.423 380.212 390.732 355.108C386.043 330.004 379.975 324.947 367.285 318.695C354.171 312.232 334.732 306.188 334.732 306.188C334.732 306.188 338.595 315.108 342.18 336.073C345.768 357.04 349.077 392.349 349.905 416.625C350.656 438.636 351.179 486.271 351.271 494.971H312.261C312.924 488.743 315.528 463.421 314.319 460.764C313.787 459.591 300.912 458.913 285.308 458.521V358.971C285.308 358.971 269.44 357.863 252.172 357.863C236.056 357.863 218.72 358.828 211.928 362.556C197.86 370.28 198.963 397.04 198.963 397.04V463.3C191.207 427.924 189.372 377.892 218.271 330.28C237.953 297.853 268.987 279.247 302.699 270.477C302.849 270.82 303.003 271.159 303.16 271.492C302.053 280.289 299.876 296.747 298.871 298.556C297.492 301.039 297.492 301.039 297.492 301.039L290.595 305.729C290.595 305.729 303.836 324.488 320.112 327.521C322.323 327.935 324.207 328.112 325.813 328.112C336.039 328.112 335.008 320.901 335.008 320.901L332.525 315.66L334.691 296.903C336.388 297.165 338.113 297.308 339.833 297.308C346.983 297.308 354.052 294.865 358.732 288.625C362.993 282.944 365.629 273.964 367.163 264.601C400.6 266.587 431.328 275.804 450.872 288.349C502.445 321.453 527.705 364.488 532.967 409.728C536.004 435.84 525.719 470.408 516.477 494.971Z" fill="#95C3EB"/>
<path d="M198.963 496.35V397.04C198.963 397.04 197.86 370.28 211.928 362.556C225.997 354.832 285.308 358.971 285.308 358.971V496.35H198.963Z" fill="#3A76C4"/>
<path d="M303.836 266.004C303.836 266.004 300.251 296.074 298.871 298.556C297.492 301.039 297.492 301.039 297.492 301.039L290.595 305.73C290.595 305.73 303.836 324.488 320.112 327.522C336.388 330.556 335.008 320.902 335.008 320.902L332.525 315.66L335.837 286.97C335.837 286.97 306.319 273.454 303.836 266.004Z" fill="#F57C83"/>
<path d="M282.043 308.212L292.801 303.521C292.801 303.521 299.699 314.832 315.699 321.453C331.699 328.073 331.975 324.212 332.801 321.453C333.629 318.695 332.525 315.66 332.525 315.66L333.709 306.001L340.108 308.133L362.319 487.797L305.216 490.556L282.043 308.212Z" fill="white"/>
<path d="M334.732 306.188C334.732 306.188 338.595 315.108 342.18 336.074C345.768 357.04 349.077 392.35 349.905 416.626C350.732 440.902 351.285 496.35 351.285 496.35C351.285 496.35 422.456 496.35 423.285 496.35C424.112 496.35 429.077 469.04 429.077 469.04C429.077 469.04 397.629 442.098 395.975 437.683C394.871 434.74 395.423 380.212 390.732 355.108C386.043 330.004 379.975 324.947 367.285 318.695C354.171 312.232 334.732 306.188 334.732 306.188Z" fill="#293D8A"/>
<path d="M372.249 464.74C371.881 464.74 371.583 464.442 371.583 464.074C371.583 462.102 371.232 434.079 370.895 406.979C370.555 379.875 370.204 351.848 370.204 349.867C370.204 349.498 370.503 349.2 370.871 349.2C371.239 349.2 371.537 349.498 371.537 349.867C371.537 351.839 371.888 379.862 372.227 406.962C372.565 434.066 372.916 462.092 372.916 464.074C372.916 464.442 372.619 464.74 372.249 464.74Z" fill="#788CBD"/>
<path d="M228.801 458.004L228.251 496.35H312.112C312.112 496.35 315.699 463.798 314.319 460.764C312.94 457.728 228.801 458.004 228.801 458.004Z" fill="#293D8A"/>
<path d="M333.868 304.031C330.227 302.695 325.552 300.484 322.135 297.729C316.148 292.903 312.313 287.153 309.828 281.513C312.595 284.659 315.656 287.38 318.732 290.004C322.628 293.327 328.473 295.936 334.691 296.903L333.868 304.031Z" fill="#945168"/>
<path d="M361.768 210.004C361.768 210.004 367.561 219.936 368.664 232.073C369.768 244.212 368.664 275.384 358.732 288.625C348.801 301.867 328.112 298.004 318.732 290.004C310.125 282.663 301.629 274.556 299.423 258.556C297.216 242.556 304.112 212.211 323.699 205.867C343.284 199.521 361.768 210.004 361.768 210.004Z" fill="#F57C83"/>
<path d="M386.653 479.007C386.653 479.007 385.68 479.007 384.2 478.967C383.853 478.953 383.467 478.967 383.065 478.953C381.64 478.913 379.907 478.875 378.16 478.822C377.773 478.807 377.373 478.793 376.987 478.78C375.253 478.74 373.773 478.954 372.387 478.875H372.347C372.053 478.86 371.627 478.9 371.28 478.913C371.107 478.928 370.947 478.94 370.84 478.928C370.04 478.78 369.88 478.595 369.013 478.208C367.893 477.7 352.732 474.315 340.399 474.393C328.08 474.447 317.027 475.287 315.227 473.78C313.413 472.247 312.32 456.768 322.84 455.753L335.773 460.66C335.773 460.66 365.307 457.155 376.133 465.14C386.987 473.127 386.653 479.007 386.653 479.007Z" fill="#F57C83"/>
<path d="M372.347 478.875C372.053 478.86 371.627 478.9 371.28 478.914C371.013 478.488 370.452 477.714 370.147 477.394C366.813 473.994 358.76 471.794 355.84 471.087C355.573 471.02 355.399 470.754 355.467 470.488C355.52 470.22 355.8 470.06 356.08 470.114C360.333 471.14 369.36 473.768 371.92 478.074C372 478.194 372.213 478.607 372.347 478.875Z" fill="#293D8A"/>
<path d="M378.164 478.82C377.777 478.811 377.377 478.8 376.991 478.778C373.351 472.14 367.396 470.235 360.037 467.868L359.601 467.723C359.349 467.638 359.196 467.354 359.284 467.09C359.369 466.838 359.64 466.684 359.917 466.771L360.34 466.915C368.121 469.412 374.383 471.419 378.164 478.82Z" fill="#293D8A"/>
<path d="M384.201 478.967C383.855 478.957 383.468 478.961 383.067 478.952C380.86 474.311 373.555 466.544 363.889 464.733C363.611 464.687 363.429 464.429 363.476 464.151C363.536 463.884 363.793 463.705 364.06 463.752C374.016 465.621 382.048 473.753 384.201 478.967Z" fill="#293D8A"/>
<path d="M306.043 244.901C306.043 244.901 312.112 242.004 316.388 233.867C320.664 225.729 320.112 218.419 320.112 218.419C320.112 218.419 327.836 217.177 339.423 220.625C351.008 224.073 364.801 228.764 376.388 222.143C387.975 215.522 387.975 204.901 382.319 200.488C375.985 195.544 363.423 198.556 363.423 198.556C363.423 198.556 368.249 193.867 365.629 191.108C363.008 188.35 353.492 191.936 353.492 191.936C353.492 191.936 341.905 182.695 319.975 183.798C298.043 184.901 287.56 200.212 286.319 217.315C285.077 234.419 291.285 251.521 291.285 251.521L306.043 244.901Z" fill="#293D8A"/>
<path d="M350.96 273.038C350.707 273.038 350.441 273.031 350.16 273.019C348.536 272.956 346.495 272.688 345.101 271.816C344.689 271.558 344.845 270.884 345.351 270.884C345.352 270.884 345.352 270.884 345.353 270.884C346.22 270.888 347.067 271.15 347.932 271.215C348.736 271.274 349.549 271.308 350.355 271.346C350.823 271.367 351.377 271.41 351.943 271.41C352.789 271.41 353.655 271.314 354.271 270.906C356.964 269.123 351.728 266.923 350.62 266.107C348.303 264.399 348.768 261.45 349.011 258.92C349.324 255.668 349.293 252.111 350.536 249.047C350.625 248.828 350.855 248.712 351.067 248.712C351.307 248.712 351.527 248.86 351.499 249.178C351.148 253.082 350.245 256.935 350 260.858C349.896 262.49 349.776 264.25 351.236 265.295C352.289 266.05 353.569 266.41 354.613 267.183C355.519 267.855 356.421 268.934 356.26 270.136C356.119 271.206 355.247 271.836 354.347 272.283C353.139 272.883 352.176 273.038 350.96 273.038Z" fill="#945168"/>
<path d="M361.812 258.22C361.4 260.545 359.709 262.189 358.033 261.893C356.359 261.597 355.335 259.471 355.745 257.147C356.157 254.821 357.848 253.176 359.524 253.472C361.199 253.768 362.224 255.895 361.812 258.22Z" fill="#293D8A"/>
<path d="M340.704 256.378C340.331 258.887 338.564 260.702 336.756 260.434C334.948 260.164 333.785 257.912 334.159 255.404C334.532 252.895 336.3 251.079 338.108 251.348C339.915 251.618 341.077 253.87 340.704 256.378Z" fill="#293D8A"/>
<path d="M356.897 248.635C358.187 248.852 359.488 248.629 360.788 248.721C361.101 248.743 361.409 248.789 361.723 248.82C361.944 248.84 361.308 248.753 361.617 248.804L361.816 248.837C361.979 248.867 362.141 248.9 362.301 248.939C362.579 249.007 362.847 249.111 363.124 249.172C363.376 249.227 363.656 249.285 363.909 249.273C364.052 249.255 364.192 249.236 364.335 249.216L364.067 249.265L364.595 249.208C365.335 249.035 365.791 248.179 365.584 247.464C365.524 247.259 365.433 247.072 365.303 246.903L365.133 246.688L365.289 246.867L365.119 246.64C365.045 246.517 364.948 246.419 364.824 246.345L364.512 246.108C364.171 245.871 363.721 245.732 363.316 245.628C362.547 245.429 361.739 245.328 360.947 245.324C360.157 245.32 359.379 245.403 358.599 245.511C357.911 245.605 357.145 245.84 356.587 246.255C356.156 246.576 355.891 246.988 355.965 247.552C356.028 248.019 356.396 248.549 356.897 248.635Z" fill="#293D8A"/>
<path d="M342.184 244.944C342.009 244.84 341.831 244.75 341.645 244.666C341.489 244.595 341.063 244.371 341.385 244.547L341.031 244.358C340.496 244.088 339.941 243.908 339.364 243.762C338.105 243.44 336.78 243.359 335.489 243.495C334.112 243.64 332.855 243.974 331.661 244.692C331.493 244.795 331.32 244.894 331.18 245.034C331.085 245.154 330.992 245.275 330.901 245.398L330.98 245.278C330.612 245.535 330.397 245.956 330.401 246.402C330.404 246.83 330.627 247.187 330.999 247.394C331.448 247.644 331.875 247.524 332.339 247.406C332.105 247.406 331.872 247.406 331.64 247.406C332.023 247.464 332.292 247.48 332.679 247.395C332.693 247.392 333.051 247.303 332.815 247.352C332.593 247.4 333.191 247.307 333.256 247.298C333.332 247.287 333.747 247.246 333.308 247.288L333.551 247.26C333.757 247.235 333.967 247.208 334.175 247.192C335.085 247.119 335.993 247.078 336.905 247.048C337.752 247.02 338.615 247.014 339.46 247.05C339.824 247.066 340.184 247.078 340.548 247.088C340.751 247.094 340.665 247.126 340.525 247.082L340.752 247.14C340.903 247.182 341.051 247.231 341.196 247.287C341.785 247.511 342.491 247.086 342.708 246.544C342.945 245.955 342.744 245.278 342.184 244.944Z" fill="#293D8A"/>
<path d="M348.733 283.292C350 280.747 352.303 278.882 354.965 277.682C352.655 277.447 341.741 276.436 338.988 278C335.903 279.751 339.559 286.784 345.937 287.138C346.608 287.175 347.217 287.12 347.797 287.03C347.849 285.746 348.145 284.475 348.733 283.292Z" fill="#293D8A"/>
<path d="M284.525 304.349C284.525 304.349 244.251 314.28 230.181 330.28C216.112 346.28 209.492 425.177 209.216 439.797C208.94 454.419 219.147 460.488 225.216 464.625C231.285 468.764 258.043 476.212 279.56 477.316C301.077 478.419 321.492 477.316 321.492 477.316C321.492 477.316 321.423 472.625 324.732 465.728C327.803 459.332 331.699 458.004 331.699 458.004L313.216 451.384C313.216 451.384 309.98 393.392 304.94 365.316C299.147 333.039 284.525 304.349 284.525 304.349Z" fill="#293D8A"/>
<path d="M351.285 442.119L351.015 442.061C350.677 441.912 350.525 441.519 350.675 441.183C354.449 432.668 358.359 415.953 360.561 404.227L360.741 403.279C361.408 399.829 362.237 395.54 360.583 392.579C359.739 391.068 357.833 387.791 356 384.64C354.097 381.369 352.3 378.279 351.801 377.357C350.831 375.556 353.889 370.745 358.317 364.147C359.512 362.363 360.547 360.823 361.149 359.78C362.728 357.049 361.676 354.548 360.46 351.652L360.047 350.655C358.944 347.947 357.689 345.235 356.479 342.612C355.984 341.541 355.488 340.468 355 339.389C354.352 337.964 353.703 336.513 353.044 335.047C349.145 326.356 345.115 317.371 339.952 308.689C339.764 308.373 339.868 307.964 340.184 307.776C340.501 307.589 340.909 307.692 341.099 308.009C346.299 316.755 350.345 325.776 354.26 334.5C354.917 335.967 355.567 337.415 356.213 338.84C356.701 339.915 357.195 340.985 357.688 342.053C358.907 344.689 360.167 347.416 361.281 350.152L361.689 351.136C362.931 354.089 364.213 357.144 362.303 360.447C361.677 361.529 360.633 363.087 359.424 364.888C357.116 368.329 352.311 375.492 352.975 376.723C353.463 377.627 355.255 380.708 357.152 383.969C358.989 387.128 360.9 390.413 361.747 391.928C363.64 395.315 362.759 399.871 362.052 403.532L361.871 404.472C361.068 408.743 356.82 430.608 351.895 441.721C351.784 441.972 351.54 442.119 351.285 442.119Z" fill="#788CBD"/>
<path d="M311.975 444.464C311.803 444.464 311.631 444.399 311.501 444.268C308.367 441.108 293.249 414.934 292.124 410.011C291.508 407.316 293.055 400.482 294.551 393.871C295.709 388.75 296.908 383.454 296.567 382.02C296.057 379.878 292.192 376.719 288.453 373.666C283.937 369.978 279.268 366.162 278.364 362.726C277.336 358.82 278.215 334.371 278.796 318.194C279.005 312.376 279.171 307.782 279.169 306.143C279.169 305.775 279.468 305.476 279.836 305.476C280.204 305.476 280.503 305.774 280.503 306.142C280.504 307.806 280.339 312.411 280.128 318.242C279.585 333.363 278.676 358.67 279.653 362.387C280.448 365.403 285.149 369.244 289.297 372.634C293.388 375.975 297.251 379.131 297.864 381.712C298.276 383.446 297.152 388.414 295.851 394.164C294.456 400.328 292.876 407.314 293.424 409.714C294.528 414.54 309.369 440.226 312.448 443.327C312.707 443.59 312.705 444.011 312.444 444.27C312.313 444.399 312.144 444.464 311.975 444.464Z" fill="#788CBD"/>
<path d="M257.768 433.016L257.675 433.009C257.309 432.957 257.056 432.62 257.107 432.256C257.596 428.788 265.249 359.721 265.6 354.432C265.625 354.063 265.943 353.775 266.311 353.811C266.677 353.835 266.955 354.153 266.931 354.52C266.579 359.819 258.917 428.971 258.427 432.443C258.38 432.775 258.095 433.016 257.768 433.016Z" fill="#788CBD"/>
<path d="M312.664 451.773L312.413 451.725C310.717 451.039 303.225 448.511 293.74 445.313C274.596 438.856 248.376 430.015 243.391 427.424C243.064 427.255 242.937 426.852 243.107 426.525C243.276 426.197 243.676 426.067 244.005 426.241C248.9 428.784 276.141 437.971 294.167 444.048C303.673 447.256 311.181 449.787 312.915 450.489C313.256 450.628 313.42 451.016 313.281 451.357C313.176 451.616 312.927 451.773 312.664 451.773Z" fill="#788CBD"/>
<path d="M303.457 479.275C286.609 479.275 253.945 476.238 229.132 467.462C228.784 467.338 228.603 466.958 228.725 466.61C228.847 466.264 229.232 466.082 229.576 466.204C260.923 477.292 304.773 479.186 312.932 477.354C313.291 477.276 313.647 477.5 313.728 477.859C313.809 478.218 313.583 478.575 313.224 478.656C311.457 479.051 308.043 479.275 303.457 479.275Z" fill="#788CBD"/>
<path d="M110.613 313.652C115.844 318.252 122.468 321.202 127.058 326.522C128.864 328.615 130.486 330.843 132.164 333.038C133.384 334.635 136.641 337.284 137.169 339.292C137.403 340.176 137.353 338.979 137.119 338.092L137.08 337.982C136.621 333.916 136.293 329.835 136.151 325.746C136.008 321.667 136.263 317.572 136.007 313.5C135.647 307.755 133.853 302.192 129.157 298.594C126.862 296.834 123.913 295.763 121.802 293.811C119.8 291.958 120.603 289.835 121.781 287.768C122.882 285.834 124.218 283.934 124.647 281.707C125.136 279.176 124.184 276.566 122.901 274.411C120.169 269.824 114.11 264.711 108.374 265.396C103.588 265.968 103.046 271.488 103.114 275.334C103.181 279.072 103.551 282.799 103.586 286.54C103.624 290.383 102.97 294.154 102.915 297.979C102.822 304.487 105.829 309.446 110.613 313.652Z" fill="#60A6DF"/>
<path d="M159.212 373.362C160.668 369.888 162.339 366.642 164.393 363.483C167.212 359.15 170.339 354.927 172.231 350.074C174.164 345.119 173.88 339.82 174.071 334.602C174.209 330.768 175.349 326.944 175.041 323.1C174.895 321.256 173.832 318.274 171.447 318.579C169.591 318.816 168.488 321.118 167.775 322.586C166.529 325.148 165.667 327.882 164.741 330.57C164.381 331.622 164.036 332.692 163.58 333.707C163.315 334.298 162.471 335.738 161.675 335.542C160.319 335.207 161.549 329.672 161.751 328.692C162.763 323.77 164.287 319.195 164.499 314.13C164.805 306.786 164.235 298.043 157.052 294.027C155.173 292.978 152.795 292.352 151.011 293.923C149.251 295.471 148.753 298.156 148.492 300.366C147.691 307.148 149.287 313.571 151.46 319.952C153.255 325.222 155.393 330.659 155.549 336.294C155.7 341.718 152.877 346.524 151.553 351.648C149.443 359.814 149.879 364.143 149.869 366.787C149.855 370.1 149.976 373.378 150.217 376.68C150.441 379.716 150.704 382.754 151.075 385.775C151.151 386.387 151.22 387.026 151.301 387.664C150.135 384.855 149.727 381.638 148.76 378.815C147.044 373.796 145.049 368.882 143.401 363.839C142.04 359.672 140.755 355.478 138.956 351.472C137.271 347.714 135.235 343.742 132.09 340.984C130.189 339.318 127.884 338.343 125.341 338.363C123.715 338.375 122.254 338.938 120.701 339.348C118.789 339.854 117.285 339.679 115.713 338.471C110.565 334.514 108.999 327.419 105.189 322.408C102.346 318.671 95.6016 312.3 90.6421 316.376C88.0115 318.538 87.286 322.715 87.424 325.918C87.5973 329.935 89.3531 333.61 91.4443 336.97C93.6683 340.542 96.5391 343.74 98.5828 347.414C99.7912 349.583 99.9803 351.662 99.788 354.11C99.6079 356.415 99.4063 358.648 100.192 360.872C102.552 367.551 109.921 366.619 115.653 366.794C119.663 366.915 123.966 367.512 127.773 368.795C132.173 370.276 135.036 373.14 136.609 377.492C137.747 380.643 138.356 384.219 140.5 386.895C141.508 388.154 142.843 389.083 144.311 389.732C146.545 390.719 153.36 391.151 153.411 390.528C153.579 388.444 154.567 386.246 155.185 384.268C156.345 380.56 157.709 376.943 159.212 373.362Z" fill="#60A6DF"/>
<path d="M190.853 372.103C190.26 368.284 190.373 364.076 188.565 360.57C188.436 360.319 188.095 360.255 187.861 360.384C186.565 361.103 186.512 363.196 186.405 364.479C186.231 366.607 186.361 368.74 186.099 370.863C185.64 374.591 184.779 378.434 183.435 381.947C181.916 385.923 179.152 388.176 175.139 389.418C172.56 390.214 170.031 390.908 167.879 392.619C165.951 394.152 164.612 396.266 163.619 398.491C160.94 404.5 159.664 411.218 158.421 417.638C157.585 421.96 156.903 426.303 155.853 430.583C154.804 434.859 153.677 439.114 153.076 443.483C152.975 443.703 152.867 443.922 152.773 444.144C152.499 444.798 153.52 445.151 153.872 444.607C158.016 438.23 163.063 432.506 169.948 428.994C173.057 427.408 177.188 427.079 179.781 424.587C181.755 422.691 182.025 419.798 181.731 417.219C181.343 413.831 179.72 411.043 178.028 408.156C177.1 406.57 176.003 404.871 176.377 402.943C176.731 401.124 178.243 399.788 179.743 398.856C182.605 397.079 185.952 396.279 188.296 393.718C190.473 391.339 191.68 388.379 191.921 385.174C192.243 380.902 191.507 376.322 190.853 372.103Z" fill="#60A6DF"/>
<path d="M134.365 394.12C130.71 389.411 126.297 385.349 121.333 382.052C118.684 380.293 112.434 376.823 111.173 382.012C110.434 385.054 113.41 388.045 115.369 389.952C118.314 392.817 121.719 395.289 124.203 398.592C121.127 399.572 117.914 399.764 115.241 401.89C112.078 404.408 110.658 409.27 113.795 412.354C115.324 413.856 117.351 414.779 119.255 415.702C121.729 416.899 124.249 417.985 126.786 419.045C132.263 421.332 137.809 423.654 142.48 427.402C147.24 431.22 151.716 437.678 152.093 443.908C152.131 444.503 151.904 443.962 152.259 443.69C152.453 443.864 153.107 443.551 153.103 443.204C153.005 433.958 151.344 425.155 147.565 416.686C144.064 408.834 139.645 400.923 134.365 394.12Z" fill="#60A6DF"/>
<path d="M121.739 308.048C123.755 312.235 125.864 316.324 128.103 320.405C130.258 324.335 132.411 328.235 134.023 332.427C136.008 337.588 138.089 342.672 140.188 347.788C142.369 353.105 144.319 358.524 145.883 364.055C148.936 374.853 151.204 385.968 152.325 397.136C152.896 402.816 153.155 408.529 152.999 414.235C152.876 418.695 152.373 423.105 151.955 427.543C151.519 432.157 151.204 436.828 151.591 441.46C151.913 445.332 152.529 449.935 155.535 452.697C156.121 453.239 156.955 452.564 156.613 451.865C153.043 444.543 153.243 436.559 153.925 428.619C154.303 424.235 154.825 419.875 154.973 415.475C155.161 409.876 154.941 404.267 154.415 398.691C153.379 387.729 151.193 376.899 148.359 366.269C146.904 360.82 145.105 355.476 143.033 350.228C140.955 344.971 138.556 339.857 136.543 334.573C132.903 325.017 127.354 316.544 122.44 307.639C122.184 307.176 121.514 307.583 121.739 308.048Z" fill="#3E579E"/>
<path d="M152.489 386.188C153.067 379.229 153.683 372.528 156.029 365.889C157.123 362.793 158.449 359.783 159.505 356.675C160.377 354.105 161.683 350.583 161.011 347.852C160.936 347.547 160.492 347.563 160.408 347.852C159.959 349.412 160.008 351.123 159.685 352.721C159.369 354.277 158.949 355.808 158.465 357.32C157.436 360.536 156.091 363.617 154.925 366.783C152.675 372.897 151.519 379.671 152.011 386.188C152.033 386.496 152.464 386.496 152.489 386.188Z" fill="#3E579E"/>
<path d="M112.164 346.196C114.927 352.87 123.23 353.255 129.278 354.75C133.597 355.816 136.785 358.698 139.075 362.438C141.581 366.53 143.276 371.334 144.669 375.9L144.751 375.879C143.059 367.88 140.635 358.25 132.39 354.528C125.782 351.546 117.076 353.044 112.85 345.907C112.642 345.556 111.997 345.792 112.164 346.196Z" fill="#3E579E"/>
<path d="M148.123 385.132C148.452 385.576 148.753 386.04 149.092 386.475C149.26 386.691 149.431 386.894 149.643 387.067C149.86 387.244 150.113 387.464 150.411 387.459C150.535 387.456 150.621 387.319 150.555 387.208C150.419 386.986 150.172 386.851 149.98 386.682C149.781 386.507 149.58 386.335 149.388 386.155C149.001 385.79 148.648 385.392 148.271 385.019L148.123 385.132Z" fill="#3E579E"/>
<path d="M130.849 406.301C135.615 410.212 140.011 414.84 143.503 419.911C145.172 422.335 146.713 424.9 148.111 427.489C149.637 430.319 150.639 433.308 151.835 436.275C151.925 436.5 152.337 436.505 152.305 436.212C151.644 429.936 147.669 424.556 144.485 419.335C142.832 416.623 140.776 414.436 138.565 412.175C136.283 409.839 133.956 407.629 131.28 405.745C130.954 405.516 130.539 406.045 130.849 406.301Z" fill="#3E579E"/>
<path d="M168.791 398.914C166.496 400.214 166.421 403.839 166.376 406.154C166.289 410.6 167.391 414.776 165.439 419.014C163.676 422.842 160.86 426.038 158.647 429.592C156.573 432.919 154.529 437.172 154.575 441.178C154.577 441.408 154.932 441.54 155.04 441.304C155.875 439.486 156.175 437.42 156.773 435.515C157.445 433.372 158.384 431.427 159.6 429.543C161.731 426.242 164.345 423.236 166.075 419.686C167.896 415.943 167.629 412.236 167.508 408.182C167.432 405.596 167.173 401.442 169.257 399.519C169.585 399.218 169.167 398.702 168.791 398.914Z" fill="#3E579E"/>
<path d="M153.447 441.591C144.203 441.463 126.595 441.362 126.595 441.362L130.952 473.711C131.932 480.988 138.144 486.419 145.487 486.419H153.079H153.813H161.404C168.748 486.419 174.96 480.988 175.94 473.711L180.297 441.362C180.297 441.362 162.689 441.463 153.447 441.591Z" fill="white"/>
<path d="M600.251 382.143L547.513 486.602L393.768 487.707L441.216 380.671L600.251 382.143Z" fill="#F5F6F9"/>
<path d="M291.728 487.055L291.757 478.695H391.285L437.077 378.28H596.249L600.251 382.143H444.756L397.169 486.971C397.169 486.971 291.728 486.78 291.728 487.055Z" fill="#D1D8E8"/>
<path d="M520.413 439.786C518.676 444.996 509.249 449.02 499.357 448.772C489.465 448.526 482.855 444.102 484.591 438.89C486.328 433.68 495.755 429.656 505.647 429.904C515.539 430.152 522.151 434.576 520.413 439.786Z" fill="#D1D8E8"/>
<path d="M397.171 487.638L396.895 487.578C396.56 487.426 396.411 487.031 396.563 486.695L444.327 381.476H600.251C600.62 381.476 600.917 381.774 600.917 382.143C600.917 382.511 600.62 382.81 600.251 382.81H445.185L397.777 487.247C397.667 487.491 397.423 487.638 397.171 487.638Z" fill="white"/>
<path d="M101.905 535.521H284.801V494.971H101.905V535.521Z" fill="#4F68A9"/>
<path d="M283.756 535.521H612.823V494.971H283.756V535.521Z" fill="#6F83B8"/>
<path d="M101.905 502.419H283.756V494.971H101.905V502.419Z" fill="#3D5192"/>
<path d="M612.823 502.419H283.756V494.971H612.823V502.419Z" fill="#5165A1"/>
<path d="M292.801 496.901H93.0776V486.971H292.801V496.901Z" fill="#647AB4"/>
<path d="M620.823 496.901H291.757V486.971H620.823V496.901Z" fill="#8E9EC7"/>
<path d="M238.625 274.209H174.06C170.064 274.209 166.825 270.971 166.825 266.975V234.741C166.825 230.747 170.064 227.507 174.06 227.507H238.625C242.62 227.507 245.86 230.747 245.86 234.741V266.975C245.86 270.971 242.62 274.209 238.625 274.209Z" fill="white"/>
<path d="M264.26 250.859L240.011 240.627V261.091L264.26 250.859Z" fill="white"/>
<path d="M195.492 250.859C195.492 253.326 193.492 255.324 191.025 255.324C188.559 255.324 186.559 253.326 186.559 250.859C186.559 248.391 188.559 246.392 191.025 246.392C193.492 246.392 195.492 248.391 195.492 250.859Z" fill="#293D8A"/>
<path d="M210.809 250.859C210.809 253.326 208.809 255.324 206.343 255.324C203.876 255.324 201.876 253.326 201.876 250.859C201.876 248.391 203.876 246.392 206.343 246.392C208.809 246.392 210.809 248.391 210.809 250.859Z" fill="#293D8A"/>
<path d="M226.127 250.859C226.127 253.326 224.127 255.324 221.66 255.324C219.193 255.324 217.193 253.326 217.193 250.859C217.193 248.391 219.193 246.392 221.66 246.392C224.127 246.392 226.127 248.391 226.127 250.859Z" fill="#293D8A"/>
<path d="M567.331 128.349H418.273C408.7 128.349 400.94 136.109 400.94 145.683V216.396C400.94 225.968 408.7 233.729 418.273 233.729H431.633C432.009 240.139 431.091 249.675 425.737 261.867C442.959 253.923 452.876 241.995 458.056 233.729H567.331C576.903 233.729 584.664 225.968 584.664 216.396V145.683C584.664 136.109 576.903 128.349 567.331 128.349Z" fill="#599FDC"/>
<path d="M503.744 162.051H429.813C427.783 162.051 426.135 160.404 426.135 158.373C426.135 156.341 427.783 154.695 429.813 154.695H503.744C505.776 154.695 507.423 156.341 507.423 158.373C507.423 160.404 505.776 162.051 503.744 162.051Z" fill="white"/>
<path d="M556.756 183.476H428.388C427.144 183.476 426.135 182.468 426.135 181.224C426.135 179.98 427.144 178.971 428.388 178.971H556.756C558 178.971 559.009 179.98 559.009 181.224C559.009 182.468 558 183.476 556.756 183.476Z" fill="#C3E4F7"/>
<path d="M556.756 195.983H428.388C427.144 195.983 426.135 194.974 426.135 193.73C426.135 192.486 427.144 191.476 428.388 191.476H556.756C558 191.476 559.009 192.486 559.009 193.73C559.009 194.974 558 195.983 556.756 195.983Z" fill="#C3E4F7"/>
<path d="M528.753 209.316H428.388C427.144 209.316 426.135 208.307 426.135 207.063C426.135 205.819 427.144 204.81 428.388 204.81H528.753C529.999 204.81 531.008 205.819 531.008 207.063C531.008 208.307 529.999 209.316 528.753 209.316Z" fill="#C3E4F7"/>
<path d="M555.748 162.051H520.48C518.449 162.051 516.801 160.404 516.801 158.373C516.801 156.341 518.449 154.695 520.48 154.695H555.748C557.78 154.695 559.425 156.341 559.425 158.373C559.425 160.404 557.78 162.051 555.748 162.051Z" fill="white"/>
<path d="M466.859 324.672H426.813C425.34 324.672 424.147 323.478 424.147 322.006V294.648C424.147 293.176 425.34 291.982 426.813 291.982H466.859C468.332 291.982 469.525 293.176 469.525 294.648V322.006C469.525 323.478 468.332 324.672 466.859 324.672Z" fill="white"/>
<path d="M447.113 313.212C446.888 313.212 446.661 313.135 446.476 312.983L424.681 294.981C424.256 294.629 424.196 294 424.548 293.573C424.901 293.148 425.532 293.089 425.955 293.44L447.096 310.9L467.697 292.973C468.113 292.612 468.745 292.656 469.108 293.072C469.471 293.489 469.427 294.12 469.009 294.483L447.769 312.965C447.581 313.129 447.347 313.212 447.113 313.212Z" fill="#647AB4"/>
<path d="M425.319 323.925C425.071 323.925 424.823 323.833 424.629 323.649C424.229 323.268 424.213 322.636 424.595 322.236L439.837 306.212C440.215 305.811 440.851 305.795 441.249 306.176C441.651 306.557 441.667 307.189 441.285 307.591L426.043 323.615C425.847 323.821 425.583 323.925 425.319 323.925Z" fill="#647AB4"/>
<path d="M468.353 323.339C468.097 323.339 467.841 323.242 467.645 323.046L452.464 307.823C452.075 307.432 452.075 306.798 452.467 306.408C452.859 306.018 453.492 306.019 453.881 306.41L469.063 321.632C469.452 322.024 469.452 322.658 469.06 323.047C468.864 323.242 468.609 323.339 468.353 323.339Z" fill="#647AB4"/>
<path d="M484.985 290.97C484.985 298.359 478.996 304.35 471.607 304.35C464.217 304.35 458.228 298.359 458.228 290.97C458.228 283.582 464.217 277.591 471.607 277.591C478.996 277.591 484.985 283.582 484.985 290.97Z" fill="#F1494A"/>
<path d="M468.379 290.936L468.347 290.568C468.752 290.75 469.104 290.984 469.403 291.272C469.701 291.56 469.931 291.875 470.091 292.216C470.251 292.558 470.331 292.91 470.331 293.272C470.331 293.88 470.16 294.44 469.819 294.952C469.488 295.454 469.04 295.859 468.475 296.168C467.909 296.467 467.28 296.616 466.587 296.616C465.893 296.616 465.264 296.467 464.699 296.168C464.133 295.859 463.68 295.454 463.339 294.952C463.008 294.44 462.843 293.88 462.843 293.272C462.843 292.782 462.944 292.36 463.147 292.008C463.36 291.646 463.621 291.342 463.931 291.096C464.251 290.851 464.565 290.648 464.875 290.488L464.747 290.936C464.48 290.83 464.219 290.68 463.963 290.488C463.717 290.286 463.515 290.03 463.355 289.72C463.195 289.411 463.115 289.048 463.115 288.632C463.115 288.035 463.269 287.496 463.579 287.016C463.888 286.526 464.304 286.136 464.827 285.848C465.36 285.56 465.947 285.416 466.587 285.416C467.237 285.416 467.819 285.56 468.331 285.848C468.853 286.136 469.269 286.526 469.579 287.016C469.888 287.496 470.043 288.035 470.043 288.632C470.043 289.091 469.952 289.475 469.771 289.784C469.589 290.094 469.371 290.339 469.115 290.52C468.859 290.702 468.613 290.84 468.379 290.936ZM465.035 288.664C465.035 288.952 465.099 289.208 465.227 289.432C465.365 289.656 465.552 289.838 465.787 289.976C466.021 290.104 466.288 290.168 466.587 290.168C466.885 290.168 467.147 290.104 467.371 289.976C467.605 289.838 467.787 289.656 467.915 289.432C468.053 289.208 468.123 288.952 468.123 288.664C468.123 288.238 467.973 287.886 467.675 287.608C467.387 287.32 467.024 287.176 466.587 287.176C466.139 287.176 465.765 287.32 465.467 287.608C465.179 287.886 465.035 288.238 465.035 288.664ZM466.587 294.856C467.099 294.856 467.531 294.702 467.883 294.392C468.235 294.072 468.411 293.688 468.411 293.24C468.411 292.931 468.331 292.654 468.171 292.408C468.011 292.163 467.792 291.971 467.515 291.832C467.237 291.683 466.928 291.608 466.587 291.608C466.245 291.608 465.936 291.683 465.659 291.832C465.381 291.971 465.163 292.163 465.003 292.408C464.843 292.654 464.763 292.931 464.763 293.24C464.763 293.688 464.939 294.072 465.291 294.392C465.643 294.702 466.075 294.856 466.587 294.856ZM474.824 296.776C474.43 296.776 474.008 296.718 473.56 296.6C473.112 296.472 472.744 296.291 472.456 296.056C472.318 295.939 472.206 295.79 472.12 295.608C472.046 295.416 472.008 295.235 472.008 295.064C472.008 294.883 472.083 294.712 472.232 294.552C472.392 294.392 472.616 294.312 472.904 294.312C473.096 294.312 473.336 294.414 473.624 294.616C473.795 294.723 473.982 294.819 474.184 294.904C474.387 294.99 474.595 295.032 474.808 295.032C475.32 295.032 475.763 294.942 476.136 294.76C476.51 294.568 476.798 294.307 477 293.976C477.203 293.646 477.304 293.256 477.304 292.808C477.304 292.403 477.208 292.056 477.016 291.768C476.835 291.48 476.59 291.256 476.28 291.096C475.982 290.936 475.656 290.856 475.304 290.856C474.974 290.856 474.686 290.91 474.44 291.016C474.195 291.123 473.971 291.235 473.768 291.352C473.566 291.459 473.363 291.512 473.16 291.512C472.808 291.512 472.547 291.438 472.376 291.288C472.206 291.128 472.099 290.942 472.056 290.728C472.014 290.515 472.003 290.323 472.024 290.152L472.52 286.264C472.563 286.04 472.67 285.859 472.84 285.72C473.022 285.571 473.235 285.496 473.48 285.496H478.104C478.36 285.496 478.574 285.582 478.744 285.752C478.915 285.923 479 286.136 479 286.392C479 286.638 478.915 286.846 478.744 287.016C478.574 287.176 478.36 287.256 478.104 287.256H473.976L474.152 287.112L473.72 290.36L473.512 289.752C473.576 289.646 473.715 289.544 473.928 289.448C474.142 289.352 474.387 289.272 474.664 289.208C474.942 289.134 475.214 289.096 475.48 289.096C476.195 289.096 476.835 289.262 477.4 289.592C477.966 289.912 478.408 290.355 478.728 290.92C479.059 291.475 479.224 292.104 479.224 292.808C479.224 293.608 479.043 294.307 478.68 294.904C478.318 295.502 477.806 295.966 477.144 296.296C476.494 296.616 475.72 296.776 474.824 296.776Z" fill="white"/>
</svg>
