<svg width="700" height="500" viewBox="0 0 792 554" fill="none" xmlns="http://www.w3.org/2000/svg">
<path d="M831.498 554H0.500122V0H831.498V554Z" fill="black"/>
<path d="M757.93 378.867C758.714 381.684 759.331 384.565 759.774 387.488L760.872 387.322C760.419 384.355 759.788 381.43 758.994 378.571L757.93 378.867ZM760.573 396.266C760.592 396.967 760.606 397.668 760.606 398.368C760.606 400.595 760.498 402.831 760.288 405.071L761.39 405.177C761.605 402.9 761.712 400.628 761.712 398.368C761.712 397.656 761.703 396.944 761.68 396.232L760.573 396.266ZM758.906 413.772C758.275 416.603 757.458 419.426 756.445 422.232L757.491 422.605C758.513 419.758 759.345 416.891 759.989 414.016L758.906 413.772ZM752.956 430.317C751.653 432.885 750.177 435.425 748.515 437.924L749.435 438.536C751.121 436.004 752.625 433.425 753.946 430.819L752.956 430.317ZM743.224 444.971C741.379 447.165 739.371 449.314 737.199 451.413L737.97 452.211C740.17 450.087 742.201 447.907 744.069 445.685L743.224 444.971ZM730.573 457.233C728.336 459.02 725.959 460.759 723.442 462.441L724.058 463.363C726.599 461.663 729.004 459.906 731.264 458.1L730.573 457.233ZM715.909 467.061C713.41 468.468 710.795 469.826 708.063 471.13L708.54 472.13C711.295 470.817 713.934 469.446 716.455 468.028L715.909 467.061ZM699.965 474.687C697.299 475.762 694.534 476.789 691.667 477.77L692.026 478.817C694.913 477.833 697.696 476.798 700.376 475.712L699.965 474.687ZM683.223 480.421C680.454 481.219 677.601 481.972 674.659 482.678L674.915 483.756C677.872 483.044 680.744 482.288 683.527 481.487L683.223 480.421ZM666 484.576C663.166 485.138 660.261 485.661 657.277 486.141L657.454 487.235C660.448 486.753 663.371 486.226 666.215 485.661L666 484.576ZM648.507 487.407C645.635 487.772 642.692 488.102 639.694 488.396L639.802 489.498C642.814 489.204 645.761 488.875 648.642 488.506L648.507 487.407ZM630.854 489.127C627.959 489.326 625.007 489.493 622 489.622L622.046 490.731C625.068 490.6 628.029 490.431 630.933 490.232L630.854 489.127ZM613.131 489.905C610.493 489.955 607.812 489.983 605.089 489.983C604.814 489.983 604.534 489.983 604.254 489.983V491.091C604.534 491.091 604.814 491.091 605.089 491.091C607.821 491.091 610.507 491.063 613.155 491.01L613.131 489.905ZM595.38 489.872C592.471 489.808 589.51 489.714 586.507 489.589L586.461 490.697C589.473 490.822 592.434 490.916 595.357 490.98L595.38 489.872ZM577.639 489.143C574.73 488.972 571.778 488.773 568.785 488.542L568.701 489.648C571.699 489.877 574.66 490.077 577.574 490.249L577.639 489.143ZM559.935 487.8C557.026 487.534 554.084 487.243 551.099 486.925L550.983 488.027C553.967 488.346 556.923 488.637 559.832 488.905L559.935 487.8ZM542.278 485.922C539.373 485.57 536.436 485.196 533.47 484.797L533.321 485.897C536.296 486.296 539.233 486.67 542.142 487.022L542.278 485.922ZM524.672 483.562C521.776 483.138 518.853 482.689 515.892 482.219L515.719 483.313C518.68 483.784 521.613 484.232 524.513 484.659L524.672 483.562ZM507.131 480.776C504.245 480.282 501.326 479.77 498.384 479.235L498.184 480.324C501.135 480.861 504.054 481.374 506.944 481.866L507.131 480.776ZM489.651 477.601C486.775 477.05 483.87 476.476 480.937 475.881L480.718 476.967C483.65 477.562 486.56 478.136 489.441 478.689L489.651 477.601ZM472.242 474.077C469.374 473.471 466.479 472.842 463.559 472.194L463.318 473.277C466.243 473.925 469.136 474.554 472.008 475.163L472.242 474.077ZM454.895 470.235C452.036 469.576 449.152 468.901 446.246 468.205L445.989 469.283C448.898 469.978 451.784 470.657 454.645 471.316L454.895 470.235ZM437.615 466.103C434.768 465.396 431.895 464.673 429.001 463.934L428.726 465.006C431.624 465.748 434.496 466.471 437.35 467.177L437.615 466.103ZM420.403 461.699C419.572 461.48 418.738 461.261 417.904 461.039C415.857 460.494 413.818 459.973 411.788 459.474L411.522 460.549C413.547 461.048 415.58 461.565 417.619 462.108C418.453 462.33 419.286 462.551 420.12 462.77L420.403 461.699ZM403.115 457.466C400.193 456.831 397.284 456.239 394.39 455.69L394.185 456.779C397.068 457.327 399.966 457.914 402.88 458.549L403.115 457.466ZM385.614 454.148C382.661 453.668 379.723 453.233 376.803 452.84L376.653 453.937C379.565 454.33 382.493 454.765 385.437 455.242L385.614 454.148ZM367.958 451.763C364.986 451.441 362.028 451.159 359.092 450.917L359 452.02C361.928 452.264 364.876 452.543 367.839 452.865L367.958 451.763ZM350.206 450.297C347.22 450.128 344.253 449.995 341.308 449.901L341.272 451.009C344.208 451.103 347.164 451.234 350.142 451.405L350.206 450.297ZM332.403 449.721C331.367 449.713 330.334 449.71 329.303 449.71C327.359 449.71 325.425 449.724 323.503 449.751L323.519 450.859C325.436 450.832 327.364 450.818 329.303 450.818C330.331 450.818 331.361 450.821 332.395 450.829L332.403 449.721ZM314.606 449.987C311.617 450.101 308.653 450.244 305.714 450.416L305.78 451.524C308.711 451.35 311.667 451.206 314.647 451.095L314.606 449.987ZM296.836 451.034C293.853 451.269 290.897 451.535 287.972 451.826L288.081 452.929C291 452.638 293.95 452.374 296.925 452.136L296.836 451.034ZM279.125 452.782C276.15 453.131 273.207 453.502 270.296 453.893L270.443 454.99C273.349 454.599 276.285 454.231 279.252 453.881L279.125 452.782ZM261.486 455.139C258.521 455.582 255.59 456.042 252.696 456.513L252.874 457.607C255.764 457.136 258.689 456.676 261.65 456.236L261.486 455.139ZM243.924 457.995C240.965 458.51 238.046 459.034 235.168 459.563L235.369 460.654C238.244 460.125 241.159 459.601 244.114 459.086L243.924 457.995ZM226.427 461.2C223.469 461.765 220.557 462.327 217.695 462.881L217.906 463.97C220.768 463.413 223.678 462.851 226.634 462.288L226.427 461.2ZM208.968 464.573C206 465.147 203.09 465.707 200.238 466.241L200.443 467.33C203.297 466.795 206.21 466.235 209.178 465.662L208.968 464.573ZM191.499 467.84C188.507 468.368 185.587 468.861 182.742 469.307L182.914 470.402C185.768 469.953 188.695 469.46 191.692 468.931L191.499 467.84ZM173.959 470.562C170.922 470.948 167.983 471.26 165.145 471.49L165.233 472.596C168.092 472.363 171.047 472.05 174.098 471.662L173.959 470.562ZM156.307 471.92C155.905 471.925 155.504 471.925 155.107 471.925C152.457 471.925 149.916 471.82 147.488 471.593L147.385 472.698C149.853 472.928 152.427 473.033 155.107 473.033C155.509 473.033 155.914 473.033 156.32 473.028L156.307 471.92ZM138.823 470.13C135.88 469.371 133.155 468.352 130.653 467.036L130.138 468.019C132.725 469.377 135.531 470.427 138.546 471.205L138.823 470.13ZM123.597 461.959C121.587 460.017 119.791 457.751 118.216 455.112L117.264 455.679C118.887 458.396 120.744 460.745 122.827 462.757L123.597 461.959ZM114.535 447.156C113.521 444.358 112.6 441.555 111.772 438.744L110.709 439.059C111.544 441.89 112.471 444.716 113.494 447.535L114.535 447.156ZM109.533 430.179C108.872 427.287 108.306 424.389 107.832 421.492L106.738 421.67C107.216 424.592 107.787 427.511 108.453 430.425L109.533 430.179ZM106.672 412.714C106.375 409.769 106.171 406.825 106.056 403.883L104.949 403.925C105.065 406.891 105.271 409.858 105.57 412.825L106.672 412.714ZM105.977 395.028C106.039 392.078 106.188 389.133 106.423 386.191L105.319 386.103C105.082 389.064 104.931 392.033 104.869 395.005L105.977 395.028ZM107.378 377.402C107.779 374.486 108.262 371.579 108.823 368.682L107.736 368.472C107.17 371.388 106.684 374.314 106.281 377.25L107.378 377.402ZM110.737 360.059C111.451 357.2 112.241 354.353 113.105 351.525L112.045 351.201C111.176 354.048 110.381 356.912 109.663 359.79L110.737 360.059ZM115.899 343.118C116.896 340.345 117.964 337.592 119.098 334.855L118.075 334.431C116.934 337.182 115.86 339.955 114.857 342.741L115.899 343.118ZM122.68 326.75C123.931 324.083 125.246 321.435 126.622 318.812L125.641 318.296C124.258 320.933 122.935 323.595 121.677 326.279L122.68 326.75ZM130.906 311.05C132.385 308.499 133.921 305.975 135.512 303.474L134.577 302.878C132.978 305.391 131.434 307.931 129.947 310.493L130.906 311.05ZM140.409 296.111C142.087 293.693 143.817 291.305 145.595 288.945L144.71 288.278C142.923 290.649 141.185 293.05 139.499 295.48L140.409 296.111ZM151.055 281.979C152.917 279.694 154.824 277.442 156.776 275.222L155.944 274.49C153.983 276.72 152.067 278.984 150.196 281.278L151.055 281.979ZM162.746 268.678C164.774 266.534 166.844 264.425 168.954 262.352L168.177 261.562C166.058 263.644 163.979 265.762 161.941 267.915L162.746 268.678ZM175.388 256.253C177.57 254.257 179.788 252.302 182.04 250.385L181.323 249.541C179.06 251.466 176.832 253.431 174.64 255.435L175.388 256.253ZM188.902 244.757C191.224 242.921 193.579 241.127 195.963 239.376L195.307 238.484C192.912 240.241 190.547 242.044 188.215 243.888L188.902 244.757ZM203.217 234.252C205.669 232.585 208.149 230.965 210.655 229.392L210.066 228.454C207.549 230.034 205.057 231.661 202.595 233.335L203.217 234.252ZM218.27 224.81C220.841 223.326 223.436 221.894 226.052 220.514L225.535 219.534C222.907 220.92 220.299 222.359 217.716 223.85L218.27 224.81ZM233.996 216.518C236.668 215.239 239.359 214.014 242.068 212.846L241.629 211.829C238.907 213.002 236.203 214.233 233.517 215.519L233.996 216.518ZM250.279 209.502C253.046 208.441 255.827 207.44 258.621 206.501L258.268 205.45C255.459 206.395 252.663 207.401 249.883 208.468L250.279 209.502ZM267.082 203.859C269.928 203.038 272.785 202.282 275.65 201.594L275.391 200.516C272.51 201.209 269.637 201.969 266.775 202.794L267.082 203.859ZM284.31 199.725C287.219 199.169 290.133 198.683 293.05 198.271L292.894 197.174C289.961 197.589 287.028 198.077 284.103 198.637L284.31 199.725ZM301.869 197.249C304.819 196.983 307.769 196.794 310.719 196.684L310.678 195.577C307.709 195.688 304.739 195.878 301.77 196.146L301.869 197.249ZM319.575 196.593C322.531 196.643 325.481 196.775 328.422 196.991L328.503 195.886C325.541 195.668 322.57 195.535 319.594 195.485L319.575 196.593ZM337.231 197.894C340.153 198.28 343.068 198.753 345.968 199.313L346.178 198.225C343.256 197.661 340.32 197.184 337.375 196.796L337.231 197.894ZM354.602 201.255C357.449 201.988 360.283 202.809 363.097 203.722L363.438 202.668C360.602 201.748 357.745 200.92 354.876 200.182L354.602 201.255ZM371.421 206.71C374.152 207.787 376.861 208.954 379.551 210.213L380.022 209.209C377.313 207.941 374.579 206.764 371.828 205.679L371.421 206.71ZM387.445 214.214C390.016 215.616 392.561 217.108 395.082 218.691L395.672 217.752C393.132 216.158 390.567 214.654 387.977 213.241L387.445 214.214ZM402.437 223.619C404.813 225.317 407.165 227.1 409.489 228.971L410.184 228.108C407.844 226.224 405.475 224.428 403.079 222.718L402.437 223.619ZM416.228 234.714C417.636 235.982 419.031 237.283 420.414 238.62C421.173 239.353 421.934 240.077 422.696 240.792L423.453 239.985C422.696 239.273 421.94 238.552 421.184 237.823C419.79 236.478 418.386 235.167 416.971 233.891L416.228 234.714ZM429.297 246.754C431.569 248.722 433.848 250.617 436.139 252.441L436.829 251.574C434.552 249.76 432.283 247.875 430.023 245.916L429.297 246.754ZM443.214 257.835C445.64 259.603 448.075 261.295 450.518 262.917L451.13 261.993C448.701 260.381 446.28 258.698 443.867 256.939L443.214 257.835ZM458.039 267.67C460.609 269.214 463.185 270.684 465.769 272.082L466.296 271.108C463.728 269.717 461.166 268.256 458.609 266.721L458.039 267.67ZM473.689 276.144C476.379 277.447 479.078 278.683 481.778 279.849L482.221 278.829C479.531 277.672 476.851 276.444 474.17 275.146L473.689 276.144ZM490.03 283.195C492.822 284.259 495.615 285.256 498.412 286.189L498.767 285.139C495.984 284.209 493.201 283.217 490.427 282.159L490.03 283.195ZM506.912 288.84C509.775 289.671 512.642 290.441 515.509 291.159L515.775 290.084C512.927 289.369 510.073 288.602 507.225 287.774L506.912 288.84ZM524.181 293.164C527.096 293.784 530.01 294.355 532.919 294.879L533.115 293.787C530.215 293.267 527.315 292.699 524.415 292.081L524.181 293.164ZM541.703 296.324C544.65 296.765 547.588 297.164 550.525 297.527L550.66 296.427C547.732 296.064 544.804 295.668 541.871 295.228L541.703 296.324ZM559.375 298.516C562.335 298.815 565.292 299.081 568.238 299.322L568.327 298.216C565.385 297.975 562.438 297.71 559.482 297.413L559.375 298.516ZM577.111 299.973C580.086 300.169 583.047 300.344 585.994 300.505L586.054 299.396C583.108 299.239 580.152 299.061 577.186 298.867L577.111 299.973ZM594.881 300.948C597.856 301.086 600.821 301.216 603.763 301.341L603.81 300.236C600.868 300.109 597.907 299.978 594.932 299.842L594.881 300.948ZM612.65 301.721C615.63 301.851 618.59 301.984 621.528 302.127L621.584 301.02C618.642 300.875 615.676 300.743 612.697 300.615L612.65 301.721ZM630.401 302.604C633.38 302.779 636.337 302.976 639.265 303.197L639.349 302.092C636.411 301.87 633.45 301.674 630.466 301.496L630.401 302.604ZM648.11 303.956C651.08 304.247 654.017 304.571 656.922 304.942L657.067 303.842C654.143 303.471 651.197 303.144 648.217 302.854L648.11 303.956ZM665.697 306.213C668.634 306.696 671.539 307.233 674.402 307.837L674.631 306.754C671.749 306.147 668.83 305.604 665.874 305.119L665.697 306.213ZM683.009 309.886C685.871 310.651 688.697 311.496 691.466 312.43L691.821 311.379C689.024 310.438 686.18 309.587 683.293 308.814L683.009 309.886ZM699.746 315.543C702.455 316.676 705.112 317.911 707.718 319.258L708.227 318.271C705.593 316.914 702.912 315.665 700.176 314.521L699.746 315.543ZM715.358 323.628C717.824 325.182 720.229 326.853 722.582 328.653L723.255 327.772C720.878 325.952 718.44 324.263 715.951 322.69L715.358 323.628ZM729.316 334.309C731.441 336.26 733.51 338.334 735.528 340.542L736.345 339.794C734.309 337.564 732.217 335.467 730.068 333.492L729.316 334.309ZM741.188 347.281C742.944 349.556 744.648 351.946 746.311 354.461L747.235 353.852C745.559 351.314 743.836 348.899 742.066 346.606L741.188 347.281ZM750.911 362.009C751.018 362.203 751.13 362.394 751.238 362.588C752.662 365.139 753.946 367.79 755.072 370.527L756.09 370.106C754.955 367.331 753.652 364.635 752.204 362.045C752.097 361.851 751.985 361.658 751.877 361.467L750.911 362.009Z" fill="#E4E4E4"/>
<path d="M749.892 498.999H100.585C120.906 348.866 258.497 232.738 425.238 232.738C591.968 232.738 729.571 348.866 749.892 498.999Z" fill="black"/>
<path d="M665.26 497.68H421.033C409.663 497.68 400.444 488.462 400.444 477.091V126.769C400.444 115.396 409.663 106.179 421.033 106.179H665.26C676.625 106.179 685.845 115.396 685.845 126.769V477.091C685.845 488.462 676.625 497.68 665.26 497.68Z" fill="#A9BAE6"/>
<path d="M661.143 121.96V463.188H426.238V121.96H661.143Z" fill="#F6F5F5"/>
<path d="M661.14 121.96C661.213 255.023 665.509 415.501 650.561 451.031C584.729 457.447 507.645 459.505 426.233 459.887L457.178 122.992L661.14 121.96Z" fill="#E4E4E4"/>
<path d="M640.045 440.278C537.432 456.701 468.852 457.568 413.229 453.438C420.437 376.707 423.33 249.24 426.234 121.977L549.884 122.249L661.789 129.637C663.42 261.724 663.599 383.734 640.045 440.278Z" fill="black"/>
<path d="M603.344 175.157L479.77 172.252L480.214 153.428L603.788 156.337L603.344 175.157Z" fill="#708CD5"/>
<path d="M627.61 202.398L516.146 199.775L515.942 208.39L627.406 211.013L627.61 202.398Z" fill="#708CD5"/>
<path d="M591.466 220.343L515.703 218.56L515.5 227.176L591.263 228.959L591.466 220.343Z" fill="#D3DFFF"/>
<path d="M480.401 225.844L454.013 225.222L454.632 198.835L481.023 199.457L480.401 225.844Z" fill="black"/>
<path d="M480.403 225.84L480.426 225.01L454.866 224.408L455.448 199.684L480.175 200.265L479.576 225.823L480.403 225.84L481.232 225.861L481.876 198.644L453.826 197.982L453.165 226.032L481.215 226.691L481.232 225.861L480.403 225.84Z" fill="#708CD5"/>
<path d="M458.939 205.777C459.751 208.894 461.256 221.961 467.798 218.307C469.309 217.465 470.585 215.238 471.716 213.956C473.744 211.651 475.773 209.349 477.801 207.047C481.861 202.439 485.917 197.832 489.974 193.225C491.015 192.045 486.423 189.084 485.117 190.565C481.511 194.66 477.903 198.756 474.298 202.852C472.496 204.898 470.69 206.944 468.884 208.994C467.636 210.414 464.741 214.997 462.884 215.403C463.895 215.728 464.906 216.056 465.914 216.381C466.627 216.968 465.3 212.815 465.273 212.704C464.768 210.778 464.265 208.849 463.76 206.923C463.344 205.331 458.322 203.417 458.939 205.777Z" fill="#EE6F57"/>
<path d="M606.804 249.909L515.018 247.748L514.817 256.364L606.603 258.524L606.804 249.909Z" fill="#708CD5"/>
<path d="M626.038 269.157L514.574 266.534L514.37 275.15L625.835 277.774L626.038 269.157Z" fill="#D3DFFF"/>
<path d="M479.274 273.816L452.886 273.196L453.507 246.808L479.894 247.429L479.274 273.816Z" fill="black"/>
<path d="M479.273 273.817L479.29 272.986L453.734 272.385L454.318 247.658L479.043 248.241L478.442 273.798L479.273 273.817L480.104 273.837L480.743 246.618L452.694 245.958L452.034 274.008L480.083 274.667L480.104 273.837L479.273 273.817Z" fill="#708CD5"/>
<path d="M457.792 254.494C458.605 257.613 460.11 270.678 466.652 267.025C468.162 266.182 469.441 263.955 470.569 262.674C472.596 260.371 474.629 258.067 476.655 255.764C480.714 251.156 484.77 246.551 488.829 241.942C489.868 240.763 485.274 237.802 483.972 239.282C480.363 243.378 476.757 247.473 473.151 251.568C471.347 253.615 469.546 255.663 467.741 257.711C466.489 259.132 463.595 263.715 461.74 264.121C462.746 264.447 463.757 264.774 464.766 265.1C465.481 265.685 464.154 261.535 464.127 261.422C463.622 259.495 463.118 257.568 462.616 255.641C462.199 254.049 457.176 252.135 457.792 254.494Z" fill="#EE6F57"/>
<path d="M625.352 298.347L513.887 295.723L513.684 304.338L625.149 306.961L625.352 298.347Z" fill="#708CD5"/>
<path d="M563.292 315.681L513.442 314.507L513.242 323.124L563.089 324.296L563.292 315.681Z" fill="#D3DFFF"/>
<path d="M478.146 321.788L451.757 321.168L452.379 294.781L478.765 295.401L478.146 321.788Z" fill="black"/>
<path d="M478.144 321.789L478.162 320.961L452.607 320.357L453.189 295.632L477.912 296.214L477.313 321.77L478.144 321.789L478.973 321.808L479.614 294.591L451.564 293.931L450.905 321.98L478.956 322.639L478.973 321.808L478.144 321.789Z" fill="#708CD5"/>
<path d="M457.018 302.81C457.833 305.929 459.335 318.995 465.879 315.341C467.389 314.499 468.666 312.272 469.793 310.99C471.823 308.688 473.852 306.383 475.881 304.081C479.937 299.475 483.996 294.866 488.051 290.259C489.091 289.079 484.502 286.118 483.198 287.6C479.589 291.694 475.98 295.791 472.374 299.885C470.57 301.932 468.768 303.979 466.964 306.029C465.714 307.45 462.821 312.031 460.963 312.438C461.973 312.765 462.98 313.089 463.993 313.416C464.704 314.001 463.382 309.851 463.349 309.738C462.848 307.812 462.345 305.885 461.841 303.957C461.425 302.367 456.401 300.453 457.018 302.81Z" fill="#EE6F57"/>
<path d="M624.223 346.319L512.761 343.696L512.558 352.311L624.021 354.934L624.223 346.319Z" fill="#708CD5"/>
<path d="M600.37 364.554L512.318 362.48L512.116 371.097L600.168 373.169L600.37 364.554Z" fill="#D3DFFF"/>
<path d="M477.016 369.765L450.627 369.142L451.251 342.755L477.637 343.375L477.016 369.765Z" fill="black"/>
<path d="M477.013 369.766L477.034 368.935L451.475 368.331L452.058 343.606L476.785 344.188L476.183 369.746L477.013 369.766L477.846 369.785L478.485 342.565L450.437 341.905L449.774 369.954L477.826 370.616L477.846 369.785L477.013 369.766Z" fill="#708CD5"/>
<path d="M455.898 350.469C456.715 353.588 458.219 366.651 464.76 362.997C466.27 362.155 467.547 359.928 468.674 358.648C470.705 356.344 472.733 354.042 474.763 351.737C478.822 347.131 482.877 342.524 486.935 337.918C487.976 336.738 483.382 333.774 482.079 335.258C478.472 339.353 474.862 343.447 471.255 347.543C469.452 349.591 467.649 351.638 465.845 353.684C464.595 355.106 461.703 359.69 459.843 360.094C460.854 360.421 461.862 360.748 462.876 361.072C463.587 361.659 462.263 357.51 462.233 357.396C461.73 355.468 461.225 353.543 460.722 351.615C460.307 350.023 455.282 348.108 455.898 350.469Z" fill="#EE6F57"/>
<path d="M555.824 392.345L511.64 391.307L511.439 399.921L555.623 400.963L555.824 392.345Z" fill="#708CD5"/>
<path d="M622.659 412.717L511.194 410.094L510.992 418.708C554.117 419.719 609.025 421.741 620.227 420.021C621.93 418.088 622.846 415.714 622.659 412.717Z" fill="#D3DFFF"/>
<path d="M476.265 417.384L449.876 416.763L450.499 390.373L476.887 390.997L476.265 417.384Z" fill="black"/>
<path d="M476.263 417.384L476.281 416.553L450.727 415.952L451.306 391.224L476.035 391.806L475.432 417.365L476.263 417.384L477.095 417.403L477.736 390.186L449.687 389.523L449.026 417.573L477.074 418.235L477.095 417.403L476.263 417.384Z" fill="#708CD5"/>
<path d="M454.788 397.711C455.602 400.83 457.106 413.894 463.647 410.24C465.157 409.398 466.434 407.171 467.562 405.891C469.591 403.586 471.62 401.282 473.649 398.98C477.707 394.374 481.765 389.767 485.822 385.161C486.861 383.978 482.272 381.017 480.965 382.499C477.357 386.595 473.75 390.69 470.143 394.784C468.34 396.833 466.538 398.88 464.733 400.927C463.483 402.349 460.588 406.93 458.732 407.337C459.744 407.664 460.75 407.991 461.761 408.315C462.474 408.902 461.149 404.75 461.12 404.639C460.615 402.711 460.111 400.783 459.61 398.858C459.195 397.266 454.17 395.351 454.788 397.711Z" fill="#EE6F57"/>
<path d="M596.049 108.551V134.887H490.235V108.551C490.235 104.353 491.941 100.553 494.689 97.7911C495.032 97.4476 495.387 97.1261 495.763 96.8302C498.39 94.6453 501.77 93.3372 505.449 93.3372C508.208 93.3372 510.857 92.7088 513.228 91.5652C514.258 91.0683 515.234 90.48 516.151 89.8041C519.176 87.5644 521.492 84.3857 522.643 80.5969C523.82 76.7313 526.224 73.4941 529.337 71.2434C532.329 69.0951 535.972 67.8528 539.841 67.8528H546.443C550.313 67.8528 553.955 69.0951 556.948 71.2434C560.061 73.4941 562.465 76.7313 563.641 80.5969C564.792 84.3857 567.108 87.5644 570.134 89.8041C571.054 90.48 572.026 91.0683 573.057 91.5652C575.428 92.7088 578.077 93.3372 580.835 93.3372C584.515 93.3372 587.894 94.6453 590.521 96.8302C593.901 99.6106 596.049 103.831 596.049 108.551Z" fill="#EE6F57"/>
<path d="M604.637 121.957V141.538H481.649V121.957H490.236V134.888H596.049V121.957H604.637Z" fill="#E4E4E4"/>
<path d="M552.528 83.6448C552.528 88.5691 548.325 92.562 543.144 92.562C537.959 92.562 533.756 88.5691 533.756 83.6448C533.756 78.7172 537.959 74.7243 543.144 74.7243C548.325 74.7243 552.528 78.7172 552.528 83.6448Z" fill="black"/>
<path d="M340.356 206.945C336.603 206.233 333.096 199.964 331.877 197.56C331.578 196.97 331.484 196.303 331.606 195.652L333.101 187.735C333.101 187.735 336.547 188.319 336.281 192.909C336.254 193.386 336.351 193.862 336.52 194.308L337.841 197.76L341.741 194.74L339.603 188.699C339.603 188.699 336.738 189.486 335.259 189.015C332.226 188.045 336.204 185.68 337.461 185.427C338.722 185.175 341.489 184.17 342.747 186.308C344.007 188.447 344.76 189.707 344.76 189.707C344.76 189.707 346.145 184.923 345.201 174.228C345.159 173.746 346.364 173.758 346.702 174.104C347.716 175.134 349.331 178.273 349.417 187.818C349.417 187.818 349.586 176.694 351.491 175.55C353.065 174.605 353.86 180.051 352.752 189.283C352.752 189.283 354.804 181.289 356.275 181.275C358.754 181.25 356.306 202.626 350.073 208.997L340.356 206.945Z" fill="#F9B384"/>
<path d="M352.123 203.673C352.012 204.737 351.89 205.768 351.757 206.765V206.776C351.314 210.321 350.76 213.49 350.118 216.205C350.084 216.338 350.062 216.46 350.029 216.582C348.134 224.349 347.791 228.149 341.32 227.13L334.661 219.551L334.594 219.473L334.107 218.919L335.459 214.931L335.636 214.41L336.633 211.507L336.755 211.13L338.461 206.133L339.148 204.106L352.123 203.673Z" fill="#F9B384"/>
<path d="M228.412 479.637L226.717 484.936C215.095 488.753 208.316 493.127 207.881 498.232H241.49L244.184 480.493C237.377 482.155 231.923 481 228.412 479.637Z" fill="#1F3C88"/>
<path d="M232.626 466.468L228.412 479.637C231.923 481 237.377 482.155 244.184 480.493L245.922 469.053L232.626 466.468Z" fill="#F9B384"/>
<path d="M290.086 479.05L291.072 465.637L275.284 466.468L274.422 478.833C281.106 480.964 286.632 480.13 290.086 479.05Z" fill="#F9B384"/>
<path d="M309.077 498.232C308.642 493.127 302.706 486.135 289.687 484.473L290.086 479.05C286.632 480.13 281.106 480.964 274.422 478.833L273.068 498.232H309.077Z" fill="#1F3C88"/>
<path d="M277.289 210.388L258.243 210.521V181.713H276.714L276.725 183.475L276.813 192.605L276.946 207.263L277.289 210.388Z" fill="#F9B384"/>
<path d="M276.813 193.99C273.39 197.591 264.459 193.524 260.692 189.558L276.725 184.86L276.813 193.99Z" fill="#E28B6D"/>
<path d="M281.233 175.065C281.222 177.192 281.089 179.419 280.735 181.547C279.804 187.353 277.345 192.372 271.672 192.527C258.265 192.915 254.443 185.247 251.917 178.976C249.39 172.694 253.49 157.592 253.49 157.592L270.841 155.874L280.369 163.686C280.369 163.686 281.289 168.993 281.233 175.065Z" fill="#F9B384"/>
<path d="M252.457 175.384C252.457 175.384 256.282 175.209 256.936 165.337C263.775 167.625 268.773 165.539 272.733 160.982C276.112 165.445 285.571 166.844 288.765 157.705C291.072 151.105 284.701 141.271 275.423 147.227C266.329 142.631 252.535 142.947 248.565 154.218C248.565 154.218 234.766 160.581 249.377 174.589C249.67 174.868 252.457 175.384 252.457 175.384Z" fill="#102048"/>
<path d="M305.202 313.925L294.673 473.116H269.929L276.115 318.642L279.901 316.889L305.202 313.925Z" fill="#102048"/>
<path d="M240.752 292.144L223.393 473.116H250.354L276.023 322.797L305.199 313.933L306.493 281.801L241.49 280.325L240.752 292.144Z" fill="#1F3C88"/>
<path d="M299.687 281.646H299.673L299.659 281.592L299.687 281.646Z" fill="#6C758D"/>
<path d="M261.541 294.518C261.892 292.898 262.219 291.28 262.522 289.673C262.835 289.676 263.147 289.679 263.459 289.679C264.796 289.679 266.127 289.643 267.451 289.576C271.683 289.377 275.838 288.845 279.826 288.058C286.507 286.762 292.779 284.801 298.285 282.563C298.784 282.374 299.272 282.164 299.748 281.965L299.673 281.646H299.687L301.072 284.422C296.006 289.621 277.29 294.161 261.541 294.518Z" fill="#162B62"/>
<path d="M299.748 281.965C299.272 282.164 298.784 282.374 298.285 282.563C292.779 284.801 286.507 286.762 279.826 288.059C275.838 288.845 271.683 289.377 267.451 289.576C261.068 289.898 254.509 289.477 248.016 288.003L256.271 211.042L257.279 201.657C257.279 201.657 268.082 214.953 279.992 200.272L299.748 281.965Z" fill="black"/>
<path d="M263.459 289.679C263.147 289.679 262.835 289.676 262.522 289.673C267.668 262.328 265.931 236.728 261.097 211.82C267.68 231.152 273.394 265.926 267.451 289.576C266.127 289.643 264.796 289.679 263.459 289.679Z" fill="#BBC4DB"/>
<path d="M258.249 198.61C266.456 233.456 269.833 269.314 257.741 309.133C248.774 312.542 239.011 312.504 228.564 309.501L231.149 237.113L170.302 278.94L166.608 256.134C189.998 233.767 230.44 199.981 258.249 198.61Z" fill="#708CD5"/>
<path d="M279.826 288.059C276.16 267.029 275.351 232.481 278.33 216.892L298.285 282.563C292.779 284.801 286.507 286.762 279.826 288.059Z" fill="#BBC4DB"/>
<path d="M343.192 227.293C342.633 227.293 342.012 227.238 341.32 227.13L334.661 219.551L334.594 219.473L335.459 214.931L335.636 214.41L336.633 211.507L336.755 211.13L350.117 216.205C350.084 216.338 350.062 216.46 350.029 216.582C348.336 223.518 347.882 227.293 343.192 227.293Z" fill="#EB9B76"/>
<path d="M348.965 223.263C348.965 223.263 332.622 257.888 322.927 258.719C313.529 259.525 309.077 250.409 309.077 250.409L315.725 301.011C307.914 304.667 299.393 306.451 289.499 304.701C280.713 276.17 277.392 239.279 276.738 198.194C283.851 198.638 297.939 199.244 302.983 202.488C312.033 208.305 323.204 229.08 323.204 229.08L336.223 211.352L348.965 223.263Z" fill="#708CD5"/>
<path d="M149.732 174.475C149.732 174.475 150.721 157.913 152.407 158.694C154.093 159.475 157.473 173.877 157.473 173.877L153.858 179.713L149.732 174.475Z" fill="#6F3428"/>
<path d="M199.469 473.579L199.958 479.03C200.823 488.653 193.722 497.157 184.099 498.021L182.697 498.146C173.075 499.01 164.571 491.911 163.707 482.288L163.217 476.836L199.469 473.579Z" fill="#EE6F57"/>
<path d="M175.753 209.61L199.469 473.579L163.217 476.836L139.501 212.864L175.753 209.61Z" fill="#FBC343"/>
<path d="M150.083 211.914L149.508 205.518L164.59 204.164L165.165 210.56L162.957 210.759L162.581 206.568L151.913 207.527L152.29 211.718L150.083 211.914Z" fill="#D4C2BE"/>
<path d="M170.494 439.103L150.083 211.914L152.29 211.717L172.503 436.696L183.171 435.738L162.957 210.759L165.165 210.56L185.477 436.644L185.576 437.749L170.494 439.103Z" fill="#D1983B"/>
<path d="M199.464 473.582L163.221 476.839L162.269 466.202L161.604 458.812L159.554 436.098L195.808 432.841L197.846 455.554L198.511 462.945L199.464 473.582Z" fill="#102048"/>
<path d="M198.511 462.945L162.269 466.202L161.604 458.812L197.846 455.554L198.511 462.945Z" fill="#FBC343"/>
<path d="M139.496 212.867L149.566 172.508C149.566 172.508 153.042 174.051 157.258 171.447L175.751 209.61L139.496 212.867Z" fill="#EE6F57"/>
<path d="M254.463 173.713C254.3 173.118 251.595 172.3 250.999 172.137C250.078 171.882 249.072 171.758 248.173 172.162C244.902 173.641 245.339 178.325 247.034 180.788C247.994 182.181 249.4 183.256 251.035 183.724C251.629 183.893 257.257 183.962 257.011 183.056L254.463 173.713Z" fill="#F9B384"/>
<path d="M151.466 267.86C150.615 265.189 147.818 263.694 145.17 264.608C141.046 266.032 137.454 268.447 136.898 272.558C136.391 276.3 138.263 288.252 146.623 289.79L145.941 283.646C145.941 283.646 151.059 282.452 152.083 280.233C152.799 278.682 152.847 272.198 151.466 267.86Z" fill="#F9B384"/>
<path d="M306.523 226.748C306.964 229.362 307.338 231.986 307.695 234.612C308.069 237.235 308.363 239.869 308.701 242.498L309.559 250.398C309.809 253.037 310.055 255.675 310.216 258.325L309.786 258.375C309.332 255.76 308.964 253.134 308.598 250.511L307.609 242.625C307.332 239.988 307.011 237.359 306.767 234.72C306.51 232.083 306.269 229.443 306.094 226.797L306.523 226.748Z" fill="#1F3C88"/>
<path d="M232.012 226.321C232.006 229.257 231.934 232.193 231.847 235.127C231.773 238.06 231.621 240.994 231.513 243.924L231.032 252.716C230.836 255.647 230.634 258.575 230.35 261.5L229.917 261.478C229.909 258.541 229.985 255.605 230.065 252.672L230.416 243.874C230.584 240.944 230.71 238.01 230.913 235.082C231.103 232.155 231.308 229.224 231.579 226.299L232.012 226.321Z" fill="#1F3C88"/>
<path d="M267.909 173.439C268.143 174.483 267.713 175.469 266.948 175.641C266.183 175.813 265.373 175.104 265.139 174.059C264.905 173.015 265.335 172.029 266.1 171.857C266.865 171.686 267.675 172.395 267.909 173.439Z" fill="#102048"/>
<path d="M278.954 172.148C278.907 173.217 278.236 174.057 277.453 174.023C276.669 173.99 276.071 173.098 276.116 172.026C276.162 170.957 276.833 170.118 277.616 170.151C278.4 170.184 278.998 171.076 278.954 172.148Z" fill="#102048"/>
<path d="M272.795 173.023C273.175 173.94 273.115 174.926 273.36 175.677C273.485 176.057 273.658 176.392 273.897 176.6C274.119 176.802 274.479 176.932 274.936 177.109C275.407 177.292 275.907 177.616 276.249 178.101C276.612 178.569 276.711 179.381 276.383 179.912C276.089 180.444 275.665 180.738 275.301 181.007C274.92 181.264 274.555 181.536 274.16 181.777L273.875 181.45C274.166 181.092 274.486 180.766 274.791 180.425C275.106 180.098 275.395 179.782 275.507 179.491C275.741 178.979 275.239 178.417 274.512 178.129C274.137 177.957 273.597 177.807 273.161 177.361C272.741 176.932 272.533 176.397 272.45 175.896C272.267 174.868 272.477 173.99 272.377 173.137L272.795 173.023Z" fill="#E28B6D"/>
<path d="M262.623 170.633C262.786 169.976 263.187 169.353 263.754 168.907C264.312 168.442 265.04 168.193 265.762 168.154C267.217 168.065 268.658 168.893 269.256 170.118L268.917 170.386C267.955 169.63 266.895 169.217 265.816 169.256C264.733 169.284 263.75 169.841 263.015 170.816L262.623 170.633Z" fill="#102048"/>
<path d="M274.059 169.276C274.222 168.763 274.511 168.276 274.929 167.877C275.337 167.467 275.908 167.195 276.501 167.098C277.69 166.902 278.97 167.506 279.438 168.564L279.092 168.824C278.314 168.301 277.465 168.079 276.664 168.19C276.263 168.242 275.882 168.392 275.507 168.614C275.137 168.844 274.8 169.157 274.432 169.497L274.059 169.276Z" fill="#102048"/>
<path d="M267.93 183.754C269.864 186.782 272.442 187.112 274.433 183.926L267.93 183.754Z" fill="black"/>
<path d="M281.134 178.023C281.197 177.029 281.228 176.037 281.233 175.065C281.236 174.821 281.236 174.577 281.236 174.334C281.253 174.331 281.269 174.328 281.286 174.325C281.28 175.414 281.228 176.721 281.134 178.023Z" fill="#FECFC9"/>
<path d="M280.735 181.547C279.394 181.115 278.419 179.863 278.419 178.367C278.419 176.71 279.674 174.625 281.236 174.334C281.236 174.577 281.236 174.821 281.233 175.065C281.228 176.037 281.197 177.029 281.134 178.023C281.042 179.256 280.912 180.48 280.74 181.514C280.74 181.525 280.738 181.536 280.735 181.547Z" fill="#FAA280"/>
<path d="M263.207 183.918C261.233 183.918 259.634 182.32 259.634 180.347C259.634 178.372 261.233 176.774 263.207 176.774C265.18 176.774 266.78 178.372 266.78 180.347C266.78 182.32 265.18 183.918 263.207 183.918Z" fill="#FAA280"/>
<path d="M252.121 177.273C251.415 176.793 250.767 176.27 250.123 175.957C249.804 175.802 249.507 175.708 249.242 175.73C248.974 175.749 248.666 175.904 248.32 176.151L247.956 175.915C248.107 175.475 248.425 174.979 249.009 174.785C249.589 174.583 250.177 174.746 250.612 174.971C251.494 175.453 252.098 176.162 252.466 177.012L252.121 177.273Z" fill="#E28B6D"/>
<path d="M146.94 295.859L146.426 289.945L146.954 295.82L146.94 295.859Z" fill="#A9857E"/>
<path d="M146.954 295.82L146.426 289.945L146.409 289.748C146.48 289.762 146.551 289.776 146.623 289.79L145.941 283.646C145.941 283.646 146.12 283.604 146.419 283.521C147.27 283.308 148.011 283.05 148.664 282.757C150.062 282.181 151.576 281.333 152.083 280.233L146.954 295.82Z" fill="#A76D33"/>
<path d="M146.623 289.79C146.551 289.776 146.48 289.762 146.409 289.748L145.879 283.649C146.064 283.607 146.244 283.566 146.419 283.521C146.12 283.604 145.941 283.646 145.941 283.646L146.623 289.79ZM148.664 282.757C150.201 282.067 151.247 281.186 152.083 280.233C151.576 281.333 150.062 282.181 148.664 282.757Z" fill="#A6674D"/>
<path d="M67.0977 499.439H783.385V497.224H67.0977" fill="#102048"/>
</svg>
