<svg width="400" height="550" viewBox="0 0 400 550" fill="none" xmlns="http://www.w3.org/2000/svg">
<path d="M213.324 0.426819H154.998C145.078 0.426819 137.038 8.46877 137.038 18.3867V69.1499C137.038 79.0679 145.078 87.1078 154.996 87.1078H172.026L157.751 115.325L184.106 87.1078H213.324C223.242 87.1078 231.284 79.0679 231.284 69.1499V18.3867C231.284 8.46877 223.242 0.426819 213.324 0.426819Z" fill="#4870C0"/>
<path d="M157.751 115.325L172.026 87.1078H154.996C153.946 87.1078 152.917 87.0185 151.916 86.8459C151.208 86.722 150.515 86.5596 149.837 86.3566C148.599 85.9851 147.417 85.4856 146.306 84.8704C140.78 81.8088 137.038 75.9149 137.038 69.1499V18.3867C137.038 8.46877 145.078 0.426819 154.998 0.426819H213.324C223.242 0.426819 231.284 8.46877 231.284 18.3867V68.5754V69.1499C231.284 70.157 231.201 71.1437 231.04 72.106C230.906 72.9222 230.716 73.7201 230.474 74.4957C230.285 75.1007 230.066 75.6936 229.816 76.2702C228.724 78.7958 227.071 81.019 225.012 82.7853C221.87 85.4795 217.787 87.1078 213.324 87.1078H198.838H184.106L181.53 89.867L179.96 91.5481L175.999 95.7873L174.351 97.5536L170.471 101.708L168.741 103.559L157.751 115.325Z" fill="#C7D9F2"/>
<path d="M213.109 43.5502C213.109 59.5367 200.148 72.498 184.161 72.498C168.173 72.498 155.211 59.5367 155.211 43.5502C155.211 27.5617 168.173 14.6024 184.161 14.6024C200.148 14.6024 213.109 27.5617 213.109 43.5502Z" fill="#4870C0"/>
<path d="M181.122 56.4814C180.34 56.4814 179.599 56.1383 179.094 55.5414L167.736 42.1598C166.786 41.0391 166.922 39.36 168.043 38.4099C169.161 37.4617 170.84 37.5957 171.793 38.7164L181.122 49.7104L196.528 31.5577C197.48 30.4349 199.161 30.3009 200.278 31.2511C201.398 32.2013 201.536 33.8803 200.584 34.999L183.15 55.5414C182.644 56.1383 181.903 56.4814 181.122 56.4814Z" fill="white"/>
<path d="M261.481 546.283H379.637C380.92 546.283 381.96 545.243 381.96 543.959V536.425C381.96 535.141 380.92 534.101 379.637 534.101H267.571V292.869H377.727C380.065 292.869 381.96 290.975 381.96 288.636V280.687H261.481C258.114 280.687 255.39 283.414 255.39 286.778V540.192C255.39 543.557 258.114 546.283 261.481 546.283Z" fill="#1D2A30"/>
<path d="M255.388 522.216V507.042L255.39 507.048V522.216H255.388Z" fill="white"/>
<path d="M256.447 543.626C255.777 542.647 255.388 541.462 255.388 540.185V522.217H255.39V540.193C255.39 541.466 255.779 542.647 256.447 543.626ZM381.141 534.654C380.735 534.309 380.212 534.102 379.637 534.102H363.433L363.439 534.094H379.639C380.214 534.094 380.737 534.305 381.141 534.654ZM356.536 534.102H282.171L282.187 534.094H356.532L356.536 534.102ZM275.536 534.102H267.571V534.094H275.534L275.536 534.102Z" fill="#FAFBFB"/>
<path d="M255.39 501.6H255.388V495.098C255.388 495.099 255.388 495.103 255.39 495.106V501.6Z" fill="white"/>
<path d="M255.388 501.905V501.601H255.39V501.904L255.388 501.905Z" fill="#F5F5F5"/>
<path d="M255.39 363.003L255.388 363.001V293.454V351.406C255.388 351.406 255.388 351.406 255.39 351.406V363.003Z" fill="white"/>
<path d="M379.639 546.276H261.478C259.385 546.276 257.544 545.226 256.447 543.626C255.779 542.648 255.39 541.466 255.39 540.193V522.217V507.049L258.711 516.243L267.569 513.986V534.094L267.571 534.102H275.536L276.249 536.969L282.171 534.102H356.536L359.253 538.305L363.433 534.102H379.637C380.212 534.102 380.735 534.309 381.141 534.654C381.639 535.082 381.954 535.722 381.954 536.429V543.961C381.954 545.24 380.92 546.276 379.639 546.276ZM255.39 501.904V501.601V495.106C256.096 497.632 256.689 499.77 257.144 501.421L255.39 501.904ZM267.569 369.478C266.696 368.979 265.783 368.465 264.833 367.943C261.994 366.382 258.821 364.726 255.39 363.004V351.407C259.448 352.444 263.509 353.437 267.569 354.393V369.478Z" fill="#5D6C72"/>
<path d="M255.388 351.406H255.39V293.454H255.388V351.406Z" fill="#CFCDCC"/>
<path d="M255.39 293.454H255.388V286.783C255.388 286.73 255.388 286.675 255.39 286.622H255.392C255.39 286.675 255.39 286.726 255.39 286.779V293.454Z" fill="#C2C1BF"/>
<path d="M255.392 286.622H255.39C255.428 285.111 256.013 283.741 256.955 282.697H256.957C256.015 283.741 255.428 285.113 255.392 286.622Z" fill="#C5C4C2"/>
<path d="M377.731 292.873H362.508V292.869H377.727C378.606 292.869 379.422 292.601 380.098 292.144C379.424 292.603 378.61 292.873 377.731 292.873ZM362 292.873H350.531V292.869H362V292.873Z" fill="#CFCDCC"/>
<path d="M362 292.873H362.507V292.869H362V292.873Z" fill="#C2C1BF"/>
<path d="M343.52 292.873H267.569L267.571 292.869H343.52V292.873Z" fill="#C2C1BF"/>
<path d="M343.52 292.873H350.53V292.869H343.52V292.873Z" fill="#C2C1BF"/>
<path d="M267.569 354.393C263.509 353.437 259.448 352.444 255.39 351.406V293.454V286.778C255.39 286.726 255.39 286.675 255.392 286.622C255.428 285.114 256.015 283.741 256.957 282.698H381.954V288.63C381.954 290.088 381.219 291.379 380.098 292.145C379.422 292.601 378.606 292.869 377.727 292.869H362.508H362H350.531H343.52H267.571L267.569 292.873V354.393Z" fill="#475459"/>
<path d="M41.7018 512.283L90.1568 508.059V444.426H107.191V508.043L155.818 512.283C160.102 512.707 163.369 516.308 163.369 520.612V527.066H100.341H97.1816H34.1534V520.612C34.1534 516.308 37.4185 512.707 41.7018 512.283Z" fill="#1D2A30"/>
<path d="M151.078 527.066H94.8874V457.408H102.584C104.318 457.408 105.916 456.823 107.191 455.838V475.792V476.3V508.043L155.818 512.283C160.102 512.707 163.369 516.308 163.369 520.612V524.905C161.98 524.281 160.441 523.936 158.821 523.936C155.812 523.936 153.081 525.128 151.078 527.066ZM82.7057 527.066H34.1534V520.612C34.1534 516.308 37.4185 512.707 41.7018 512.283L82.7057 508.709V527.066Z" fill="#304047"/>
<path d="M147.683 535.073C147.683 541.222 152.669 546.208 158.821 546.208C164.971 546.208 169.957 541.222 169.957 535.073C169.957 528.922 164.971 523.936 158.821 523.936C152.669 523.936 147.683 528.922 147.683 535.073Z" fill="#1D2A30"/>
<path d="M49.8375 535.073C49.8375 541.222 44.8529 546.208 38.7018 546.208C32.5514 546.208 27.5645 541.222 27.5645 535.073C27.5645 528.922 32.5514 523.936 38.7018 523.936C44.8529 523.936 49.8375 528.922 49.8375 535.073Z" fill="#1D2A30"/>
<path d="M94.7636 457.407H102.584C106.748 457.407 110.125 454.031 110.125 449.867V395.116H87.2231V449.867C87.2231 454.031 90.5995 457.407 94.7636 457.407Z" fill="#1D2A30"/>
<path d="M102.584 457.407H94.8875V401.29H110.125V449.867C110.125 454.031 106.748 457.407 102.584 457.407Z" fill="#45555C"/>
<path d="M48.4243 269.234C48.4243 269.234 53.6726 374.456 76.3326 392.572H52.0971C52.0971 392.572 30.4837 356.726 28.8723 269.234H48.4243Z" fill="#1D2A30"/>
<path d="M69.5597 383.853H47.9507C42.4095 370.509 32.9234 341.291 29.8043 292.27H50.1542C52.6555 319.362 58.2815 363.251 69.5597 383.853Z" fill="#304047"/>
<path d="M153.904 383.853H46.4548C41.4173 383.853 37.3337 387.935 37.3337 392.975V401.29H163.026V392.975C163.026 387.935 158.941 383.853 153.904 383.853Z" fill="#4870C0"/>
<path d="M164.138 392.572H36.2193C34.1931 392.572 32.5506 394.213 32.5506 396.239V397.622C32.5506 399.648 34.1931 401.29 36.2193 401.29H164.138C166.165 401.29 167.807 399.648 167.807 397.622V396.239C167.807 394.213 166.165 392.572 164.138 392.572Z" fill="#1D2A30"/>
<path d="M164.138 401.29H94.8875V392.572H125.411C139.131 394.544 153.946 396.245 167.807 397.719C167.754 399.701 166.132 401.29 164.138 401.29ZM82.7058 401.29H36.2193C34.1931 401.29 32.5506 399.648 32.5506 397.622V396.239C32.5506 394.213 34.1931 392.572 36.2193 392.572H82.7058V401.29Z" fill="#A5ADAD"/>
<path d="M24.6221 292.27H63.4485C74.8222 292.27 83.0347 282.052 81.7941 269.446L80.1374 252.617C78.8969 240.01 68.6704 229.792 57.2967 229.792H18.471C7.0975 229.792 -1.11643 240.01 0.123874 252.617L1.7814 269.446C3.02272 282.052 13.2487 292.27 24.6221 292.27Z" fill="#4870C0"/>
<path d="M152.785 201.49L154.651 207.209C155.305 209.166 155.989 211.118 156.704 213.048C158.109 216.92 159.601 220.735 161.174 224.422C162.764 228.097 164.476 231.652 166.303 234.839C168.12 237.986 170.207 240.865 171.852 242.353C172.877 243.501 175.967 244.901 179.477 245.829C183.034 246.733 186.987 247.48 191.052 247.939C199.165 248.962 207.84 249.354 216.262 249.707L217.766 261.067C208.784 263.487 199.904 264.875 190.492 265.399C185.798 265.578 180.988 265.608 175.916 264.938C173.368 264.593 170.743 264.11 167.957 263.28C166.567 262.876 165.137 262.333 163.653 261.643C162.238 261.006 160.494 260.007 159.217 259.069C153.881 255.205 150.603 250.96 147.683 246.767C144.786 242.569 142.453 238.321 140.362 234.041C138.256 229.774 136.451 225.459 134.823 221.104C134.025 218.924 133.264 216.737 132.535 214.532C131.782 212.293 131.163 210.194 130.501 207.696L152.785 201.49Z" fill="#D14548"/>
<path d="M142.82 190.78C149.222 192.975 155.045 202.178 171.108 239.054C171.108 239.054 173.719 243.576 186.77 246.388L185.582 267.113C185.582 267.113 166.944 266.295 162.616 263.298C158.285 260.301 132.354 217.671 132.354 217.671L142.82 190.78Z" fill="#1D2A30"/>
<path d="M179.406 244.282C172.668 241.757 171.108 239.054 171.108 239.054C165.568 226.339 161.245 216.912 157.698 209.928C161.249 216.908 165.574 226.332 171.119 239.044C171.119 239.044 172.672 241.75 179.406 244.282Z" fill="#F6F7F7"/>
<path d="M184.403 267.044C180.762 266.837 169.576 266.066 164.398 264.159C164.402 263.875 164.404 263.587 164.402 263.299H165.635C168.15 264.712 171.653 265.018 174.221 265.018C176.194 265.018 177.618 264.838 177.618 264.838L184.622 265.136L184.403 267.044ZM179.4 245.337L166.53 249.98C165.31 250.09 164.084 250.195 162.859 250.299C160.303 238.015 155.173 225.476 152.146 218.697C152.01 217.956 151.869 217.229 151.727 216.521C148.12 198.549 143.001 191.043 142.825 190.787C147.013 192.226 150.958 196.673 157.698 209.928C161.245 216.913 165.568 226.339 171.108 239.055C171.108 239.055 172.668 241.757 179.406 244.283C181.384 245.026 183.808 245.755 186.77 246.394L186.62 247.698L179.4 245.337Z" fill="#45555C"/>
<path d="M163.698 263.883C163.292 263.708 162.941 263.525 162.654 263.335C162.658 263.335 162.662 263.333 162.666 263.333C162.953 263.525 163.3 263.708 163.698 263.883Z" fill="#C3C2C0"/>
<path d="M164.398 264.159C164.151 264.069 163.915 263.978 163.698 263.883C163.3 263.708 162.953 263.525 162.666 263.332C162.705 263.32 162.744 263.308 162.784 263.298H164.402C164.404 263.586 164.402 263.874 164.398 264.159ZM155.185 250.921C154.927 237.826 153.717 227.183 152.146 218.697C155.173 225.476 160.303 238.015 162.859 250.298C160.305 250.515 157.745 250.724 155.185 250.921Z" fill="#364248"/>
<path d="M211.83 250.745L226.385 245.492L224.604 264.993C224.604 264.993 211.243 266.699 209.601 259.668L211.83 250.745Z" fill="#D04648"/>
<path d="M238.441 249.44L236.22 265.491L224.604 264.994L226.385 245.493L238.441 249.44Z" fill="#D04648"/>
<path d="M186.874 245.492L194.3 247.726L191.59 267.872L184.161 269.157L186.874 245.492Z" fill="#1D2A30"/>
<path d="M153.368 318.841C153.368 318.841 251.603 357.589 274.454 373.794C297.303 389.998 354.922 499.219 354.922 499.219L331.105 517.569C331.105 517.569 262.4 417.809 254.017 411.042C245.632 404.273 136.194 370.719 136.194 370.719L153.368 318.841Z" fill="#4870C0"/>
<path d="M326.819 511.377C321.695 503.972 312.526 490.763 302.358 476.3H302.368C312.534 490.763 321.703 503.972 326.823 511.373L326.819 511.377ZM302.011 475.792H302.003C300.533 473.701 299.045 471.589 297.544 469.463C297.542 469.455 297.54 469.449 297.538 469.441C299.045 471.575 300.537 473.694 302.011 475.792Z" fill="white"/>
<path d="M302.368 476.3H302.358C302.241 476.131 302.121 475.96 302.003 475.792H302.011C302.131 475.96 302.249 476.129 302.368 476.3Z" fill="#F6F7F7"/>
<path d="M304.24 411.604C297.672 401.449 291.273 392.239 285.623 385.243H285.627C291.275 392.239 297.672 401.449 304.24 411.604ZM285.215 384.735H285.213C281.156 379.759 277.495 375.95 274.454 373.794C272.617 372.491 270.292 371.041 267.571 369.479C270.294 371.043 272.621 372.492 274.46 373.796C277.501 375.953 281.16 379.759 285.215 384.735Z" fill="white"/>
<path d="M285.627 385.243H285.623C285.485 385.072 285.349 384.904 285.212 384.735H285.215C285.353 384.904 285.489 385.072 285.627 385.243Z" fill="#F6F7F7"/>
<path d="M267.57 369.479C267.569 369.479 267.57 369.479 267.569 369.479L267.57 369.479Z" fill="#758288"/>
<path d="M233.063 352.415C204.131 339.279 170.085 325.516 157.946 320.663L157.944 320.653C170.073 325.504 204.125 339.275 233.063 352.415Z" fill="white"/>
<path d="M326.823 511.373C321.703 503.972 312.534 490.763 302.368 476.3C302.249 476.129 302.131 475.96 302.011 475.792C300.537 473.695 299.045 471.576 297.538 469.441C289.537 437.619 271.735 372.516 258.461 365.856C237.895 355.542 165.089 339.036 165.089 339.036L163.769 336.072L157.026 337.27L163.761 336.064L157.946 320.664C170.085 325.516 204.131 339.28 233.063 352.416C245.224 357.94 256.486 363.351 264.832 367.943C265.783 368.465 266.696 368.979 267.569 369.478C267.571 369.48 267.569 369.478 267.571 369.48C270.292 371.042 272.617 372.491 274.454 373.794C277.495 375.951 281.156 379.76 285.213 384.736C285.349 384.905 285.485 385.073 285.623 385.243C291.273 392.24 297.672 401.449 304.24 411.604C323.66 441.63 344.574 479.94 352.058 493.866L326.823 511.373Z" fill="#8DAEE0"/>
<path d="M359.253 538.305L370.718 526.775L351.952 497.768L340.513 509.298L359.253 538.305Z" fill="#D04648"/>
<path d="M348.387 521.508L345.345 516.791L345.352 516.786L348.403 521.508H348.387Z" fill="#CECDCC"/>
<path d="M350.825 525.292L348.387 521.508H348.403L350.839 525.281L350.825 525.292Z" fill="#C5C4C2"/>
<path d="M362.566 514.175L358.565 507.99H358.567L362.566 514.175Z" fill="#CECDCC"/>
<path d="M350.839 525.28L348.403 521.508L345.352 516.786L358.565 507.99L362.566 514.175L362.688 514.364L350.839 525.28Z" fill="#A4383A"/>
<path d="M373.495 524.511C374.395 522.462 375.881 519.829 376.996 519.582C377.231 519.531 377.479 519.605 377.643 519.785C378.031 520.085 378.23 520.57 378.169 521.055C377.948 522.103 376.226 523.366 373.495 524.511ZM372.819 524.013L372.669 524.363C371.782 523.104 370.452 520.889 370.738 519.582C370.787 519.281 370.962 519.015 371.217 518.846L371.38 518.755C371.863 518.505 372.129 518.647 372.277 518.812C373.02 519.628 373.193 522.229 372.819 524.013ZM372.72 525.52L372.844 525.567L372.945 525.475C374.301 524.978 375.603 524.342 376.819 523.567C377.787 523.067 378.533 522.225 378.908 521.203C379.056 520.434 378.75 519.648 378.118 519.187C377.775 518.832 377.278 518.676 376.795 518.777C375.676 519.031 374.575 520.627 373.745 522.152C373.784 520.556 373.528 518.905 372.803 518.195C372.322 517.73 371.611 517.626 371.045 517.98C370.515 518.249 370.178 518.684 370.04 519.263C369.581 521.461 372.533 524.994 372.679 525.197L372.868 524.982L372.872 524.986L372.693 525.22L372.551 525.455L372.72 525.52Z" fill="#4870C0"/>
<path d="M370.491 524.48L355.345 534.638C354.801 534.966 354.628 535.677 354.957 536.221L354.969 536.238L362.274 548.728C363.149 550.033 364.911 550.392 366.229 549.532C371.457 545.902 373.771 543.908 380.4 539.387C384.483 536.633 392.814 531.574 397.804 526.931C402.792 522.287 398.07 517.482 395.548 519.009C389.549 522.602 379.14 524.135 373.333 523.703C372.326 523.638 371.325 523.914 370.491 524.48Z" fill="#1D2A30"/>
<path d="M332.179 525.556L361.923 505.757L355.07 491.774L322.852 514.13L332.179 525.556Z" fill="#4870C0"/>
<path d="M332.179 525.556L322.852 514.13L355.07 491.774L361.923 505.757L358.565 507.99L345.352 516.786L345.345 516.791L332.179 525.556Z" fill="#658ACF"/>
<path d="M297.544 469.463C291.263 460.556 284.79 451.449 278.797 443.147C284.788 451.441 291.261 460.543 297.538 469.441C297.54 469.449 297.542 469.455 297.544 469.463Z" fill="#CECDCB"/>
<path d="M297.538 469.441C291.261 460.543 284.788 451.44 278.797 443.146C278.066 442.134 277.341 441.133 276.626 440.146C269.717 407.663 262.059 373.713 259.491 369.949C251.232 357.854 152.117 338.151 152.117 338.151L157.026 337.269L163.769 336.071L165.089 339.036C165.089 339.036 237.895 355.542 258.461 365.856C271.735 372.515 289.537 437.619 297.538 469.441Z" fill="#678ACF"/>
<path d="M294.257 528.675C295.786 527.04 298.06 525.047 299.193 525.183C299.435 525.213 299.642 525.368 299.739 525.589C300.003 526.001 300.032 526.522 299.814 526.961C299.256 527.879 297.214 528.5 294.257 528.675ZM293.786 527.98L293.527 528.261C293.108 526.776 292.586 524.247 293.291 523.112C293.437 522.844 293.689 522.649 293.985 522.576L294.17 522.541C294.708 522.467 294.911 522.688 294.999 522.893C295.427 523.91 294.728 526.419 293.786 527.98ZM293.192 529.369L293.293 529.455L293.421 529.4C294.865 529.382 296.302 529.211 297.707 528.884C298.785 528.734 299.77 528.188 300.462 527.345C300.856 526.671 300.827 525.829 300.385 525.183C300.178 524.736 299.762 524.422 299.272 524.358C298.131 524.227 296.564 525.368 295.275 526.531C295.841 525.039 296.146 523.396 295.699 522.483C295.398 521.888 294.763 521.555 294.111 521.701C293.52 521.778 293.058 522.077 292.739 522.578C291.575 524.501 293.19 528.811 293.261 529.051L293.51 528.912L293.512 528.917L293.267 529.075L293.053 529.252L293.192 529.369Z" fill="#4870C0"/>
<path d="M276.249 536.968L290.885 529.881L282.177 494.994L267.569 502.088L276.249 536.968Z" fill="#D04648"/>
<path d="M272.336 521.312L270.345 513.279L270.353 513.275L272.351 521.305L272.336 521.312Z" fill="#CECDCC"/>
<path d="M272.351 521.305L270.353 513.275L285.761 509.351L286.1 510.707L287.16 514.956L272.351 521.305Z" fill="#A4383A"/>
<path d="M291.433 527.65L273.776 532.214C273.155 532.344 272.755 532.955 272.887 533.58L272.891 533.598L275.644 547.803C276.038 549.325 277.583 550.249 279.109 549.873C285.245 548.18 288.089 547.065 295.841 544.998C300.608 543.752 310.142 541.742 316.39 539.015C322.635 536.289 319.772 530.187 316.889 530.793C310.039 532.191 299.707 530.191 294.373 527.855C293.443 527.463 292.41 527.389 291.433 527.65Z" fill="#1D2A30"/>
<path d="M289.297 501.629C289.297 501.629 264.546 377.353 259.491 369.949C251.232 357.854 152.117 338.151 152.117 338.151L163.761 336.063L150.296 300.397L62.0333 303.879C62.0333 303.879 63.8829 362.179 72.8527 377.812C81.8246 393.446 214.601 400.625 223.21 404.167C231.818 407.708 258.183 505.217 258.183 505.217L289.297 501.629Z" fill="#4870C0"/>
<path d="M257.144 501.42C252.18 483.41 230.797 407.288 223.21 404.167C219.709 402.725 195.689 400.686 167.807 397.719C153.946 396.245 139.131 394.544 125.411 392.572C114.114 390.948 103.561 389.146 94.8875 387.135V312.086L95.0316 313.113L122.422 312.725C122.889 313.548 123.799 314.116 124.773 314.116C124.8 314.116 124.824 314.114 124.848 314.114L133.979 313.838C134.896 313.812 135.623 313.286 135.926 312.532L152.117 312.303L150.272 304.964L134.858 304.994C134.362 304.296 133.536 303.833 132.655 303.833C132.63 303.833 132.604 303.833 132.578 303.833L123.447 304.107C122.7 304.131 122.081 304.484 121.714 305.018L94.8875 305.069V303.654H148.111C148.651 303.654 149.169 303.548 149.646 303.36C150.18 303.148 150.663 302.83 151.063 302.43L163.761 336.063L152.117 338.151C152.117 338.151 251.232 357.854 259.491 369.949C263.736 376.168 281.867 464.783 287.572 493.041L257.144 501.42Z" fill="#8DAEE0"/>
<path d="M82.7057 383.715C77.561 381.896 74.0689 379.93 72.8527 377.813C63.887 362.187 62.0354 303.936 62.0333 303.88L67.7668 303.654H82.7057V305.094L64.3885 304.773L63.8383 312.514L82.7057 312.971V383.715Z" fill="#8DAEE0"/>
<path d="M258.711 516.243L293.336 507.419L291.506 491.957L253.698 502.371L258.711 516.243Z" fill="#4870C0"/>
<path d="M258.711 516.243L253.698 502.371L291.506 491.957L293.336 507.419L285.761 509.351L270.353 513.275L270.345 513.28L258.711 516.243Z" fill="#658ACF"/>
<path d="M89.964 305.22L64.3885 304.773L63.8383 312.514L91.0786 313.174L89.964 305.22Z" fill="#1D2A30"/>
<path d="M93.9047 305.071L95.0315 313.113L152.117 312.303L150.272 304.964L93.9047 305.071Z" fill="#1D2A30"/>
<path d="M121.372 306.529L122.118 311.838C122.298 313.137 123.523 314.155 124.848 314.114L133.979 313.838C135.306 313.799 136.234 312.717 136.054 311.418L135.31 306.111C135.128 304.811 133.903 303.792 132.578 303.833L123.447 304.107C122.12 304.149 121.192 305.232 121.372 306.529Z" fill="white"/>
<path d="M64.2627 303.654H148.111C150.199 303.654 151.971 302.099 152.237 300.03C162.585 218.902 142.821 190.781 142.821 190.781C135.292 188.622 127.61 187.059 119.838 186.103C108.488 185.201 97.0944 184.956 85.7167 185.366C77.9407 185.565 70.1911 186.33 62.5288 187.662C58.3749 189.418 54.2554 207.522 58.3708 263.873C59.4489 278.633 59.6194 291.387 59.5139 298.857C59.4773 301.502 61.6172 303.654 64.2627 303.654Z" fill="#1D2A30"/>
<path d="M131.075 219.513H147.216L148.452 238.793L139.781 244.413L131.075 240.114V219.513Z" fill="#1D2A30"/>
<path d="M151.063 302.43L151.061 302.426C151.689 301.796 152.117 300.966 152.237 300.03C152.521 297.799 152.783 295.608 153.023 293.454H153.025C152.785 295.608 152.521 297.801 152.237 300.034C152.117 300.972 151.691 301.802 151.063 302.43Z" fill="white"/>
<path d="M153.025 293.454H153.023C153.045 293.259 153.065 293.064 153.088 292.869H153.09C153.067 293.064 153.047 293.259 153.025 293.454Z" fill="#F3F3F2"/>
<path d="M154.945 269.16H154.941C154.998 267.895 155.045 266.648 155.083 265.418C155.085 265.418 155.085 265.418 155.085 265.418C155.047 266.65 155 267.891 154.945 269.16Z" fill="#F6F7F7"/>
<path d="M152.146 218.697C152.01 217.954 151.869 217.229 151.727 216.52C151.869 217.229 152.01 217.956 152.146 218.697Z" fill="#6A797F"/>
<path d="M155.183 250.921C154.925 237.826 153.715 227.181 152.146 218.697C153.717 227.183 154.927 237.826 155.185 250.921C155.185 250.921 155.185 250.921 155.183 250.921Z" fill="#5D686F"/>
<path d="M149.646 303.36C150.18 303.147 150.661 302.828 151.061 302.426L151.063 302.43C150.663 302.83 150.18 303.149 149.646 303.36Z" fill="#A3BFE8"/>
<path d="M59.8548 300.686C59.6254 300.122 59.5036 299.504 59.5138 298.857C59.5361 297.281 59.5442 295.47 59.5361 293.454H59.5381C59.5463 295.47 59.5361 297.281 59.5138 298.857C59.5056 299.504 59.6275 300.122 59.8548 300.686Z" fill="white"/>
<path d="M59.5382 293.454H59.5361C59.5341 293.068 59.5321 292.672 59.53 292.27H59.5321C59.5341 292.672 59.5361 293.068 59.5382 293.454Z" fill="#F3F3F2"/>
<path d="M59.5321 292.27H59.53C59.5138 290.096 59.4772 287.704 59.4143 285.134C59.4793 287.706 59.5158 290.094 59.5321 292.27Z" fill="#658ACF"/>
<path d="M62.4435 187.692C62.4678 187.68 62.4942 187.668 62.5186 187.658C63.7287 187.449 64.9428 187.256 66.1569 187.075C64.9448 187.256 63.7368 187.451 62.5288 187.662C62.5267 187.662 62.5267 187.662 62.5267 187.662C62.4983 187.672 62.4719 187.682 62.4435 187.692ZM120.512 186.188C120.288 186.16 120.063 186.131 119.838 186.103C118.274 185.979 116.711 185.867 115.146 185.768V185.764C116.709 185.861 118.272 185.973 119.834 186.095C120.061 186.123 120.286 186.153 120.512 186.182V186.188Z" fill="#F6F7F7"/>
<path d="M115.146 185.768C114.934 185.754 114.723 185.742 114.512 185.729C114.51 185.727 114.51 185.725 114.51 185.723C114.721 185.738 114.934 185.75 115.146 185.764V185.768Z" fill="#FDFEFE"/>
<path d="M123.36 186.58C122.414 186.44 121.464 186.31 120.512 186.188V186.182C121.464 186.306 122.414 186.438 123.36 186.58Z" fill="#F3F3F2"/>
<path d="M83.4772 185.438C84.2264 185.408 84.9756 185.384 85.7248 185.363C86.6973 185.329 87.6698 185.298 88.6403 185.274H88.6423C87.6678 185.3 86.6912 185.331 85.7166 185.365C84.9695 185.384 84.2223 185.408 83.4772 185.438Z" fill="#F6F7F7"/>
<path d="M148.115 303.65H94.8875V292.87H153.088C153.065 293.064 153.045 293.259 153.023 293.454C152.783 295.608 152.521 297.799 152.237 300.03C152.117 300.966 151.689 301.797 151.061 302.426C150.661 302.828 150.18 303.147 149.646 303.36C149.171 303.547 148.653 303.65 148.115 303.65ZM82.7058 303.65H64.2647C62.273 303.65 60.5574 302.422 59.8549 300.686C59.6275 300.122 59.5057 299.505 59.5138 298.857C59.5362 297.281 59.5463 295.47 59.5382 293.454C59.5362 293.069 59.5341 292.673 59.5321 292.271C59.5158 290.094 59.4793 287.707 59.4143 285.134C59.26 278.934 58.9453 271.686 58.3768 263.875C57.7881 255.776 57.3617 248.445 57.0978 241.867C60.9188 250.699 67.8278 262.058 79.7294 269.16H69.72V278.753C69.72 280.931 71.4844 282.698 73.6649 282.698H84.2752C83.2986 283.778 82.7058 285.209 82.7058 286.779V303.65ZM154.941 269.16H138.051C138.573 269.064 139.095 268.965 139.615 268.863C144.849 267.883 149.989 266.734 155.083 265.418C155.045 266.648 154.998 267.895 154.941 269.16ZM147.332 251.488C143.59 250.948 134.484 249.602 126.164 248.163C123.965 231.303 120.916 208.907 119.442 202.475L120.506 199.907L123.011 194.581L118.388 192.174L113.651 193.209L114.671 186.008C114.618 185.914 114.565 185.821 114.512 185.729C114.723 185.742 114.934 185.754 115.146 185.768C116.711 185.867 118.274 185.979 119.838 186.103C120.063 186.131 120.288 186.16 120.512 186.188C121.464 186.31 122.414 186.44 123.36 186.58C129.932 187.559 136.425 188.96 142.816 190.785C142.816 190.785 148.055 198.232 151.727 216.521C151.869 217.229 152.01 217.954 152.146 218.697C153.715 227.182 154.925 237.827 155.183 250.922C152.564 251.125 149.945 251.314 147.332 251.488ZM131.075 219.513V240.115L139.781 244.413L148.452 238.793L147.216 219.513H131.075ZM118.11 246.67C113.85 245.812 110.653 245.008 109.865 244.413C107.29 242.468 91.706 218.632 84.3158 210.271C83.66 209.061 83.0205 207.904 82.4053 206.816C74.3511 192.59 62.6181 187.699 62.5288 187.662C63.7368 187.451 64.9448 187.256 66.1569 187.075C71.8986 186.221 77.6808 185.673 83.4773 185.439C84.2224 185.409 84.9695 185.384 85.7167 185.366C86.6912 185.331 87.6678 185.301 88.6423 185.275L112.594 193.438L111.071 193.773H105.951L103.614 197.793L108.925 199.996L113.572 202.914C113.572 202.914 117.176 223.58 118.11 246.67Z" fill="#45555C"/>
<path d="M139.781 244.413L131.075 240.114V219.513H147.216L148.452 238.793L139.781 244.413Z" fill="#45555C"/>
<path d="M86.478 184.538L113.572 193.773L114.671 186.008C112.023 181.379 111.357 178.459 113.588 173.079L95.5066 152.303C95.9919 162.952 94.0591 177.495 86.478 184.538Z" fill="#D04648"/>
<path d="M103.614 197.793L108.925 199.996L113.572 202.913C113.572 202.913 119.752 238.354 118.021 268.274L123.224 272.544L128.714 268.13C128.714 268.13 121.896 213.182 119.442 202.475L120.506 199.906L123.011 194.581L118.388 192.173L111.071 193.773H105.95L103.614 197.793Z" fill="white"/>
<path d="M111.635 178.909C107.108 177.555 101.52 171.523 101.75 166.61C101.76 164.612 102.142 162.634 102.873 160.775L113.572 173.076C112.76 174.962 112.112 176.913 111.635 178.909Z" fill="#A4383A"/>
<path d="M88.1652 179.62C88.1652 179.62 98.6861 186.945 112.567 192.301C112.567 192.301 114.212 186.143 112.567 180.787L124.534 186.758C124.534 186.758 125.524 196.049 122.775 200.867L113.997 194.443L104.131 202.475C104.131 202.475 85.4446 195.265 82.521 185.483L88.1652 179.62Z" fill="#1D2A30"/>
<path d="M83.7127 269.16H79.7293C67.8278 262.058 60.9187 250.698 57.0977 241.867C56.8196 235.467 56.6876 229.754 56.6714 224.666C63.0059 243.874 75.8413 264.149 83.7127 269.16ZM128.598 252.363L128.714 251.005L126.479 250.578C126.377 249.789 126.272 248.981 126.164 248.162C134.484 249.602 143.59 250.948 147.332 251.488C144.073 251.707 140.825 251.902 137.605 252.067C134.58 252.197 131.573 252.312 128.598 252.363ZM118.234 250.369C114.579 249.874 110.37 249.253 108.46 248.796C102.976 247.482 92.2866 224.954 84.3157 210.271C91.706 218.632 107.29 242.468 109.865 244.413C110.653 245.007 113.85 245.811 118.11 246.67C118.159 247.899 118.201 249.131 118.234 250.369Z" fill="#364248"/>
<path d="M121.255 250.77C120.345 250.652 119.314 250.518 118.234 250.37C118.201 249.131 118.159 247.899 118.11 246.67C120.534 247.16 123.303 247.667 126.164 248.163C126.272 248.981 126.377 249.789 126.479 250.579L121.35 249.6L121.255 250.77Z" fill="#CECDCC"/>
<path d="M164.845 250.589L179.4 245.336L177.618 264.837C177.618 264.837 164.258 266.538 162.616 259.508L164.845 250.589Z" fill="#D04648"/>
<path d="M191.456 249.279L189.235 265.334L177.617 264.837L179.4 245.336L191.456 249.279Z" fill="#D04648"/>
<path d="M80.1617 211.264L83.4508 217.525C84.5898 219.651 85.7694 221.756 86.9754 223.833C89.3346 228.024 91.8095 232.105 94.3717 235.974C96.9502 239.814 99.6301 243.505 102.391 246.39C103.729 247.841 105.096 249.078 106.192 249.853C106.529 250.121 106.598 250.113 106.704 250.207C106.779 250.302 107.175 250.406 107.392 250.531C107.688 250.647 108.105 250.751 108.454 250.877L109.749 251.193C113.495 252.03 118.258 252.284 122.98 252.367C127.76 252.454 132.657 252.28 137.605 252.066C147.47 251.559 157.593 250.779 167.539 249.89L169.947 261.093C159.948 264.321 149.967 266.926 139.615 268.863C134.452 269.876 129.199 270.609 123.807 271.184C118.364 271.659 112.89 271.971 106.555 271.285C105.731 271.169 104.943 271.066 104.095 270.907C103.214 270.715 102.379 270.558 101.461 270.306C100.481 269.994 99.6281 269.795 98.5582 269.336C97.5065 268.902 96.4 268.396 95.667 267.97C92.3638 266.171 89.7772 264.145 87.4302 262.092C82.8438 257.914 79.1506 253.597 75.8372 249.143C72.5076 244.703 69.5535 240.159 66.8045 235.538C65.4564 233.209 64.159 230.868 62.9002 228.503C61.611 226.105 60.4619 223.829 59.2518 221.157L80.1617 211.264Z" fill="#D14548"/>
<path d="M62.5267 187.662C36.3303 197.104 70.3047 262.354 84.5858 269.663C98.8688 276.976 123.011 273.876 123.011 273.876L124.708 251.205C124.708 251.205 112.196 249.691 108.46 248.796C102.523 247.374 90.4898 221.098 82.4052 206.815C74.3206 192.534 62.5267 187.662 62.5267 187.662Z" fill="#1D2A30"/>
<path d="M119.771 269.16H83.7128C72.9482 262.309 52.9052 226.918 52.891 204.731C52.8849 196.544 55.6075 190.155 62.5267 187.662C62.5267 187.662 74.3207 192.535 82.4053 206.816C90.4899 221.099 102.523 247.375 108.46 248.796C110.935 249.389 117.267 250.254 121.255 250.769L119.771 269.16Z" fill="#45555C"/>
<path d="M121.35 249.6L119.224 275.929L126.732 274.528L128.714 251.005L121.35 249.6Z" fill="#1D2A30"/>
<path d="M142.061 130.916C143.105 136.988 140.475 148.821 132.864 143.826C125.252 138.832 140.268 120.474 142.061 130.916Z" fill="#1D2A30"/>
<path d="M99.0151 133.09C96.0874 147.944 93.6145 156.495 99.0679 165.865C107.268 179.961 127.149 177.815 134.474 164.097C141.068 151.748 144.747 129.533 131.896 120.1C119.237 110.81 101.943 118.239 99.0151 133.09Z" fill="#D04648"/>
<path d="M91.9152 116.696L108.746 115.924L109.189 125.584C108.87 125.403 108.511 125.229 108.212 125.044C108.212 125.044 107.144 139.151 99.0963 143.977C88.1794 135.652 84.9838 122.047 91.9152 116.696Z" fill="#1D2A30"/>
<path d="M90.1832 143.8C90.366 147.868 92.4247 151.458 94.9483 153.659C98.7429 156.966 102.844 154.089 103.636 149.377C104.349 145.134 103.234 138.3 98.5358 136.805C93.9068 135.331 89.9741 139.146 90.1832 143.8Z" fill="#D04648"/>
<path d="M120.217 142.775C119.907 143.967 120.288 145.091 121.068 145.286C121.852 145.483 122.737 144.677 123.05 143.487C123.36 142.296 122.981 141.171 122.199 140.974C121.417 140.779 120.53 141.585 120.217 142.775Z" fill="#1D2A30"/>
<path d="M133.735 146.171C133.422 147.361 133.802 148.485 134.586 148.682C135.365 148.877 136.253 148.071 136.565 146.882C136.876 145.69 136.496 144.565 135.714 144.37C134.933 144.173 134.046 144.979 133.735 146.171Z" fill="#1D2A30"/>
<path d="M129.282 145.684C129.282 145.684 130.336 152.999 132.519 156.968C129.944 158.304 126.584 156.497 126.584 156.497L129.282 145.684Z" fill="#BB2024"/>
<path d="M118.985 159.443C119.458 159.634 119.966 159.8 120.514 159.936C120.709 159.985 120.906 159.867 120.956 159.676C121.009 159.481 120.887 159.285 120.696 159.238C115.446 157.912 113.956 153.653 113.94 153.61C113.877 153.421 113.67 153.322 113.481 153.385C113.29 153.449 113.188 153.655 113.251 153.843C113.31 154.016 114.595 157.691 118.985 159.443Z" fill="#1D2A30"/>
<path d="M117.19 137.38C117.424 137.476 117.702 137.443 117.915 137.273C120.457 135.261 122.999 136.061 123.025 136.069C123.405 136.193 123.817 135.987 123.943 135.61C124.071 135.23 123.866 134.822 123.488 134.698C123.354 134.654 120.169 133.653 117.016 136.15C116.701 136.398 116.646 136.852 116.896 137.163L117.19 137.38Z" fill="#1D2A30"/>
<path d="M140.77 143.004L141.186 143.041C141.58 142.959 141.834 142.576 141.757 142.186C140.969 138.273 137.873 137.055 137.741 136.98C137.369 136.838 136.947 137.021 136.797 137.392C136.65 137.762 136.829 138.176 137.197 138.324C137.329 138.369 139.7 139.339 140.333 142.48C140.382 142.726 140.553 142.917 140.77 143.004Z" fill="#1D2A30"/>
<path d="M103.015 128.664C103.015 128.664 103.384 129.003 104.034 129.376C105.331 130.126 107.741 131.019 110.535 129.646C114.725 127.586 116.039 115.69 127.947 121.745C127.947 121.745 132.021 120.514 135.089 124.27C138.157 128.024 136.037 141.737 142.583 139.841C149.126 137.944 147.987 135.926 147.987 135.926C147.987 135.926 146.154 137.085 145.066 136.168C145.066 136.168 148.495 133.319 146.846 129.334C146.846 129.334 145.257 131.212 144.195 130.84C144.195 130.84 146.176 123.84 142.39 114.381C138.608 104.92 115.377 107.033 115.377 107.033C115.377 107.033 112.445 102.142 101.955 105.555C91.4643 108.968 86.6729 121.609 88.3357 127.121" fill="#1D2A30"/>
<path d="M241.592 263.298L240.091 257.638H178.521L150.166 260.466L149.088 263.298H241.592Z" fill="#1D2A30"/>
<path d="M178.521 263.298H149.088L150.166 260.466L178.521 257.638V263.298Z" fill="#8E989B"/>
<path d="M224.207 263.298H178.521V257.638H236.002L224.207 259.408V263.298Z" fill="#6E767B"/>
<path d="M199.352 230.525C199.078 233.518 201.264 235.946 204.241 235.946H298.56C301.55 235.946 304.194 233.518 304.466 230.525L310.069 170.141C310.13 169.517 310.083 168.925 309.947 168.378C309.416 166.253 307.55 164.72 305.18 164.72H210.859C207.869 164.72 205.227 167.15 204.953 170.141L199.352 230.525Z" fill="#1D2A30"/>
<path d="M204.574 235.946H204.241C201.439 235.946 199.335 233.794 199.327 231.045C199.327 230.875 199.335 230.7 199.352 230.525L204.953 170.141C205.227 167.15 207.869 164.72 210.859 164.72H305.18C307.55 164.72 309.415 166.253 309.947 168.378H215.961C212.985 168.378 210.344 170.809 210.055 173.801L204.452 234.186C204.393 234.807 204.438 235.4 204.574 235.946Z" fill="#8E989B"/>
<path d="M298.56 235.946H273.687L269.374 198.91H249.861L253.309 235.946H237.949H232.015H204.574C204.438 235.4 204.393 234.807 204.452 234.186L210.055 173.801C210.344 170.809 212.985 168.378 215.961 168.378H309.947C310.045 168.762 310.096 169.17 310.096 169.595C310.096 169.773 310.088 169.956 310.069 170.141L304.466 230.525C304.194 233.518 301.55 235.946 298.56 235.946Z" fill="#7E878B"/>
<path d="M269.374 198.91H249.861L255.063 254.775L224.206 259.408V263.298H289.194V259.408L275.879 254.775L269.374 198.91Z" fill="#1D2A30"/>
<path d="M289.194 263.298H224.206V259.408L255.063 254.775L249.861 198.91L264.319 262.411L275.879 262.068L269.374 198.91L275.879 254.775L289.194 259.408V263.298Z" fill="#8E989B"/>
<path d="M264.319 262.411L249.861 198.909H269.374L275.879 262.068L264.319 262.411Z" fill="#A7ACAE"/>
<path d="M88.7966 546.283H206.955C208.236 546.283 209.278 545.243 209.278 543.959V536.425C209.278 535.141 208.236 534.101 206.955 534.101H94.8875V292.869H205.045C207.382 292.869 209.278 290.975 209.278 288.636V280.687H88.7966C85.4324 280.687 82.7057 283.414 82.7057 286.778V540.192C82.7057 543.557 85.4324 546.283 88.7966 546.283Z" fill="#1D2A30"/>
<path d="M206.955 546.283H88.7966C85.4324 546.283 82.7057 543.557 82.7057 540.192V286.778C82.7057 285.209 83.2986 283.777 84.2752 282.697H209.278V286.622V288.636C209.278 290.975 207.382 292.869 205.045 292.869H153.088H94.8875V303.65V303.654V305.069V312.086V387.135V392.572V401.29V457.407V527.066V534.101H206.955C208.236 534.101 209.278 535.141 209.278 536.425V543.959C209.278 545.243 208.236 546.283 206.955 546.283Z" fill="#758288"/>
<path d="M73.6649 282.697H385.147C387.326 282.697 389.092 280.931 389.092 278.752V269.159H69.72V278.752C69.72 280.931 71.4844 282.697 73.6649 282.697Z" fill="#4870C0"/>
<path d="M69.72 275.929H389.092V269.16H69.72V275.929Z" fill="#395EB4"/>
<path d="M63.0221 270.926H395.788C397.895 270.926 399.601 269.219 399.601 267.113C399.601 265.008 397.895 263.298 395.788 263.298H63.0221C60.9167 263.298 59.2093 265.008 59.2093 267.113C59.2093 269.219 60.9167 270.926 63.0221 270.926Z" fill="#4870C0"/>
</svg>
