<svg width="350" height="99" viewBox="0 0 454 99" fill="none" xmlns="http://www.w3.org/2000/svg">
<path d="M69.9999 0L120 49.1803L69.9999 98.3606L19.9999 49.1803L69.9999 0Z" fill="#05ABC4"/>
<path d="M50 0L100 49.1803L50 98.3606L0 49.1803L50 0Z" fill="#FC8655"/>
<path d="M175.35 31.9V38.75H166.05V67H157.5V38.75H148.2V31.9H175.35ZM206.491 60.8H193.391L191.291 67H182.341L195.041 31.9H204.941L217.641 67H208.591L206.491 60.8ZM204.291 54.2L199.941 41.35L195.641 54.2H204.291ZM239.206 67.35C236.64 67.35 234.34 66.9333 232.306 66.1C230.273 65.2667 228.64 64.0333 227.406 62.4C226.206 60.7667 225.573 58.8 225.506 56.5H234.606C234.74 57.8 235.19 58.8 235.956 59.5C236.723 60.1667 237.723 60.5 238.956 60.5C240.223 60.5 241.223 60.2167 241.956 59.65C242.69 59.05 243.056 58.2333 243.056 57.2C243.056 56.3333 242.756 55.6167 242.156 55.05C241.59 54.4833 240.873 54.0167 240.006 53.65C239.173 53.2833 237.973 52.8667 236.406 52.4C234.14 51.7 232.29 51 230.856 50.3C229.423 49.6 228.19 48.5667 227.156 47.2C226.123 45.8333 225.606 44.05 225.606 41.85C225.606 38.5833 226.79 36.0333 229.156 34.2C231.523 32.3333 234.606 31.4 238.406 31.4C242.273 31.4 245.39 32.3333 247.756 34.2C250.123 36.0333 251.39 38.6 251.556 41.9H242.306C242.24 40.7667 241.823 39.8833 241.056 39.25C240.29 38.5833 239.306 38.25 238.106 38.25C237.073 38.25 236.24 38.5333 235.606 39.1C234.973 39.6333 234.656 40.4167 234.656 41.45C234.656 42.5833 235.19 43.4667 236.256 44.1C237.323 44.7333 238.99 45.4167 241.256 46.15C243.523 46.9167 245.356 47.65 246.756 48.35C248.19 49.05 249.423 50.0667 250.456 51.4C251.49 52.7333 252.006 54.45 252.006 56.55C252.006 58.55 251.49 60.3667 250.456 62C249.456 63.6333 247.99 64.9333 246.056 65.9C244.123 66.8667 241.84 67.35 239.206 67.35ZM282.618 67L270.818 51.5V67H262.268V31.9H270.818V47.3L282.518 31.9H292.568L278.968 49.1L293.068 67H282.618ZM341.881 31.9V67H333.331V45.95L325.481 67H318.581L310.681 45.9V67H302.131V31.9H312.231L322.081 56.2L331.831 31.9H341.881ZM374.88 60.8H361.78L359.68 67H350.73L363.43 31.9H373.33L386.03 67H376.98L374.88 60.8ZM372.68 54.2L368.33 41.35L364.03 54.2H372.68ZM420.145 31.9V38.75H410.845V67H402.295V38.75H392.995V31.9H420.145ZM437.986 38.75V45.85H449.436V52.45H437.986V60.15H450.936V67H429.436V31.9H450.936V38.75H437.986Z" fill="white"/>
</svg>
