<svg width="20" height="28" viewBox="0 0 20 28" fill="none" xmlns="http://www.w3.org/2000/svg">
<path d="M10 21.3333C10.663 21.3333 11.2989 21.0524 11.7678 20.5523C12.2366 20.0522 12.5 19.3739 12.5 18.6667C12.5 17.9594 12.2366 17.2811 11.7678 16.781C11.2989 16.281 10.663 16 10 16C9.33696 16 8.70107 16.281 8.23223 16.781C7.76339 17.2811 7.5 17.9594 7.5 18.6667C7.5 19.3739 7.76339 20.0522 8.23223 20.5523C8.70107 21.0524 9.33696 21.3333 10 21.3333ZM17.5 9.33333C18.163 9.33333 18.7989 9.61429 19.2678 10.1144C19.7366 10.6145 20 11.2928 20 12V25.3333C20 26.0406 19.7366 26.7189 19.2678 27.219C18.7989 27.719 18.163 28 17.5 28H2.5C1.83696 28 1.20107 27.719 0.732233 27.219C0.263392 26.7189 0 26.0406 0 25.3333V12C0 11.2928 0.263392 10.6145 0.732233 10.1144C1.20107 9.61429 1.83696 9.33333 2.5 9.33333H3.75V6.66667C3.75 4.89856 4.40848 3.20286 5.58058 1.95262C6.75269 0.702379 8.3424 0 10 0C10.8208 0 11.6335 0.172438 12.3918 0.50747C13.1501 0.842501 13.8391 1.33356 14.4194 1.95262C14.9998 2.57168 15.4602 3.30661 15.7742 4.11544C16.0883 4.92428 16.25 5.79119 16.25 6.66667V9.33333H17.5ZM10 2.66667C9.00544 2.66667 8.05161 3.08809 7.34835 3.83824C6.64509 4.58839 6.25 5.6058 6.25 6.66667V9.33333H13.75V6.66667C13.75 5.6058 13.3549 4.58839 12.6517 3.83824C11.9484 3.08809 10.9946 2.66667 10 2.66667Z" fill="white"/>
</svg>
