<svg width="518" height="457" viewBox="0 0 518 457" fill="none" xmlns="http://www.w3.org/2000/svg">
<path d="M64.593 407.715H73.0372V407.381H64.593V407.715Z" fill="#EEEEEE"/>
<path d="M100.48 413.344H225.381V413.01H100.48V413.344Z" fill="#EEEEEE"/>
<path d="M55.8787 285.44H6.68335V396.061H55.8787V285.44Z" fill="#EEEEEE"/>
<path d="M79.6809 396.061H128.876V232.076H79.6809V396.061Z" fill="#EEEEEE"/>
<path d="M152.678 396.061H201.873V192.051H152.678V396.061Z" fill="#EEEEEE"/>
<path d="M225.674 396.061H274.869V285.44H225.674V396.061Z" fill="#EEEEEE"/>
<path d="M298.672 396.061H347.866V245.416H298.672V396.061Z" fill="#EEEEEE"/>
<path d="M371.668 396.061H420.862V178.709H371.668V396.061Z" fill="#EEEEEE"/>
<path d="M444.665 396.061H493.859V58.6373H444.665V396.061Z" fill="#EEEEEE"/>
<path d="M33.2776 254.533L104.968 200.907L176.373 163.108L249.432 256.195L323.758 213.396L399.554 147.387L475.702 25.0679L470.044 21.5439L394.424 143.015L319.87 207.943L251.11 247.535L178.177 154.609L101.389 195.257L29.2844 249.195L33.2782 254.533H33.2776Z" fill="#E3E3E2"/>
<path d="M40.0766 251.864C40.0766 256.723 36.139 260.66 31.2813 260.66C26.424 260.66 22.486 256.723 22.486 251.864C22.486 247.008 26.424 243.069 31.2813 243.069C36.139 243.069 40.0766 247.008 40.0766 251.864Z" fill="#FCFDFD"/>
<path d="M40.0766 251.864H36.7433C36.7417 253.384 36.1376 254.728 35.1437 255.726C34.1448 256.72 32.8005 257.325 31.2813 257.326C29.7625 257.325 28.4177 256.72 27.4188 255.726C26.4251 254.728 25.8209 253.384 25.8193 251.864C25.8209 250.347 26.4251 249.001 27.4193 248.003C28.4183 247.008 29.7631 246.404 31.2813 246.403C32.8 246.404 34.1448 247.008 35.1437 248.003C36.1376 249.001 36.7417 250.347 36.7433 251.864H40.0766H43.41C43.412 248.527 42.0474 245.473 39.8578 243.288C37.674 241.098 34.6204 239.733 31.2813 239.736C27.9423 239.733 24.8891 241.098 22.7047 243.288C20.5152 245.473 19.1505 248.525 19.1527 251.864C19.1505 255.204 20.5152 258.257 22.7052 260.441C24.8896 262.63 27.9428 263.994 31.2813 263.993C37.9813 263.992 43.4084 258.564 43.41 251.864H40.0766Z" fill="#E3E3E2"/>
<path d="M111.974 198.079C111.974 202.937 108.037 206.875 103.178 206.875C98.3209 206.875 94.3823 202.937 94.3823 198.079C94.3823 193.221 98.3209 189.284 103.178 189.284C108.037 189.284 111.974 193.221 111.974 198.079Z" fill="#FCFDFD"/>
<path d="M111.974 198.079H108.641C108.64 199.599 108.036 200.943 107.041 201.941C106.042 202.936 104.698 203.54 103.178 203.541C101.66 203.54 100.316 202.936 99.3156 201.941C98.3223 200.943 97.7183 199.599 97.7156 198.079C97.7183 196.56 98.3223 195.216 99.3156 194.217C100.316 193.223 101.66 192.619 103.178 192.617C104.697 192.619 106.042 193.224 107.041 194.217C108.036 195.216 108.64 196.56 108.641 198.079H111.974H115.308C115.31 194.74 113.945 191.687 111.756 189.503C109.57 187.313 106.517 185.949 103.178 185.951C99.8396 185.949 96.7863 187.313 94.6023 189.503C92.413 191.687 91.0476 194.74 91.049 198.079C91.0476 201.419 92.413 204.472 94.6023 206.656C96.7863 208.845 99.8396 210.209 103.178 210.208C106.517 210.209 109.57 208.845 111.756 206.656C113.945 204.472 115.31 201.419 115.308 198.079H111.974Z" fill="#E3E3E2"/>
<path d="M186.072 158.901C186.072 163.759 182.133 167.697 177.274 167.697C172.417 167.697 168.48 163.759 168.48 158.901C168.48 154.044 172.417 150.107 177.274 150.107C182.133 150.107 186.072 154.044 186.072 158.901Z" fill="#FCFDFD"/>
<path d="M186.072 158.901H182.738C182.736 160.42 182.132 161.765 181.138 162.764C180.138 163.757 178.794 164.363 177.274 164.364C175.756 164.363 174.412 163.757 173.413 162.764C172.418 161.765 171.814 160.42 171.813 158.901C171.814 157.383 172.418 156.039 173.413 155.039C174.412 154.045 175.756 153.441 177.274 153.44C178.794 153.441 180.138 154.045 181.138 155.039C182.132 156.039 182.736 157.383 182.738 158.901H186.072H189.405C189.406 155.563 188.041 152.509 185.852 150.325C183.668 148.135 180.613 146.771 177.274 146.773C173.936 146.771 170.882 148.135 168.698 150.325C166.509 152.509 165.144 155.563 165.146 158.901C165.144 162.24 166.509 165.293 168.698 167.477C170.882 169.668 173.936 171.032 177.274 171.031C180.614 171.032 183.668 169.668 185.852 167.477C188.041 165.293 189.406 162.24 189.405 158.901H186.072Z" fill="#E3E3E2"/>
<path d="M259.068 250.317C259.068 255.176 255.129 259.113 250.272 259.113C245.414 259.113 241.476 255.176 241.476 250.317C241.476 245.46 245.414 241.523 250.272 241.523C255.129 241.523 259.068 245.46 259.068 250.317Z" fill="#FCFDFD"/>
<path d="M259.068 250.317H255.734C255.733 251.837 255.128 253.181 254.134 254.18C253.136 255.173 251.79 255.779 250.272 255.78C248.753 255.779 247.408 255.173 246.409 254.18C245.416 253.181 244.812 251.837 244.809 250.317C244.812 248.799 245.416 247.455 246.409 246.455C247.408 245.461 248.753 244.857 250.272 244.856C251.79 244.857 253.136 245.461 254.134 246.455C255.128 247.455 255.733 248.799 255.734 250.317H259.068H262.401C262.402 246.979 261.038 243.925 258.849 241.741C256.664 239.551 253.61 238.187 250.272 238.189C246.933 238.187 243.88 239.551 241.696 241.741C239.505 243.925 238.141 246.979 238.142 250.317C238.141 253.656 239.505 256.709 241.696 258.895C243.88 261.084 246.933 262.448 250.272 262.447C253.61 262.448 256.664 261.084 258.849 258.895C261.038 256.709 262.402 253.656 262.401 250.317H259.068Z" fill="#E3E3E2"/>
<path d="M332.065 209.808C332.065 214.665 328.126 218.604 323.269 218.604C318.41 218.604 314.473 214.665 314.473 209.808C314.473 204.951 318.41 201.013 323.269 201.013C328.126 201.013 332.065 204.951 332.065 209.808Z" fill="#FCFDFD"/>
<path d="M332.065 209.808H328.732C328.729 211.327 328.125 212.672 327.132 213.671C326.132 214.664 324.788 215.269 323.269 215.271C321.75 215.269 320.405 214.664 319.406 213.671C318.412 212.672 317.808 211.327 317.806 209.808C317.808 208.289 318.412 206.945 319.406 205.947C320.405 204.952 321.749 204.348 323.269 204.347C324.788 204.348 326.132 204.952 327.132 205.947C328.125 206.945 328.729 208.289 328.732 209.808H332.065H335.398C335.4 206.469 334.036 203.416 331.845 201.232C329.661 199.043 326.608 197.677 323.269 197.68C319.93 197.677 316.877 199.043 314.692 201.232C312.502 203.416 311.138 206.469 311.14 209.808C311.138 213.147 312.502 216.2 314.692 218.384C316.877 220.575 319.93 221.939 323.269 221.937C326.608 221.939 329.661 220.575 331.845 218.384C334.034 216.2 335.4 213.147 335.398 209.808H332.065Z" fill="#E3E3E2"/>
<path d="M405.704 144.297C405.704 149.154 401.766 153.092 396.908 153.092C392.05 153.092 388.113 149.154 388.113 144.297C388.113 139.44 392.05 135.501 396.908 135.501C401.766 135.501 405.704 139.44 405.704 144.297Z" fill="#FCFDFD"/>
<path d="M405.704 144.297H402.37C402.369 145.816 401.764 147.16 400.77 148.159C399.772 149.153 398.428 149.757 396.908 149.759C395.389 149.757 394.045 149.153 393.046 148.159C392.052 147.16 391.448 145.816 391.446 144.297C391.448 142.777 392.052 141.433 393.046 140.435C394.045 139.441 395.389 138.836 396.908 138.835C398.426 138.836 399.772 139.441 400.77 140.435C401.765 141.433 402.369 142.779 402.37 144.297H405.704H409.037C409.038 140.959 407.674 137.905 405.485 135.72C403.3 133.531 400.248 132.167 396.908 132.168C393.569 132.167 390.516 133.531 388.332 135.72C386.142 137.905 384.778 140.959 384.78 144.297C384.781 150.997 390.208 156.424 396.908 156.425C400.246 156.428 403.3 155.063 405.485 152.873C407.674 150.689 409.038 147.636 409.037 144.297H405.704Z" fill="#E3E3E2"/>
<path d="M480.086 25.5598C480.086 30.4172 476.149 34.3545 471.29 34.3545C466.433 34.3545 462.494 30.4172 462.494 25.5598C462.494 20.7012 466.433 16.7638 471.29 16.7638C476.149 16.7638 480.086 20.7012 480.086 25.5598Z" fill="#FCFDFD"/>
<path d="M480.086 25.56H476.753C476.752 27.0787 476.148 28.4227 475.153 29.4213C474.154 30.416 472.809 31.02 471.29 31.0213C469.772 31.02 468.428 30.416 467.428 29.4213C466.434 28.4227 465.83 27.0787 465.828 25.56C465.83 24.04 466.434 22.696 467.428 21.6973C468.428 20.7026 469.772 20.0986 471.29 20.0973C472.809 20.0986 474.154 20.7026 475.153 21.6973C476.148 22.696 476.752 24.04 476.753 25.56H480.086H483.42C483.421 22.2213 482.057 19.1666 479.868 16.9826C477.682 14.7933 474.629 13.428 471.29 13.4306C467.952 13.428 464.898 14.7933 462.714 16.9826C460.525 19.1666 459.16 22.2213 459.161 25.56C459.16 28.8987 460.525 31.952 462.714 34.136C464.898 36.3266 467.952 37.6907 471.29 37.688C474.629 37.6907 477.682 36.3266 479.868 34.136C482.057 31.952 483.421 28.8987 483.42 25.56H480.086Z" fill="#E3E3E2"/>
<path d="M517.037 441.181C517.037 449.52 401.296 456.279 258.518 456.279C115.742 456.279 0 449.52 0 441.181C0 432.843 115.742 426.083 258.518 426.083C401.296 426.083 517.037 432.843 517.037 441.181Z" fill="#F8F8F9"/>
<path d="M459.68 346.849C459.626 346.819 455.64 343.45 450.496 343.433C447.926 343.428 445.072 344.319 442.442 346.881C441.388 347.913 440.52 349.496 439.734 351.492C437.012 358.46 435.408 370.604 434.453 381.065C433.502 391.519 433.224 400.253 433.222 400.261L434.482 400.301C434.482 400.3 434.505 399.593 434.56 398.334C434.75 393.932 435.332 382.809 436.69 372.004C437.369 366.603 438.244 361.279 439.353 356.929C440.449 352.583 441.84 349.198 443.321 347.784C445.737 345.443 448.208 344.698 450.496 344.692C452.781 344.691 454.889 345.469 456.42 346.257C457.184 346.652 457.804 347.047 458.229 347.34C458.442 347.486 458.606 347.609 458.716 347.693L458.837 347.788L458.873 347.817L459.68 346.849Z" fill="#4870C0"/>
<path d="M433.853 409.145C433.854 409.131 434.482 402.673 434.482 393.296C434.481 384.469 433.926 373.057 431.761 361.983C429.593 350.91 425.826 340.167 419.314 332.685L418.365 333.512C424.646 340.715 428.386 351.269 430.525 362.226C432.668 373.179 433.222 384.522 433.222 393.296C433.222 397.957 433.066 401.892 432.91 404.661C432.833 406.045 432.754 407.137 432.696 407.883C432.637 408.629 432.6 409.022 432.6 409.024L433.853 409.145Z" fill="#4870C0"/>
<path d="M435.718 403.405C435.718 403.404 435.688 402.936 435.641 402.065C435.501 399.452 435.221 393.242 435.221 385.449C435.22 375.922 435.64 364.026 437.241 353.452C438.04 348.165 439.136 343.209 440.61 339.057C442.082 334.904 443.942 331.562 446.202 329.489L445.349 328.562C442.854 330.861 440.94 334.373 439.424 338.636C434.893 351.417 433.966 371.097 433.961 385.449C433.961 395.88 434.461 403.478 434.461 403.488L435.718 403.405Z" fill="#4870C0"/>
<path d="M433.856 403.441C433.856 403.426 433.77 393.347 432.314 382.457C431.586 377.01 430.516 371.363 428.929 366.647C427.33 361.939 425.256 358.124 422.28 356.396C420.75 355.519 419.28 355.12 417.897 355.12C415.634 355.12 413.677 356.18 412.057 357.687C409.622 359.952 407.854 363.249 406.662 365.988C405.476 368.726 404.881 370.908 404.874 370.927L406.09 371.259L406.136 371.096C406.372 370.28 407.528 366.522 409.55 363.017C410.56 361.265 411.786 359.58 413.192 358.359C414.602 357.134 416.158 356.381 417.897 356.38C419.037 356.381 420.28 356.703 421.653 357.489C424.136 358.891 426.197 362.452 427.734 367.049C430.057 373.937 431.282 383.057 431.914 390.436C432.232 394.127 432.402 397.383 432.493 399.716C432.538 400.883 432.565 401.817 432.58 402.46C432.593 403.104 432.596 403.451 432.596 403.452L433.856 403.441Z" fill="#4870C0"/>
<path d="M438.168 403.41C438.168 403.408 438.129 402.741 438.09 401.556C438.052 400.371 438.013 398.672 438.013 396.626C438.012 391.772 438.233 384.957 439.19 378.415C440.141 371.873 441.861 365.6 444.717 361.888C446.844 359.126 448.86 358.219 450.724 358.212C452.061 358.21 453.374 358.698 454.605 359.468C456.45 360.619 458.076 362.396 459.221 363.883C459.796 364.626 460.25 365.297 460.561 365.779C460.717 366.02 460.836 366.215 460.916 366.347C460.994 366.48 461.032 366.547 461.033 366.547L462.129 365.926C462.114 365.903 460.877 363.708 458.857 361.485C457.846 360.374 456.64 359.256 455.273 358.4C453.908 357.548 452.372 356.953 450.724 356.952C448.406 356.945 445.976 358.159 443.717 361.122C440.621 365.18 438.922 371.593 437.945 378.232C436.973 384.871 436.753 391.732 436.753 396.626C436.753 400.749 436.91 403.473 436.91 403.483L438.168 403.41Z" fill="#4870C0"/>
<path d="M435.218 407.632C435.22 407.622 436.858 385.976 436.858 364.344C436.858 355.395 436.578 346.448 435.782 339.022C435.384 335.309 434.856 331.976 434.164 329.203C433.469 326.428 432.624 324.213 431.514 322.708L430.502 323.456C431.444 324.722 432.274 326.817 432.942 329.507C434.962 337.586 435.602 350.965 435.6 364.344C435.6 375.129 435.19 385.931 434.781 394.033C434.576 398.084 434.372 401.461 434.218 403.825C434.065 406.189 433.962 407.533 433.962 407.537L435.218 407.632Z" fill="#4870C0"/>
<path d="M412.617 362.805C412.617 362.805 418.061 364.812 416.442 369.55C414.824 374.289 397.609 382.086 397.609 382.086C397.609 382.086 390.4 375.479 397.02 364.732C403.641 353.984 412.469 359.415 412.617 362.805Z" fill="#4870C0"/>
<path d="M397.609 382.086C397.609 382.086 394.221 378.981 394.222 373.565C394.224 371.081 394.938 368.11 397.02 364.732C399.949 359.979 403.309 358.389 406.16 358.389C409.753 358.389 412.534 360.915 412.617 362.805C412.617 362.805 416.748 364.328 416.742 367.853C416.742 368.374 416.65 368.94 416.442 369.55C414.824 374.289 397.609 382.086 397.609 382.086Z" fill="#8DAEE0"/>
<path d="M436.284 353.786C436.284 353.786 430.486 353.543 430.157 358.538C429.826 363.534 442.716 377.357 442.716 377.357C442.716 377.357 451.913 374.032 449.937 361.565C447.962 349.097 437.724 350.713 436.284 353.786Z" fill="#4870C0"/>
<path d="M442.716 377.357C442.716 377.357 441.548 376.105 439.922 374.216C439.597 373.837 439.252 373.432 438.894 373.007C438.233 372.219 437.529 371.361 436.817 370.464C436.404 369.943 435.988 369.407 435.576 368.864C434.297 367.177 433.066 365.424 432.101 363.792C430.93 361.815 430.152 360.016 430.15 358.733C430.15 358.667 430.153 358.603 430.157 358.538C430.457 353.986 435.297 353.784 436.154 353.784C436.237 353.784 436.284 353.786 436.284 353.786C436.848 352.584 438.757 351.605 440.993 351.605C444.47 351.605 448.736 353.976 449.937 361.565C450.129 362.771 450.216 363.891 450.216 364.929C450.218 371.403 446.888 374.767 444.665 376.292C443.552 377.056 442.716 377.357 442.716 377.357Z" fill="#8DAEE0"/>
<path d="M441.192 329.869C441.192 329.869 437.326 329.455 437.637 327.101C437.949 324.745 452.662 318.688 461.344 328.485C461.344 328.485 455.785 338.033 447.749 338.159C439.714 338.284 441.192 329.869 441.192 329.869Z" fill="#4870C0"/>
<path d="M447.573 338.16C444.594 338.16 442.958 336.964 442.074 335.478C441.784 334.99 441.574 334.471 441.425 333.952C441.158 333.025 441.085 332.104 441.085 331.371C441.084 330.481 441.192 329.869 441.192 329.869C441.192 329.869 437.622 329.486 437.62 327.368C437.62 327.283 437.625 327.193 437.637 327.101C437.82 325.724 442.925 323.081 448.868 323.081C453.09 323.081 457.737 324.414 461.344 328.485C461.344 328.485 455.785 338.033 447.749 338.159C447.69 338.16 447.632 338.16 447.573 338.16Z" fill="#8DAEE0"/>
<path d="M433.989 324.153C433.989 324.153 437.489 325.845 438.47 323.683C439.452 321.52 430.168 308.596 417.618 312.32C417.618 312.32 417.286 323.362 424.04 327.719C430.793 332.074 433.989 324.153 433.989 324.153Z" fill="#4870C0"/>
<path d="M427.916 329.026C426.788 329.026 425.496 328.657 424.04 327.719C422.733 326.876 421.693 325.784 420.862 324.569C417.784 320.062 417.616 313.877 417.616 312.569C417.616 312.408 417.618 312.32 417.618 312.32C419.184 311.856 420.696 311.651 422.145 311.651C431.756 311.651 438.54 320.692 438.541 323.292C438.541 323.445 438.518 323.577 438.47 323.683C438.088 324.525 437.322 324.783 436.53 324.783C435.292 324.783 433.989 324.153 433.989 324.153C433.989 324.153 433.698 324.874 433.106 325.762C432.856 326.138 432.552 326.544 432.192 326.936C431.194 328.029 429.774 329.026 427.916 329.026Z" fill="#8DAEE0"/>
<path d="M452.289 360.901C452.289 360.901 449.621 358.748 452.5 357.696C455.378 356.644 469.504 356.944 469.652 370.935C469.652 370.935 453.2 373.669 451.164 368.34C449.128 363.01 452.289 360.901 452.289 360.901Z" fill="#4870C0"/>
<path d="M461.002 371.636C456.685 371.636 452.169 370.971 451.164 368.34C450.666 367.039 450.48 365.929 450.48 364.996C450.482 362.107 452.289 360.901 452.289 360.901C452.289 360.901 451.161 359.989 451.164 359.064C451.165 358.567 451.493 358.064 452.5 357.696C453.082 357.484 454.125 357.327 455.42 357.327C460.522 357.327 469.534 359.773 469.652 370.935C469.652 370.935 465.432 371.636 461.002 371.636Z" fill="#8DAEE0"/>
<path d="M418.741 329.52C418.741 329.52 421.409 327.365 418.53 326.313C415.652 325.262 401.526 325.561 401.38 339.553C401.38 339.553 417.83 342.288 419.868 336.959C421.904 331.628 418.741 329.52 418.741 329.52Z" fill="#4870C0"/>
<path d="M410.029 340.255C405.6 340.255 401.38 339.553 401.38 339.553C401.497 328.391 410.509 325.944 415.612 325.944C416.906 325.944 417.948 326.102 418.53 326.314C419.537 326.681 419.865 327.184 419.866 327.681C419.87 328.608 418.741 329.52 418.741 329.52C418.741 329.52 420.548 330.724 420.55 333.613C420.55 333.789 420.544 333.972 420.53 334.16C420.492 334.675 420.398 335.237 420.232 335.849C420.136 336.203 420.014 336.572 419.868 336.959C418.862 339.589 414.346 340.255 410.029 340.255Z" fill="#8DAEE0"/>
<path d="M427.438 340.791C427.438 340.791 427.673 338.172 425.56 339.198C423.446 340.226 416.082 348.169 423.716 355.707C423.716 355.707 433.99 348.097 432.138 344.134C430.286 340.172 427.438 340.791 427.438 340.791Z" fill="#4870C0"/>
<path d="M423.716 355.707C422.277 354.287 421.372 352.852 420.862 351.452C420.49 350.428 420.33 349.422 420.33 348.456C420.328 343.722 424.136 339.891 425.56 339.198C425.906 339.031 426.19 338.96 426.422 338.96C427.346 338.96 427.446 340.083 427.446 340.569C427.446 340.704 427.438 340.791 427.438 340.791C427.438 340.791 427.6 340.755 427.87 340.755C428.737 340.755 430.726 341.115 432.138 344.134C432.292 344.463 432.362 344.817 432.361 345.189C432.358 346.945 430.788 349.116 428.985 351.028C428.657 351.376 428.321 351.716 427.985 352.043C425.841 354.132 423.716 355.707 423.716 355.707Z" fill="#8DAEE0"/>
<path d="M454.673 344.521C454.673 344.521 453.078 342.432 455.414 342.173C457.749 341.915 468.214 344.707 465.778 355.155C465.778 355.155 453.028 354.196 452.481 349.856C451.934 345.517 454.673 344.521 454.673 344.521Z" fill="#4870C0"/>
<path d="M465.778 355.155C465.778 355.155 453.028 354.196 452.481 349.856C452.432 349.467 452.409 349.104 452.409 348.767C452.405 345.345 454.673 344.521 454.673 344.521C454.673 344.521 454.141 343.822 454.142 343.184C454.144 342.717 454.429 342.283 455.414 342.173C455.51 342.162 455.62 342.157 455.742 342.157C458.284 342.157 466.145 344.532 466.144 352.165C466.144 353.084 466.029 354.079 465.778 355.155Z" fill="#8DAEE0"/>
<path d="M413.568 442.232H454.788L460.266 402.148H408.088L413.568 442.232Z" fill="#1D2A30"/>
<path d="M454.788 442.232H413.568L408.088 402.148H460.266L459.857 405.14L459.812 405.473L454.788 442.232Z" fill="#45555C"/>
<path d="M465.433 398.9V402.707C465.433 405.256 463.366 407.321 460.818 407.321H407.02C404.472 407.321 402.406 405.256 402.406 402.707V398.9H465.433Z" fill="#1D2A30"/>
<path d="M461.221 109.104H450.354C449.621 135.396 440.968 275.209 340.941 353.663C252.048 423.369 159.048 431.41 104.328 431.41C94.7409 431.41 86.3409 431.171 79.3276 430.957C74.5543 430.822 70.4209 430.703 67.2609 430.703V377.369C71.2076 377.369 75.7009 377.504 80.9009 377.649C125.648 378.957 218.754 381.703 308.034 311.691C387.141 249.649 395.981 132.449 396.968 109.104H386.274L423.754 58.396L461.221 109.104Z" fill="#4870C0"/>
<path d="M104.328 431.41C95.0009 431.41 86.7969 431.183 79.9009 430.975C83.0689 428.205 85.8316 425.1 88.2289 421.76C90.7956 418.183 92.9489 414.34 94.7476 410.34C125.124 409.022 152.833 406.048 178.338 401.259C181.661 410.887 184.345 419.139 185.92 424.068C154.388 430.116 126.277 431.41 104.328 431.41ZM73.6756 430.803C71.2529 430.743 69.0929 430.703 67.2609 430.703V428.045L70.1569 429.5C70.1569 429.5 75.2476 421.653 81.8196 410.797C84.6516 410.719 87.4636 410.628 90.2503 410.522C89.6809 411.695 89.0796 412.848 88.4423 413.979C84.7569 420.534 79.9463 426.329 73.6756 430.803ZM200.173 421.049C199.714 419.189 197.466 410.121 194.192 397.983C249.974 385.364 294.818 363.236 333.808 329.769C416.67 258.631 426.99 129.888 428.025 112.332H450.242C449.849 121.899 448.602 139.888 444.665 162.452C440.488 186.388 433.282 215.48 420.862 245.125C409.442 272.383 393.612 300.111 371.668 324.746C368.173 328.671 364.528 332.51 360.716 336.263C360.604 336.373 360.489 336.485 360.377 336.596C356.384 340.51 352.221 344.317 347.866 348.012C345.61 349.927 343.297 351.815 340.941 353.663C326.9 364.673 312.75 374.148 298.672 382.293C290.706 386.901 282.762 391.084 274.869 394.88C274.04 395.279 273.217 395.671 272.388 396.061C272.152 396.173 271.916 396.284 271.68 396.395C246.994 407.964 222.848 415.791 200.173 421.049ZM461.221 109.104H451.824C451.457 108.633 450.886 108.332 450.245 108.332H435.31L447.301 104.997L423.754 58.396L461.221 109.104Z" fill="#395EB4"/>
<path d="M396.908 112.332H450.245C451.349 112.332 452.245 111.436 452.245 110.332C452.245 109.228 451.349 108.332 450.245 108.332H396.908C395.804 108.332 394.908 109.228 394.908 110.332C394.908 111.436 395.804 112.332 396.908 112.332Z" fill="#4870C0"/>
<path d="M450.245 112.332H396.908C395.804 112.332 394.908 111.436 394.908 110.332C394.908 109.228 395.804 108.332 396.908 108.332H417.137L420.476 110.724C420.829 110.977 421.236 111.098 421.64 111.098C422.262 111.098 422.876 110.808 423.266 110.262C423.52 109.909 423.642 109.5 423.641 109.094C423.64 108.833 423.589 108.573 423.488 108.332H450.245C451.349 108.332 452.245 109.228 452.245 110.332C452.245 111.436 451.349 112.332 450.245 112.332Z" fill="#8DAEE0"/>
<path d="M107.193 69.6252H68.8889C62.3756 69.6252 57.0942 74.9052 57.0942 81.4186V114.756C57.0942 121.269 62.3756 126.551 68.8889 126.551H80.0729L80.0369 139.744L88.0062 126.551H107.194C113.708 126.551 118.989 121.269 118.989 114.756V81.4186C118.989 74.9052 113.708 69.6252 107.193 69.6252Z" fill="#4870C0"/>
<path d="M80.0369 139.744L80.0729 126.551H68.8889C62.3756 126.551 57.0942 121.269 57.0942 114.756V81.4186C57.0942 74.9052 62.3756 69.6252 68.8889 69.6252H107.193C113.708 69.6252 118.989 74.9052 118.989 81.4186V114.756C118.989 121.269 113.708 126.551 107.194 126.551H88.0062L80.0369 139.744Z" fill="#C7D9F2"/>
<path d="M107.053 97.9439C107.053 108.443 98.5409 116.955 88.0423 116.955C77.5423 116.955 69.0303 108.443 69.0303 97.9439C69.0303 87.4439 77.5423 78.9332 88.0423 78.9332C98.5409 78.9332 107.053 87.4439 107.053 97.9439Z" fill="#4870C0"/>
<path d="M86.0463 106.436C85.5329 106.436 85.0463 106.21 84.7143 105.818L77.2556 97.0305C76.6303 96.2945 76.7209 95.1918 77.4569 94.5678C78.1916 93.9451 79.2943 94.0331 79.9196 94.7705L86.0463 101.989L96.1636 90.0678C96.7889 89.3305 97.8929 89.2425 98.6263 89.8665C99.3623 90.4905 99.4529 91.5931 98.8276 92.3278L87.3783 105.818C87.0463 106.21 86.5596 106.436 86.0463 106.436Z" fill="white"/>
<path d="M150.71 142.942L149.616 145.223C149.616 145.223 144.249 149.961 146.48 153.083L150.825 155.323L156.617 152.129C157.51 151.637 158.134 150.77 158.32 149.768L159.094 145.551C159.414 143.804 158.337 142.104 156.62 141.651L154.642 141.128C153.066 140.712 151.416 141.472 150.71 142.942Z" fill="#F47272"/>
<path d="M144.484 155.207L145.704 151.771L151.748 154.872L150.33 158.021L144.484 155.207Z" fill="#4870C0"/>
<path d="M150.817 156.94L149.653 156.371L150.597 154.281L151.748 154.872L150.817 156.94ZM146.058 154.613L144.896 154.045L145.704 151.771L147.033 152.453L146.058 154.613Z" fill="#C7D9F2"/>
<path d="M151.234 157.143C148.981 162.876 146.501 168.449 143.754 173.956C142.368 176.703 140.954 179.464 139.368 182.184C138.981 182.863 138.568 183.543 138.141 184.236C137.728 184.916 137.314 185.609 136.821 186.303L136.114 187.357L135.288 188.449L134.874 188.996C134.688 189.223 134.434 189.476 134.208 189.717C133.741 190.236 133.314 190.556 132.848 190.943C131.074 192.357 129.434 193.223 127.821 193.996C126.208 194.756 124.634 195.383 123.074 195.929C119.954 197.036 116.861 197.876 113.794 198.609C111.394 199.184 109.021 199.677 106.634 200.117C103.968 200.609 101.288 201.023 98.5676 201.357C97.4609 201.504 96.3543 201.636 95.2343 201.756L93.8743 189.529C99.5809 188.771 105.501 187.836 111.154 186.691C113.981 186.131 116.768 185.464 119.408 184.717C120.728 184.329 121.994 183.903 123.154 183.437C124.301 182.997 125.394 182.464 126.021 182.036C126.154 181.943 126.341 181.836 126.381 181.797L126.514 181.703L126.808 181.369L127.408 180.691L128.034 179.903C128.461 179.384 128.901 178.836 129.328 178.263C129.754 177.703 130.181 177.131 130.608 176.529C132.301 174.156 134.008 171.717 135.674 169.236C139.034 164.289 144.688 153.943 144.688 153.943L151.234 157.143Z" fill="#1D2A30"/>
<path d="M102.157 200.867C100.66 198.495 99.2729 196.471 98.0782 194.815C99.8649 195.431 103.262 196.919 106.634 200.117C105.148 200.392 103.656 200.641 102.157 200.867Z" fill="#161C1E"/>
<path d="M53.4323 212.379C58.5769 219.836 62.2876 226.717 66.0769 234.448C68.8529 240.121 71.2663 245.645 73.3396 250.711C78.2143 262.607 81.2196 271.969 82.6676 274.983C88.3143 272.423 110.241 262.472 122.65 256.836C112.153 208.575 92.9516 189.879 92.9516 189.879C92.9516 189.879 88.0942 191.012 82.7796 193.077C82.0836 193.344 81.3822 193.635 80.6769 193.943C76.1302 195.909 69.1209 199.94 64.4009 202.816C63.4156 203.419 62.4316 204.055 61.4823 204.691C56.6907 207.909 53.4323 212.379 53.4323 212.379Z" fill="#4870C0"/>
<path d="M96.0743 227.464C94.445 226.224 92.8143 225.001 91.1956 223.801C92.461 224.624 94.461 226.208 96.0743 227.464ZM97.0463 225.272C96.665 223.669 96.2223 222.009 96.0943 220.992C96.4943 222.617 96.809 224.075 97.0463 225.272ZM91.1863 223.795C76.5076 212.907 62.9823 204.02 62.741 203.861C63.289 203.507 63.8436 203.157 64.3983 202.819C64.321 203.109 64.2836 203.415 64.3143 203.716C65.869 207.865 75.001 208.943 78.793 209.173C79.865 206.015 80.621 202.968 80.621 202.968C80.621 202.968 83.9063 203.821 86.6143 205.581C88.113 203.04 82.6303 196.253 81.4223 195.805C80.069 195.389 78.9143 195.225 78.0303 195.176C78.7823 194.805 79.501 194.464 80.173 194.164C85.237 196.407 88.9636 201.847 91.645 207.761C93.6943 212.287 95.1316 217.091 96.0836 220.951C91.5303 213.737 85.4036 207.391 83.125 204.851L81.565 205.611C84.241 208.949 87.4316 216.565 91.1863 223.795ZM62.725 203.872C62.7276 203.869 62.7316 203.868 62.7356 203.865C62.7356 203.865 62.7356 203.865 62.7343 203.867C62.7316 203.868 62.7276 203.871 62.725 203.872ZM80.617 202.968C80.6183 202.967 80.6196 202.967 80.621 202.965C80.621 202.967 80.621 202.967 80.621 202.968C80.6196 202.968 80.6183 202.968 80.617 202.968Z" fill="#C7D9F2"/>
<path d="M54.9819 434.728L62.6743 437.3L70.8143 420.214L63.1223 417.642L54.9819 434.728Z" fill="#F47272"/>
<path d="M192.256 437.246L199.981 434.776L196.453 416.183L188.726 418.653L192.256 437.246Z" fill="#F47272"/>
<path d="M112.038 251.077C112.038 251.077 113.301 334 110.498 352.817C107.696 371.634 70.1569 429.5 70.1569 429.5L56.5828 422.685C56.5828 422.685 86.5702 360.671 87.3956 352.617C88.2209 344.564 80.4236 278.649 80.4236 278.649L112.038 251.077Z" fill="#1D2A30"/>
<path d="M59.9209 424.361L56.5813 422.688C56.5813 422.688 56.5818 422.686 56.5828 422.685L59.9209 424.361Z" fill="white"/>
<path d="M87.1263 343.755C86.4996 334.701 85.0849 320.699 83.7169 308.001C82.9516 300.811 82.1916 294.048 81.5969 288.829L81.6009 288.828C83.2489 303.285 86.1503 329.583 87.1263 343.755Z" fill="#F0F0F0"/>
<path d="M70.1569 429.493L60.9582 424.881L59.9209 424.361L56.5828 422.685C56.8042 422.226 86.5796 360.637 87.3996 352.615C87.5422 351.205 87.4222 348.033 87.1262 343.755C86.1502 329.583 83.2489 303.285 81.6009 288.828L100.945 282.855C99.2756 296.613 98.0476 312.593 98.0462 329.832C98.0462 337.836 98.3116 346.11 98.9209 354.56C99.1436 357.649 99.2849 361.104 99.2849 364.801C99.2849 364.831 99.2849 364.86 99.2849 364.889C99.2862 370.26 98.9809 376.14 98.2049 382.163C86.3036 404.603 70.1569 429.493 70.1569 429.493ZM103.081 372.584C103.222 369.903 103.285 367.297 103.285 364.801C103.285 361.001 103.141 357.455 102.91 354.272C102.309 345.926 102.046 337.748 102.046 329.832C102.046 312.037 103.372 295.577 105.136 281.561L105.944 281.312C107.941 283.592 110.082 286.049 112.318 288.632C112.344 313.187 112.025 342.545 110.49 352.817C109.794 357.492 106.956 364.576 103.081 372.584Z" fill="#304047"/>
<path d="M117.22 247.432C117.22 247.432 154.978 299.252 167.322 319.601C180.84 341.886 200.26 421.401 200.26 421.401L187.46 428.944C187.46 428.944 165.186 356.903 150.376 335.66C133.812 311.907 92.3169 265.948 92.3169 265.948L117.22 247.432Z" fill="#1D2A30"/>
<path d="M187.46 428.944C187.46 428.944 186.908 427.159 185.92 424.068C184.345 419.138 181.661 410.886 178.338 401.259C170.509 378.568 159.137 348.225 150.376 335.66C141.46 322.875 125.321 303.655 112.318 288.632C110.082 286.049 107.941 283.592 105.944 281.312L109.901 280.089L110.434 260.571L122.648 274.983L134.656 271.68C146.266 287.997 160.582 308.491 167.322 319.601C180.84 341.886 200.26 421.401 200.26 421.401L197.726 422.893L190.356 427.237L187.46 428.944Z" fill="#304047"/>
<path d="M200.778 432.833L190.889 432.856C190.557 432.857 190.269 433.086 190.194 433.412L188.536 440.625C188.364 441.373 188.946 442.08 189.713 442.065C192.894 442.004 195.218 441.81 199.225 441.801C201.69 441.797 209.124 442.036 212.529 442.028C215.858 442.021 216.405 438.652 215.013 438.352C208.773 436.998 204.078 435.124 202.092 433.329C201.733 433.005 201.264 432.832 200.778 432.833Z" fill="#1D2A30"/>
<path d="M83.125 204.851C85.405 207.392 91.5356 213.744 96.0903 220.961C96.3116 222.788 97.5863 226.765 97.6543 228.671C96.0423 227.485 92.9196 224.92 91.1876 223.796C87.4329 216.567 84.2409 208.949 81.5649 205.611L83.125 204.851Z" fill="#4870C0"/>
<path d="M84.0809 207.287L83.8196 202.947L80.621 202.968L79.153 205.095L84.0809 207.287Z" fill="#4870C0"/>
<path d="M80.5009 203.023C74.4609 205.876 69.2876 205.276 65.2476 203.649C66.6342 200.316 65.0476 195.357 62.8076 190.889C61.4876 188.223 59.9276 185.717 58.6476 183.863L72.8476 188.104C73.3142 190.876 74.0476 193.464 75.7409 194.917C76.9009 195.943 78.5409 196.423 80.8476 196.023C82.6742 197.369 85.1276 200.837 80.5009 203.023Z" fill="#F47272"/>
<path d="M80.6209 202.968C80.6209 202.968 79.8649 206.015 78.7929 209.173C75.0009 208.943 65.8689 207.865 64.3142 203.716C64.1782 202.363 65.4062 200.944 65.4062 200.944C65.4062 200.944 71.8836 203.173 80.6209 202.968Z" fill="white"/>
<path d="M80.6209 202.968C80.6209 202.968 83.9062 203.821 86.6143 205.581C88.1129 203.04 82.6303 196.253 81.4223 195.805C78.2103 194.815 76.1129 195.255 76.1129 195.255C76.1129 195.255 80.0663 198.248 80.6209 202.968Z" fill="white"/>
<path d="M75.7409 194.917C70.7676 194.756 66.3676 193.223 62.8076 190.889C61.4876 188.223 59.9276 185.717 58.6476 183.863L72.8476 188.104C73.3142 190.876 74.0476 193.464 75.7409 194.917Z" fill="#CD5A58"/>
<path d="M136.461 271.184L122.648 274.983L110.434 260.571L109.901 280.089L79.1543 289.583C79.1543 289.583 79.9143 277.223 77.0876 265.117C77.0209 264.837 76.9542 264.556 76.8609 264.249C75.3409 258.677 70.5809 248.436 65.6209 238.529C58.9676 225.209 51.9677 212.489 51.9677 212.489C51.9677 212.489 56.2475 207.383 62.7409 203.863C62.7409 203.863 80.6076 215.583 97.6476 228.677C97.6476 228.677 93.6342 200.117 80.1676 194.156C80.1676 194.156 87.0876 190.303 93.9009 189.476C93.9009 189.476 113.888 211.744 120.488 247.744L136.461 271.184Z" fill="#1D2A30"/>
<path d="M62.7356 203.865C62.7369 203.861 62.7383 203.859 62.7383 203.859C62.7383 203.859 62.7383 203.86 62.7409 203.861C62.7396 203.863 62.7369 203.864 62.7356 203.865Z" fill="white"/>
<path d="M97.6476 228.677C80.6076 215.583 62.7409 203.863 62.7409 203.863C62.7396 203.864 62.7369 203.865 62.7343 203.867C62.7356 203.865 62.7356 203.865 62.7356 203.865C62.7369 203.864 62.7396 203.863 62.7409 203.861C62.9823 204.02 76.5076 212.907 91.1863 223.795C91.1876 223.795 91.1876 223.795 91.1876 223.796C91.1903 223.797 91.1929 223.799 91.1956 223.801C92.8142 225.001 94.4449 226.224 96.0743 227.464C96.6689 227.927 97.2116 228.345 97.6463 228.665C97.6476 228.673 97.6476 228.677 97.6476 228.677Z" fill="#CDDEF3"/>
<path d="M97.6463 228.665C97.2116 228.345 96.669 227.927 96.0743 227.464C96.5983 227.863 97.1223 228.263 97.6463 228.664C97.6463 228.665 97.6463 228.665 97.6463 228.665ZM91.1956 223.801C91.1929 223.799 91.1903 223.797 91.1876 223.796C91.1876 223.795 91.1876 223.795 91.1863 223.795C91.1903 223.796 91.1929 223.799 91.1956 223.801Z" fill="#537BC6"/>
<path d="M80.173 194.164C80.173 194.162 80.1703 194.162 80.1703 194.161C80.1716 194.161 80.1743 194.161 80.1769 194.16C80.1783 194.161 80.1783 194.161 80.1783 194.161C80.1769 194.161 80.1756 194.162 80.173 194.164Z" fill="white"/>
<path d="M91.645 207.761C88.9636 201.847 85.237 196.407 80.173 194.164C80.1756 194.163 80.177 194.161 80.1783 194.161C85.241 196.408 88.9663 201.848 91.645 207.761Z" fill="#CDDEF3"/>
<path d="M108.225 240.467C107.529 239.808 106.82 239.181 106.1 238.583C106.177 238.492 106.254 238.403 106.33 238.315L108.225 240.467ZM99.0383 233.709C86.9369 226.807 74.6889 226.197 74.6889 226.197L75.7676 215.357L62.1383 219.212C60.1556 210.551 62.6383 204.111 62.7343 203.867C62.7369 203.865 62.7396 203.864 62.7409 203.863C62.7409 203.863 80.6076 215.583 97.6476 228.677C97.6476 228.677 97.6476 228.673 97.6463 228.665C97.6463 228.665 97.6463 228.665 97.6463 228.664C97.6476 228.667 97.6516 228.669 97.6543 228.671C97.6543 228.671 96.0876 217.564 91.6449 207.761C88.9663 201.848 85.2409 196.408 80.1783 194.161C80.1783 194.161 80.1783 194.161 80.1769 194.16C80.6663 194.051 81.2076 194.001 81.7863 194.001C87.2249 194.001 95.9756 198.371 95.9756 198.371L92.8463 206.664L101.929 209.715L100.878 232.129L101.302 232.609L100.72 233.004L100.85 233.193C100.238 233.372 99.6343 233.544 99.0383 233.709Z" fill="#304047"/>
<path d="M74.9969 164.009C77.1023 166.487 79.0876 172.561 74.2916 172.339C69.4969 172.117 71.3796 159.753 74.9969 164.009Z" fill="#1D2A30"/>
<path d="M56.0485 176.559C58.7089 184.085 59.8836 188.629 64.8756 191.417C72.3809 195.611 80.8263 189.297 80.4662 181.105C80.1423 173.731 75.8449 162.663 67.4809 161.833C59.2396 161.017 53.3876 169.033 56.0485 176.559Z" fill="#F47272"/>
<path d="M59.5089 170.395L56.0464 162.193C56.0464 162.193 47.0437 165.232 49.3183 169.535C45.4964 173.973 50.9579 180.531 59.0089 181.477C61.3649 177.125 58.0604 170.437 58.0604 170.437C58.5167 170.445 59.0063 170.427 59.5089 170.395Z" fill="#1D2A30"/>
<path d="M54.9172 183.791C56.0937 185.588 57.9917 186.664 59.7276 186.984C62.3383 187.467 63.4263 185.059 62.5196 182.708C61.7036 180.591 59.3623 177.791 56.8287 178.373C54.3333 178.948 53.5724 181.736 54.9172 183.791Z" fill="#F47272"/>
<path d="M68.2703 175.259C68.4489 175.883 68.9249 176.291 69.3316 176.169C69.7396 176.049 69.9249 175.445 69.7463 174.821C69.5676 174.197 69.0929 173.789 68.6849 173.909C68.2783 174.031 68.0929 174.635 68.2703 175.259Z" fill="#1D2A30"/>
<path d="M75.3156 173.169C75.4943 173.793 75.969 174.201 76.377 174.08C76.7836 173.96 76.969 173.356 76.7916 172.732C76.613 172.108 76.1383 171.7 75.7303 171.82C75.3236 171.941 75.137 172.545 75.3156 173.169Z" fill="#1D2A30"/>
<path d="M73.1649 174.144C73.1649 174.144 75.6089 177.18 77.6636 178.395C76.8542 179.692 74.8449 179.776 74.8449 179.776L73.1649 174.144Z" fill="#F03E4C"/>
<path d="M72.1236 183.28C72.3916 183.26 72.6716 183.221 72.9622 183.16L73.1129 182.935L72.8876 182.787C70.0929 183.372 68.4023 181.699 68.3836 181.681H68.1156L68.1129 181.952C68.1796 182.02 69.6396 183.464 72.1236 183.28Z" fill="#1D2A30"/>
<path d="M64.7836 172.664C64.901 172.727 65.0476 172.728 65.1703 172.653C66.629 171.763 67.909 172.343 67.9223 172.349C68.113 172.439 68.341 172.357 68.433 172.167C68.5236 171.977 68.441 171.751 68.2516 171.661C68.185 171.629 66.581 170.901 64.7716 172.007C64.5903 172.117 64.533 172.352 64.6436 172.529L64.7836 172.664Z" fill="#1D2A30"/>
<path d="M77.8156 168.231L77.8543 168.013C77.8303 167.803 77.6423 167.651 77.4329 167.675C75.3409 167.903 74.5543 169.471 74.5103 169.537C74.4169 169.725 74.4929 169.956 74.6809 170.052C74.8676 170.147 75.0943 170.073 75.189 169.887C75.2196 169.82 75.8409 168.619 77.5196 168.436C77.6516 168.421 77.7596 168.34 77.8156 168.231Z" fill="#1D2A30"/>
<path d="M56.921 175.079C56.921 175.079 61.245 171.041 62.3623 167.052C62.3623 167.052 67.5476 166.301 69.3076 167.797C69.3076 167.797 70.3543 165.756 68.397 164.504C68.397 164.504 72.2023 163.765 73.9023 165.857C73.9023 165.857 75.3943 164.521 74.225 162.043C74.225 162.043 76.0303 161.972 77.593 164.299C77.593 164.299 78.0623 154.627 64.3396 157.703C64.3396 157.703 65.165 156.855 67.1103 155.933C67.1103 155.933 56.7011 156.1 51.0334 162.367C45.3647 168.633 49.3183 174.399 56.921 175.079Z" fill="#1D2A30"/>
<path d="M64.6969 432.833L54.8073 432.856C54.4761 432.857 54.187 433.086 54.1125 433.41L52.4542 440.625C52.2828 441.373 52.8646 442.08 53.6308 442.065C56.8125 442.004 59.1356 441.81 63.1436 441.803C64.3702 441.8 66.8249 441.857 69.4009 441.915C72.0062 441.973 74.7356 442.032 76.4476 442.028C79.7769 442.02 80.3222 438.652 78.9316 438.352C72.6916 436.998 67.9969 435.124 66.0102 433.329C65.6516 433.005 65.1822 432.832 64.6969 432.833Z" fill="#1D2A30"/>
<path d="M422.805 107.472L307.146 24.6133C300.574 19.9053 292.692 17.3733 284.606 17.3733H230.346C223.718 17.3733 217.229 19.2786 211.653 22.8639C206.037 26.4733 201.586 31.6333 198.84 37.7173L110.086 234.279L109.988 234.549C109.958 234.661 98.0503 276.155 98.0463 329.832C98.0463 337.836 98.3116 346.11 98.9209 354.56C99.1436 357.649 99.2849 361.104 99.2849 364.801C99.2956 379.853 96.9156 398.928 88.4423 413.979C84.2076 421.51 78.4876 428.04 70.7756 432.714C63.0596 437.381 53.3161 440.226 40.886 440.231C39.1917 440.231 37.4475 440.177 35.6521 440.069C34.5495 440.001 33.6016 440.841 33.5344 441.944C33.4672 443.047 34.3068 443.995 35.4095 444.061C37.2823 444.174 39.1079 444.231 40.886 444.231C53.9235 444.234 64.4636 441.216 72.8476 436.134C79.1356 432.326 84.1983 427.374 88.2289 421.76C94.2783 413.332 98.0249 403.426 100.278 393.472C102.529 383.515 103.285 373.498 103.285 364.801C103.285 361.001 103.141 357.455 102.91 354.272C102.309 345.926 102.046 337.748 102.046 329.832C102.046 303.288 104.997 279.715 107.948 262.792C109.424 254.331 110.898 247.532 112.002 242.856C112.554 240.517 113.014 238.711 113.334 237.491C113.494 236.881 113.62 236.417 113.705 236.109C113.748 235.955 113.78 235.839 113.801 235.763L113.832 235.653L111.909 235.101L113.733 235.924L202.485 39.3626C204.914 33.9826 208.85 29.4213 213.816 26.228C218.748 23.0586 224.485 21.3733 230.346 21.3733H284.606C291.856 21.3733 298.924 23.6439 304.817 27.8653L420.476 110.724C421.374 111.368 422.624 111.161 423.266 110.263C423.91 109.365 423.704 108.116 422.805 107.472Z" fill="#4870C0"/>
<path d="M40.912 444.231C40.9043 444.231 40.8943 444.231 40.886 444.231C39.1079 444.231 37.2823 444.174 35.4095 444.061C34.35 443.997 33.5333 443.119 33.5308 442.072C33.5303 442.029 33.5319 441.986 33.5344 441.944C33.5989 440.883 34.4797 440.065 35.5287 440.065C35.5693 440.065 35.6104 440.067 35.6521 440.069C37.4475 440.177 39.1917 440.231 40.886 440.231C53.3161 440.226 63.0596 437.381 70.7756 432.714C78.4876 428.04 84.2076 421.51 88.4423 413.979C96.8996 398.957 99.2863 379.928 99.2849 364.889C99.2849 364.86 99.2849 364.831 99.2849 364.801C99.2849 361.104 99.1436 357.649 98.9209 354.56C98.3116 346.11 98.0463 337.836 98.0463 329.832C98.0489 284.743 106.453 248.251 109.158 237.661L111.906 238.357C112.114 238.409 112.325 238.436 112.536 238.436C112.728 238.436 112.918 238.415 113.105 238.372C112.809 239.524 112.434 241.028 112.002 242.856C110.898 247.532 109.424 254.331 107.948 262.792C104.997 279.715 102.046 303.288 102.046 329.832C102.046 337.748 102.309 345.926 102.91 354.272C103.141 357.455 103.285 361.001 103.285 364.801C103.285 373.498 102.529 383.515 100.278 393.472C98.9809 399.201 97.1889 404.915 94.7476 410.34C92.9489 414.34 90.7956 418.183 88.2289 421.76C85.8316 425.1 83.0689 428.205 79.9009 430.974C77.7423 432.861 75.3956 434.592 72.8476 436.134C64.4676 441.214 53.938 444.231 40.912 444.231Z" fill="#8DAEE0"/>
<path d="M112.318 229.336L198.84 37.7173C201.586 31.6333 206.037 26.4732 211.653 22.8639C217.229 19.2786 223.718 17.3732 230.346 17.3732H241.212L240.526 21.3732H240.516C236.878 19.5546 232.774 18.5306 228.433 18.5306C215.094 18.5306 204.012 28.1879 201.794 40.8906L116.928 228.848C116.64 228.736 116.329 228.675 116.005 228.675C115.844 228.675 115.68 228.689 115.513 228.721L112.318 229.336ZM421.639 111.099C421.236 111.099 420.829 110.977 420.476 110.724L305.813 28.5786C300.856 22.4506 293.274 18.5306 284.777 18.5306C280.434 18.5306 276.33 19.5546 272.694 21.3732H272.682L271.997 17.3732H284.606C292.692 17.3732 300.574 19.9053 307.146 24.6133L422.805 107.472C423.349 107.861 423.639 108.473 423.641 109.095C423.642 109.5 423.52 109.909 423.266 110.263C422.876 110.808 422.262 111.099 421.639 111.099Z" fill="#8DAEE0"/>
<path d="M76.861 264.249C75.341 258.677 70.581 248.436 65.621 238.529C67.6343 232.889 69.5676 228.677 69.5676 228.677C69.5676 228.677 74.101 232.411 77.661 237.504C77.661 237.504 86.6823 237.127 99.0383 233.709C100.316 234.437 101.592 235.237 102.852 236.113L104.545 238.583L105.502 238.095C105.701 238.255 105.901 238.417 106.1 238.583C100.578 244.995 88.1223 258.539 76.861 264.249ZM106.33 238.315L105.938 237.871L106.588 237.539L106.18 236.908L107.288 237.188C107 237.529 106.681 237.905 106.33 238.315Z" fill="#161C1E"/>
<path d="M106.1 238.583C105.901 238.417 105.701 238.255 105.502 238.095L105.938 237.871L106.33 238.315C106.254 238.403 106.177 238.492 106.1 238.583ZM102.852 236.113C101.592 235.237 100.316 234.437 99.0383 233.709C99.6343 233.544 100.238 233.372 100.85 233.193L102.852 236.113Z" fill="#212A2D"/>
<path d="M103.393 232.596L103.297 232.447C103.309 232.443 103.324 232.437 103.337 232.433L103.393 232.596Z" fill="#161C1E"/>
<path d="M110.993 229.591C110.993 229.591 103.732 228.212 103.178 231.983L104.781 236.553L111.906 238.357C112.482 238.503 113.09 238.445 113.628 238.193L116.746 236.725C117.556 236.345 118.108 235.571 118.205 234.681L118.548 231.517C118.734 229.801 117.208 228.396 115.513 228.721L110.993 229.591Z" fill="#F47272"/>
<path d="M104.545 238.583L106.588 237.539L102.764 231.621L100.72 233.004L104.545 238.583Z" fill="#4870C0"/>
<path d="M104.545 238.583L100.72 233.004L102.764 231.621L106.588 237.539L105.938 237.871L105.502 238.095L104.545 238.583Z" fill="#C7D9F2"/>
<path d="M51.9614 212.491C49.7729 216.476 62.8343 251.08 68.0009 255.247C74.4196 260.419 106.566 239.528 106.566 239.528L100.878 232.129C100.878 232.129 75.5223 241.219 74.4703 240.467C73.4183 239.712 69.0089 227.115 69.0089 227.115C69.0089 227.115 64.5743 220.288 59.8556 216.76C55.1391 213.233 51.9614 212.491 51.9614 212.491Z" fill="#1D2A30"/>
<path d="M244.425 50.3185C241.804 50.3185 239.678 48.1931 239.678 45.5718C239.678 42.9491 241.804 40.8238 244.425 40.8238C247.048 40.8238 249.172 42.9491 249.172 45.5718C249.172 48.1931 247.048 50.3185 244.425 50.3185ZM228.433 34.3252C225.81 34.3252 223.685 32.1998 223.685 29.5785C223.685 26.9558 225.81 24.8305 228.433 24.8305C231.053 24.8305 233.18 26.9558 233.18 29.5785C233.18 32.1998 231.053 34.3252 228.433 34.3252ZM228.433 66.3105C225.81 66.3105 223.685 64.1851 223.685 61.5638C223.685 58.9425 225.81 56.8172 228.433 56.8172C231.053 56.8172 233.18 58.9425 233.18 61.5638C233.18 64.1851 231.053 66.3105 228.433 66.3105ZM212.438 50.3185C209.817 50.3185 207.692 48.1931 207.692 45.5718C207.692 42.9491 209.817 40.8238 212.438 40.8238C215.061 40.8238 217.186 42.9491 217.186 45.5718C217.186 48.1931 215.061 50.3185 212.438 50.3185ZM228.433 18.5305C213.498 18.5305 201.392 30.6371 201.392 45.5718C201.392 60.5051 213.498 72.6118 228.433 72.6118C243.366 72.6118 255.473 60.5051 255.473 45.5718C255.473 30.6371 243.366 18.5305 228.433 18.5305Z" fill="#1D2A30"/>
<path d="M228.433 72.6118C213.498 72.6118 201.392 60.5051 201.392 45.5718C201.392 30.6371 213.498 18.5305 228.433 18.5305C232.78 18.5305 236.886 19.5558 240.526 21.3785L240.468 21.7185C240.376 22.2545 240.249 22.7798 240.09 23.2878C236.604 21.4572 232.637 20.4198 228.433 20.4198C214.564 20.4198 203.281 31.7025 203.281 45.5718C203.281 59.4398 214.564 70.7225 228.433 70.7225C237.409 70.7225 245.301 65.9958 249.753 58.9011H251.964C251.062 60.4891 250.005 61.9771 248.813 63.3425C248.702 63.4691 248.592 63.5945 248.48 63.7185C243.532 69.1798 236.382 72.6118 228.433 72.6118Z" fill="#758288"/>
<path d="M228.433 69.0999C215.458 69.0999 204.902 58.5452 204.902 45.5719C204.902 32.5972 215.458 22.0412 228.433 22.0412C232.432 22.0412 236.2 23.0439 239.501 24.8119C238.185 27.6305 235.836 29.8279 232.973 30.9665C233.106 30.5279 233.18 30.0612 233.18 29.5785C233.18 26.9559 231.053 24.8305 228.433 24.8305C225.81 24.8305 223.685 26.9559 223.685 29.5785C223.685 30.6199 224.021 31.5839 224.59 32.3665C220.058 33.6559 216.385 37.1305 215.044 41.6012C214.296 41.1092 213.401 40.8239 212.438 40.8239C209.817 40.8239 207.692 42.9492 207.692 45.5719C207.692 48.1932 209.817 50.3185 212.438 50.3185C213.44 50.3185 214.366 50.0092 215.132 49.4812C216.553 53.9359 220.217 57.3879 224.797 58.5119C224.102 59.3372 223.685 60.4025 223.685 61.5639C223.685 64.1852 225.81 66.3105 228.433 66.3105C231.053 66.3105 233.18 64.1852 233.18 61.5639C233.18 60.5772 232.878 59.6612 232.362 58.9012H247.812C243.564 65.0572 236.461 69.0999 228.433 69.0999Z" fill="#758288"/>
<path d="M228.433 70.7227C214.564 70.7227 203.281 59.44 203.281 45.572C203.281 31.7026 214.564 20.42 228.433 20.42C232.637 20.42 236.604 21.4573 240.09 23.288C239.928 23.8133 239.73 24.3213 239.501 24.812C236.2 23.044 232.432 22.0413 228.433 22.0413C215.458 22.0413 204.902 32.5973 204.902 45.572C204.902 58.5453 215.458 69.1 228.433 69.1C236.461 69.1 243.564 65.0573 247.812 58.9013H249.753C245.301 65.996 237.409 70.7227 228.433 70.7227Z" fill="#59656A"/>
<path d="M235.868 45.5718C235.868 49.6771 232.538 53.0051 228.433 53.0051C224.326 53.0051 220.997 49.6771 220.997 45.5718C220.997 41.4651 224.326 38.1358 228.433 38.1358C232.538 38.1358 235.868 41.4651 235.868 45.5718Z" fill="#1D2A30"/>
<path d="M300.77 50.3185C298.149 50.3185 296.022 48.1931 296.022 45.5718C296.022 42.9491 298.149 40.8238 300.77 40.8238C303.392 40.8238 305.517 42.9491 305.517 45.5718C305.517 48.1931 303.392 50.3185 300.77 50.3185ZM284.777 34.3252C282.156 34.3252 280.03 32.1998 280.03 29.5785C280.03 26.9558 282.156 24.8305 284.777 24.8305C287.398 24.8305 289.524 26.9558 289.524 29.5785C289.524 32.1998 287.398 34.3252 284.777 34.3252ZM284.777 66.3105C282.156 66.3105 280.03 64.1851 280.03 61.5638C280.03 58.9425 282.156 56.8172 284.777 56.8172C287.398 56.8172 289.524 58.9425 289.524 61.5638C289.524 64.1851 287.398 66.3105 284.777 66.3105ZM268.784 50.3185C266.162 50.3185 264.037 48.1931 264.037 45.5718C264.037 42.9491 266.162 40.8238 268.784 40.8238C271.406 40.8238 273.53 42.9491 273.53 45.5718C273.53 48.1931 271.406 50.3185 268.784 50.3185ZM284.777 18.5305C269.844 18.5305 257.737 30.6371 257.737 45.5718C257.737 60.5051 269.844 72.6118 284.777 72.6118C299.71 72.6118 311.818 60.5051 311.818 45.5718C311.818 30.6371 299.71 18.5305 284.777 18.5305Z" fill="#1D2A30"/>
<path d="M284.777 72.6118C276.896 72.6118 269.801 69.2385 264.858 63.8585C264.745 63.7358 264.636 63.6145 264.525 63.4892C263.28 62.0838 262.178 60.5451 261.245 58.9011H263.457C267.908 65.9958 275.801 70.7225 284.777 70.7225C298.645 70.7225 309.929 59.4398 309.929 45.5718C309.929 31.7025 298.645 20.4198 284.777 20.4198C280.573 20.4198 276.605 21.4572 273.118 23.2878C272.96 22.7798 272.833 22.2558 272.741 21.7185L272.684 21.3785C276.322 19.5558 280.43 18.5305 284.777 18.5305C299.71 18.5305 311.818 30.6371 311.818 45.5718C311.818 60.5051 299.71 72.6118 284.777 72.6118Z" fill="#758288"/>
<path d="M284.777 69.0999C276.748 69.0999 269.645 65.0572 265.397 58.9012H280.846C280.332 59.6612 280.03 60.5772 280.03 61.5639C280.03 64.1852 282.156 66.3105 284.777 66.3105C287.398 66.3105 289.524 64.1852 289.524 61.5639C289.524 60.4025 289.106 59.3372 288.413 58.5119C292.992 57.3879 296.656 53.9359 298.077 49.4812C298.842 50.0092 299.77 50.3185 300.77 50.3185C303.392 50.3185 305.517 48.1932 305.517 45.5719C305.517 42.9492 303.392 40.8239 300.77 40.8239C299.809 40.8239 298.914 41.1092 298.166 41.6012C296.824 37.1305 293.152 33.6545 288.618 32.3665C289.188 31.5839 289.524 30.6199 289.524 29.5785C289.524 26.9559 287.398 24.8305 284.777 24.8305C282.156 24.8305 280.03 26.9559 280.03 29.5785C280.03 30.0612 280.102 30.5279 280.237 30.9665C277.374 29.8279 275.024 27.6305 273.708 24.8119C277.009 23.0439 280.778 22.0412 284.777 22.0412C297.752 22.0412 308.306 32.5972 308.306 45.5719C308.306 58.5452 297.752 69.0999 284.777 69.0999Z" fill="#758288"/>
<path d="M284.777 70.7227C275.801 70.7227 267.908 65.996 263.457 58.9013H265.397C269.645 65.0573 276.748 69.1 284.777 69.1C297.752 69.1 308.306 58.5453 308.306 45.572C308.306 32.5973 297.752 22.0413 284.777 22.0413C280.778 22.0413 277.009 23.044 273.708 24.812C273.48 24.3213 273.282 23.8133 273.118 23.288C276.605 21.4573 280.573 20.42 284.777 20.42C298.645 20.42 309.929 31.7026 309.929 45.572C309.929 59.44 298.645 70.7227 284.777 70.7227Z" fill="#59656A"/>
<path d="M292.212 45.5718C292.212 49.6771 288.882 53.0051 284.777 53.0051C280.67 53.0051 277.342 49.6771 277.342 45.5718C277.342 41.4651 280.67 38.1358 284.777 38.1358C288.882 38.1358 292.212 41.4651 292.212 45.5718Z" fill="#1D2A30"/>
<path d="M284.728 31.8251H284.726C278.804 31.8251 273.741 27.5558 272.741 21.7185L269.352 1.93312H243.857L240.468 21.7185C239.468 27.5558 234.406 31.8251 228.482 31.8251C221.028 31.8251 214.633 37.6558 214.497 45.1091C214.358 52.7025 220.472 58.9011 228.033 58.9011H285.176C292.737 58.9011 298.85 52.7025 298.712 45.1091C298.576 37.6558 292.182 31.8251 284.728 31.8251Z" fill="#1D2A30"/>
<path d="M285.176 58.9011H228.033C226.918 58.9011 225.833 58.7665 224.797 58.5118C220.217 57.3878 216.553 53.9358 215.132 49.4811C214.72 48.1851 214.496 46.8065 214.494 45.3758C214.494 45.2865 214.496 45.1985 214.497 45.1091C214.633 37.6558 221.028 31.8251 228.482 31.8251C234.406 31.8251 239.468 27.5558 240.468 21.7185L242.66 8.92515H270.549L272.741 21.7185C273.741 27.5558 278.804 31.8251 284.726 31.8251H284.728C292.182 31.8251 298.576 37.6558 298.712 45.1091C298.714 45.1985 298.714 45.2865 298.714 45.3758C298.713 46.8065 298.49 48.1851 298.077 49.4811C296.656 53.9358 292.992 57.3878 288.413 58.5118C287.376 58.7665 286.292 58.9011 285.176 58.9011ZM284.777 38.1358C280.67 38.1358 277.342 41.4651 277.342 45.5718C277.342 49.6771 280.67 53.0051 284.777 53.0051C288.882 53.0051 292.212 49.6771 292.212 45.5718C292.212 41.4651 288.882 38.1358 284.777 38.1358ZM228.433 38.1358C224.326 38.1358 220.997 41.4651 220.997 45.5718C220.997 49.6771 224.326 53.0051 228.433 53.0051C232.538 53.0051 235.868 49.6771 235.868 45.5718C235.868 41.4651 232.538 38.1358 228.433 38.1358Z" fill="#45555C"/>
<path d="M228.433 53.0051C224.326 53.0051 220.997 49.6771 220.997 45.5718C220.997 41.4651 224.326 38.1358 228.433 38.1358C232.538 38.1358 235.868 41.4651 235.868 45.5718C235.868 49.6771 232.538 53.0051 228.433 53.0051Z" fill="#929C9E"/>
<path d="M284.777 53.0051C280.67 53.0051 277.342 49.6771 277.342 45.5718C277.342 41.4651 280.67 38.1358 284.777 38.1358C288.882 38.1358 292.212 41.4651 292.212 45.5718C292.212 49.6771 288.882 53.0051 284.777 53.0051Z" fill="#929C9E"/>
<path d="M275.056 8.92529H238.153C236.89 8.92529 235.868 7.90127 235.868 6.63861V-6.48499e-05H277.342V6.63861C277.342 7.90127 276.318 8.92529 275.056 8.92529Z" fill="#1D2A30"/>
<path d="M275.056 8.92529H238.153C236.89 8.92529 235.868 7.90127 235.868 6.63861V-6.48499e-05H277.342V6.63861C277.342 7.90127 276.318 8.92529 275.056 8.92529Z" fill="#758288"/>
</svg>
