<svg width="20" height="28" viewBox="0 0 20 28" fill="none" xmlns="http://www.w3.org/2000/svg">
<path d="M0 28H20V23C19.9979 21.1441 19.2597 19.3649 17.9474 18.0526C16.6351 16.7403 14.8559 16.0021 13 16H7C5.14413 16.0021 3.36489 16.7403 2.05259 18.0526C0.740295 19.3649 0.00211736 21.1441 0 23V28ZM3 7C3 8.38447 3.41054 9.73785 4.17971 10.889C4.94888 12.0401 6.04213 12.9373 7.32122 13.4672C8.6003 13.997 10.0078 14.1356 11.3656 13.8655C12.7235 13.5954 13.9708 12.9287 14.9497 11.9497C15.9287 10.9708 16.5954 9.7235 16.8655 8.36563C17.1356 7.00776 16.997 5.6003 16.4672 4.32122C15.9373 3.04213 15.0401 1.94888 13.889 1.17971C12.7378 0.410543 11.3845 0 10 0C8.14348 0 6.36301 0.737498 5.05025 2.05025C3.7375 3.36301 3 5.14348 3 7Z" fill="white"/>
</svg>
